<svg xmlns="http://www.w3.org/2000/svg" version="1.1" xmlns:xlink="http://www.w3.org/1999/xlink" xmlns:svgjs="http://svgjs.com/svgjs" height="263.6433410644531" width="252.94285583496094"><defs id="SvgjsDefs1244"></defs><g id="SvgjsG1245" rel="mainfill" name="main_text" xmlns:name="main_text" transform="translate(44.826430320739746,-94.5133285522461)" fill="#FF8C00"><path d="M1.21 230.11Q1.21 232.92 2.67 234.77Q4.12 236.61 6.35 237.70Q8.58 238.79 11.25 239.25Q13.91 239.71 16.33 239.71Q20.89 239.71 24.70 238.96Q28.50 238.21 31.75 236.99Q31.80 236.80 31.80 236.66Q31.80 236.46 31.80 236.32Q31.80 235.10 30.88 234.77Q25.83 235.98 19.82 235.98Q18.71 235.98 17.09 235.88Q15.46 235.78 13.69 235.54Q11.92 235.30 10.18 234.93Q8.43 234.57 7.05 234.01Q5.67 233.46 4.80 232.71Q3.93 231.95 3.93 230.98Q3.93 228.61 5.14 226.50Q6.35 224.39 8.31 222.60Q10.28 220.81 12.72 219.33Q15.17 217.85 17.69 216.69Q20.21 215.52 22.51 214.67Q24.82 213.83 26.46 213.34Q26.42 214.26 26.37 215.47Q26.32 216.69 26.32 217.56Q27.39 218.48 28.50 218.48Q28.99 218.33 29.32 217.90Q29.52 215.43 29.64 213.85Q29.76 212.28 29.83 211.28Q29.91 210.29 29.98 209.75Q30.05 209.22 30.15 208.83Q30.39 207.86 30.56 207.26Q30.73 206.65 30.92 205.97Q30.92 205.49 30.44 205.05Q29.95 204.62 29.71 204.62Q28.99 204.62 28.69 204.86Q28.40 205.10 28.31 205.34Q27.72 207.52 27.41 208.74Q27.09 209.95 26.93 210.60Q26.76 211.26 26.71 211.45Q26.66 211.64 26.66 211.79L25.98 211.16Q23.60 211.55 20.87 212.28Q18.13 213.00 15.37 214.12Q12.60 215.23 10.06 216.73Q7.51 218.24 5.55 220.22Q3.59 222.21 2.40 224.66Q1.21 227.11 1.21 230.11ZM36.26 238.64Q36.30 239.32 36.59 240.15Q36.89 240.97 37.56 241.94Q38.39 241.41 38.73 240.39Q40.71 240.39 42.97 239.64Q45.22 238.89 47.14 237.53Q49.05 236.17 50.31 234.23Q51.57 232.29 51.57 229.97Q51.57 227.79 50.31 226.40Q49.05 225.02 46.87 225.02Q45.32 225.02 43.82 226.21Q42.31 227.40 41.05 229.09Q39.79 230.79 38.78 232.61Q37.76 234.43 37.18 235.73Q36.59 234.67 36.59 233.36Q36.59 231.37 37.52 229.80Q38.44 228.22 39.89 227.11Q41.35 225.99 43.09 225.31Q44.83 224.63 46.53 224.49Q47.60 224.39 47.60 224.15Q47.60 223.86 47.11 223.64Q46.63 223.42 46.00 223.28Q45.37 223.13 44.76 223.06Q44.16 222.99 43.91 222.99Q42.07 222.99 40.33 223.69Q38.58 224.39 37.23 225.65Q35.87 226.91 35.04 228.61Q34.22 230.31 34.22 232.24Q34.22 233.75 34.75 235.49Q35.29 237.24 36.26 238.64M40.04 236.66Q40.71 234.18 41.44 232.44Q42.17 230.69 42.99 229.63Q43.82 228.56 44.81 228.08Q45.80 227.59 47.02 227.59Q49.29 227.59 49.29 230.02Q49.29 231.32 48.35 232.54Q47.40 233.75 46.12 234.67Q44.83 235.59 43.45 236.15Q42.07 236.70 41.20 236.70Q40.96 236.70 40.67 236.70Q40.38 236.70 40.04 236.66ZM54.00 226.04L54.58 226.91L55.60 225.46Q57.78 225.46 59.76 226.11Q61.75 226.77 63.28 227.88Q64.80 229.00 65.73 230.52Q66.65 232.05 66.65 233.84Q66.65 236.36 62.24 236.36Q61.80 236.36 61.07 236.20Q60.35 236.03 60.35 235.78Q60.35 234.57 60.37 233.82Q60.39 233.07 60.42 232.58Q60.44 232.10 60.44 231.81Q60.44 231.52 60.44 231.28Q60.44 230.84 60.42 230.28Q60.39 229.72 60.37 229.24Q60.35 228.75 60.27 228.44Q60.20 228.12 60.10 228.12Q58.46 228.12 57.82 229.70Q57.19 231.28 57.19 234.86Q55.79 234.18 55.06 233.26Q54.48 234.14 54.48 235.01Q54.48 235.98 55.38 237.07Q56.27 238.16 57.58 238.93Q57.58 239.76 58.02 240.34Q58.46 240.92 59.57 240.92Q60.49 240.44 60.78 239.76Q62.43 239.76 64.05 239.27Q65.68 238.79 66.96 237.92Q68.25 237.04 69.02 235.81Q69.80 234.57 69.80 233.02Q69.80 230.84 68.63 229.07Q67.47 227.30 65.70 226.09Q63.93 224.88 61.82 224.22Q59.72 223.57 57.78 223.57Q57.15 223.57 56.49 223.67Q55.84 223.76 55.28 224.03Q54.72 224.30 54.36 224.78Q54.00 225.27 54.00 226.04ZM73.19 231.23Q73.19 231.81 73.24 232.51Q73.29 233.21 73.29 233.50Q72.22 235.35 72.22 236.80Q72.22 237.38 72.39 237.99Q72.56 238.59 72.90 239.10Q73.24 239.61 73.65 239.95Q74.06 240.29 74.60 240.29Q75.76 240.29 77.12 240.02Q78.47 239.76 79.68 239.32Q80.90 238.89 81.70 238.35Q82.50 237.82 82.50 237.33Q82.50 236.51 82.06 236.00Q81.62 235.49 80.85 235.49Q80.36 235.49 79.61 235.61Q78.86 235.73 78.11 235.88Q77.36 236.03 76.68 236.15Q76.00 236.27 75.61 236.27Q76.10 234.91 76.24 234.45Q76.39 233.99 76.44 233.75L76.87 233.46Q78.13 233.46 78.93 233.43Q79.73 233.41 80.24 233.36Q80.75 233.31 81.04 233.26Q81.33 233.21 81.58 233.12Q82.06 232.78 82.06 231.91Q82.06 231.42 81.48 231.15Q80.90 230.89 80.17 230.89L78.67 230.89Q78.04 230.84 77.60 230.55Q77.94 229.29 78.18 228.85L78.42 228.75Q78.57 228.75 79.25 228.73Q79.93 228.71 80.36 228.71Q82.64 228.71 83.56 228.44Q84.48 228.17 84.48 227.98Q84.48 226.96 83.56 226.11Q82.64 225.27 81.58 225.27Q80.02 225.27 78.45 225.41Q76.87 225.56 75.64 225.77Q74.40 225.99 73.63 226.21Q72.85 226.43 72.85 226.57Q72.85 227.20 73.58 227.79Q74.30 228.37 75.27 228.61L74.26 230.98Q73.97 231.03 73.70 231.08Q73.43 231.13 73.19 231.23ZM91.51 205.68Q91.12 206.31 90.61 208.30Q90.11 210.29 89.60 212.93Q89.09 215.57 88.60 218.55Q88.12 221.53 87.73 224.13Q87.34 226.72 87.13 228.56Q86.91 230.40 86.91 230.84Q86.91 232.68 87.08 234.23Q87.25 235.78 87.54 236.92Q87.83 238.06 88.22 238.72Q88.60 239.37 89.04 239.37Q89.48 239.37 89.86 238.64Q90.25 237.92 90.57 236.68Q90.88 235.44 91.12 233.80Q91.37 232.15 91.51 230.26Q91.80 226.67 92.00 224.56Q92.19 222.45 92.31 221.24Q92.43 220.03 92.53 219.52Q92.63 219.01 92.67 218.62Q93.06 217.03 93.33 216.49Q93.60 215.96 93.89 215.96Q94.47 215.96 95.20 217.85Q96.21 221.05 96.92 223.33Q97.62 225.60 98.15 227.25Q98.69 228.90 99.07 230.06Q99.46 231.23 99.80 232.15Q100.14 233.07 100.45 233.89Q100.77 234.72 101.21 235.69Q102.32 238.21 103.12 239.30Q103.92 240.39 104.60 240.39Q105.13 240.39 105.52 239.85Q105.91 239.32 106.13 238.57Q106.34 237.82 106.46 237.07Q106.59 236.32 106.63 235.88Q107.07 231.32 107.41 228.29Q107.75 225.27 107.99 223.35Q108.23 221.44 108.38 220.44Q108.52 219.45 108.57 219.01Q109.06 216.69 109.74 216.69Q110.22 216.69 110.75 217.80Q112.50 225.17 113.86 230.35Q115.21 235.54 116.45 238.98Q117.69 242.42 118.90 244.24Q120.11 246.06 121.66 246.64Q123.50 247.37 124.64 247.71Q125.78 248.05 126.26 248.05Q126.60 248.05 126.60 247.85Q126.60 247.66 126.36 247.42Q124.18 244.51 122.85 242.54Q121.51 240.58 120.69 239.22Q119.87 237.87 119.48 236.95Q119.09 236.03 118.80 235.15Q117.10 229.92 115.82 225.34Q114.53 220.76 113.59 217.27Q112.64 213.78 112.06 211.55Q111.48 209.32 111.29 208.74Q110.61 206.80 109.88 206.00Q109.15 205.20 108.62 205.20Q106.54 205.20 105.28 213.00Q104.79 217.85 104.38 220.81Q103.97 223.76 103.65 225.39Q103.34 227.01 103.12 227.57Q102.90 228.12 102.81 228.12Q102.56 228.12 102.32 227.30Q102.08 226.48 101.54 224.93Q100.43 221.39 99.34 218.04Q98.25 214.70 97.26 212.01Q96.26 209.32 95.46 207.57Q94.66 205.83 94.13 205.44Q93.50 204.67 92.82 204.67Q92.09 204.67 91.51 205.68ZM129.03 219.01Q129.03 220.37 130.00 221.63Q129.95 221.78 129.95 221.97Q129.95 222.11 129.95 222.26Q129.95 223.37 130.87 224.10Q131.94 224.10 132.28 223.04Q133.10 223.23 133.63 223.28Q134.17 223.33 134.70 223.33Q135.86 223.33 137.39 222.77Q138.92 222.21 140.25 221.27Q141.58 220.32 142.50 219.09Q143.42 217.85 143.42 216.54Q143.42 214.21 140.95 213.92Q139.69 212.37 137.32 212.37Q136.01 212.37 134.53 212.91Q133.05 213.44 131.84 214.34Q130.63 215.23 129.83 216.44Q129.03 217.66 129.03 219.01M133.15 226.23Q133.15 226.62 133.05 228.00Q132.95 229.39 132.81 231.23Q132.66 233.07 132.57 235.13Q132.47 237.19 132.47 238.89Q132.57 239.56 133.15 239.81Q133.73 240.05 134.36 240.05Q135.04 240.05 135.35 239.83Q135.67 239.61 135.67 238.89Q135.67 237.38 135.60 235.30Q135.52 233.21 135.45 231.28Q135.38 229.34 135.28 227.93Q135.18 226.53 135.13 226.43Q134.36 225.65 133.39 225.65Q133.29 225.85 133.24 225.99Q133.20 226.14 133.15 226.23M133.83 220.56Q136.35 216.73 140.22 215.76Q140.51 215.76 140.90 215.98Q141.29 216.20 141.29 216.73Q140.42 218.82 138.65 219.74Q136.88 220.66 134.99 220.66Q134.70 220.66 134.41 220.66Q134.12 220.66 133.83 220.56M131.35 218.92Q131.55 216.44 134.46 215.43Q134.60 215.43 134.60 215.47L131.35 218.92ZM153.70 230.26Q153.21 229.43 152.68 228.56Q152.15 227.69 151.69 226.96Q151.23 226.23 150.89 225.75Q150.55 225.27 150.40 225.12Q149.05 225.12 147.93 225.80Q147.93 226.82 148.37 227.88Q148.80 228.95 149.39 229.89Q149.97 230.84 150.52 231.52Q151.08 232.20 151.37 232.49Q150.55 233.02 149.60 234.16Q148.66 235.30 147.81 236.49Q146.96 237.67 146.40 238.64Q145.85 239.61 145.85 239.81Q145.85 241.11 147.79 241.11L153.17 234.67Q154.77 236.27 155.71 237.12Q156.66 237.96 157.14 238.38Q157.62 238.79 157.79 238.86Q157.96 238.93 158.06 238.93Q158.74 238.93 159.32 238.45Q159.90 237.96 159.90 236.99Q159.90 236.32 159.52 235.66Q159.13 235.01 158.30 235.01Q158.16 235.01 158.04 235.03Q157.92 235.06 157.77 235.10L155.40 232.49Q157.04 230.26 158.79 229.19Q160.53 228.12 161.79 227.59Q162.08 226.96 162.08 226.23Q162.08 225.56 161.70 225.19Q161.31 224.83 160.73 224.83Q159.61 224.83 158.59 225.48Q157.58 226.14 156.70 227.03Q155.83 227.93 155.08 228.85Q154.33 229.77 153.70 230.26Z" fill="#FF8C00" style="fill: rgb(255, 140, 0);"></path></g><g id="SvgjsG1246" transform="translate(-0.02759534679353237,0.0016864200588315725) scale(2)" rel="mainfill" name="outline_container" xmlns:name="outlineContainer_mainfill" fill="#FF8C00"><title>template-11</title><g id="Слой_2" data-name="Слой 2" fill="#FF8C00"><g id="Layer_1" data-name="Layer 1" fill="#FF8C00"><path d="M96.49,101.71c-.09,0-.17-.15-.14-.19s.19,0,.21.12c.63-.6,1.26-1.22,1.86-1.85a.39.39,0,0,0-.2.06c0-.19.13-.24.15-.39l.37,0a0,0,0,0,0,0,0,49.5,49.5,0,0,0,9.4-14.32c-.16.06-.34-.1-.51-.23a.51.51,0,0,1,.6,0,48.44,48.44,0,0,0,3.85-19.49h0c-.14,0-.1-.25,0-.26l0,0c0-.43,0-.85,0-1.27a2.07,2.07,0,0,1,0-.6c0-.11,0-.23,0-.36a.47.47,0,0,1-.1-.52c-.42-.2-1-.31-.48-.87a1.49,1.49,0,0,0,.53.7c0-.43-.06-.85-.1-1.29a49.15,49.15,0,0,0-2.68-11.72l-.2-.16.1-.12a48.78,48.78,0,0,0-4-8.29l-.21,0c-.57,0,.13-.05.2,0-.66-1.09-1.36-2.15-2.09-3.18h0l0-.05c-.5-.7-1-1.38-1.55-2a.58.58,0,0,1-.34.06c-.17-.15-.14-.33,0-.52a49,49,0,0,0-4.3-4.58,4.5,4.5,0,0,0-.95.79c-.16,0-.31.1-.47.06a47.61,47.61,0,0,1,6.22,7c0-.07,0-.17,0-.18s.11.26,0,.26,0,0,0,0c.67.91,1.3,1.84,1.9,2.81a.11.11,0,0,1,.13,0,.88.88,0,0,1,0,.16c.3.47.57,1,.85,1.45a.69.69,0,0,1,.11-.13c0,.25.24.48.24.74.34.63.67,1.26,1,1.9a.12.12,0,0,1,.06.12l.21.47a1.49,1.49,0,0,1,.13-.25c.12.11,0,.24-.08.37a47.23,47.23,0,0,1-56,65.3c-.18.28.08.92-.64.77a6,6,0,0,1,.17-.9,47.53,47.53,0,0,1-11.21-5.09,1.83,1.83,0,0,1,.08.25c-.18,0-.17-.2-.22-.34q-2-1.27-3.92-2.75a.69.69,0,0,0,0,.17c-.26,0-.13-.14-.09-.27l-.22-.18c-.29.27-.43,0-.68-.19-.52,0,.34,1.18-.46,1a1.6,1.6,0,0,0-.29-1.09c-.32.38-.46.07-.92.1s.25.47.42.51a.26.26,0,0,1,0,.18c.74.61,1.49,1.22,2.26,1.79.06-.22.33.14.34-.19.2,0,.16.35.41.33,0,.13-.13.17-.27.19.41.3.83.56,1.25.85a.55.55,0,0,1-.18-.38c.22-.27.66-.32.76.1.36-.13.3-.59.71-.25a1,1,0,0,1,.26.71c-.09.6-.27-.3-.24-.53l-.37,0c-.22.06-.18.57.06.55-.05.13-.42.09-.73-.06l.85.58c0-.08,0-.14.1-.17a.19.19,0,0,1,.13.31l.61.39a.56.56,0,0,1,.46.1.17.17,0,0,1-.07.13c1.44.86,2.94,1.64,4.47,2.36a.74.74,0,0,1,.22-.73c.46,0,.44.55.47,1a48.71,48.71,0,0,0,53-8.87ZM30,99.56a1.41,1.41,0,0,1-1.42-1.16c.39,0,.42.46.63.68a2.83,2.83,0,0,1,.53.07,47.23,47.23,0,0,1-7.25-9.46.77.77,0,0,1,.06.43c-.53,0-.36-.94-1.18-.63a.65.65,0,0,1,1.06.1A47.2,47.2,0,0,1,47.82,21.31c-.24-.08-.25-.57-.22-.83.44-.28.39.51.59.7A48.4,48.4,0,0,1,58.49,19,47.05,47.05,0,0,1,93.82,30a2.74,2.74,0,0,1,.77-1.14.59.59,0,0,1,.32,0A48.68,48.68,0,0,0,58.32,17.34a50.6,50.6,0,0,0-7.65,1.4.36.36,0,0,1-.08.12s0-.06,0-.09A49,49,0,0,0,16.87,50.7a.14.14,0,0,1,.12,0c.15.22-.09.13-.22.27a48.71,48.71,0,0,0,3,37.06.51.51,0,0,1,.77.41c-.15,0-.2-.17-.39-.15l-.18.13a50.82,50.82,0,0,0,2.91,4.89v-.11l.55,0,.05.55a.4.4,0,0,1-.37-.08,49.65,49.65,0,0,0,4.95,6,1.12,1.12,0,0,1-.11-.31c.18,0,.17.21.22.35a.08.08,0,0,1-.09,0c.7.74,1.42,1.45,2.18,2.14a2.12,2.12,0,0,0-.07-.46c.22.36,1,.06,1,.64a6.84,6.84,0,0,1,1.75,0c-1-.85-2-1.73-2.94-2.67A.41.41,0,0,1,30,99.56Z" fill="#FF8C00" style="fill: rgb(255, 140, 0);"></path><path d="M103,14.93c.06-.44,0-.73-.39-.78C102.27,14.44,102.35,15,103,14.93Zm-7.82-4.41h-.08l-.19,0a.13.13,0,0,1-.09.1C94.84,10.88,95.06,10.71,95.14,10.52ZM36,15h-.4a.71.71,0,0,0,0,.2Zm1.59-.82c-.43-.61-.51.06-.8.22-.6-.29.06-.59.29-.89-.24-.37-.49-.28-.74-.44-.14.15.07.3.15.44-.2.29-.4.12-.59.3-.31.56.56.39.74.74a.45.45,0,0,0-.17.21Zm.38-1.85c-.17.35-1,.18-.74.74.29-.35.59.46.89.59.13-.42.94-.05.59-.59a1.49,1.49,0,0,1-.74.15c.42-.39.05-.55.59-.6-.63-.29-.46-.32-.59-.88-.3.14-.59.15-.89.29C37.35,12.68,37.64,11.66,37.94,12.32Zm-3.13,3.32.5-.29c-.35-.32-.72-1.13-1.07-.51C34.83,15.12,34.72,15.16,34.81,15.64Zm-1.15.66.4-.23a.61.61,0,0,1-.12-.05A3.7,3.7,0,0,1,33.66,16.3Zm67,102.8a2.62,2.62,0,0,0-.34,1.19h0a5.36,5.36,0,0,0,.53-.28h0A1.21,1.21,0,0,0,100.65,119.1ZM34.38,13.5c0-.08-.29-.15-.29,0S34.38,13.66,34.38,13.5Zm.3.6c-.44.65-.89-.38-1.33-.15.74.31.41,1.36.89,1.18a.59.59,0,0,1,0-.59C34.43,14.39,34.83,14.47,34.68,14.1Zm.74-.45-.3-.29c-.19.18-.39,0-.59.29l.45.45ZM98.55,115.7c0,.11.16.22.2,0S98.59,115.48,98.55,115.7Zm13.57-16.65.25,0,.13-.16C112.34,98.89,112.12,98.86,112.12,99.05Zm-.21-1.25a.94.94,0,0,1-.21.62c.43-.12,1.45.34,1.25-.41C112.3,98.24,112.4,98.1,111.91,97.8ZM26.08,26.55c0,.08.3.15.3,0S26.09,26.39,26.08,26.55Zm86.25,69.91-.46.71a1.38,1.38,0,0,1,.46-.21Zm.42,1.34a.54.54,0,0,1,.38.35l.24-.25C113.08,97.73,112.86,97.54,112.75,97.8ZM93.22,16.49c.06-.06-.09-.3-.19-.2s0,.1,0,.16l.09.05A0,0,0,0,0,93.22,16.49Zm-1.75-5.07a.74.74,0,0,0-.51-.28c0,.1,0,.21-.07.31a2,2,0,0,1,.19.36C91.29,11.76,91.21,11.42,91.47,11.42ZM35.87,13.5c0-.08-.3-.15-.3,0S35.87,13.66,35.87,13.5ZM91.27,11s0-.14-.08-.19h-.11C91.05,10.92,91.18,11.13,91.27,11ZM119,88c.35,0,1.21.44,1.56.19C119.85,88.09,119.66,87.31,119,88Zm-7.92,10.35c-.27.39-.55.77-.82,1.15.1.22.28.36.18.77a.5.5,0,0,0-.19-.13c0,.09-.16.17-.21.13a.09.09,0,0,1,0-.12l-.34.12-.31.42c.16.6-.3.54-.22,1a.71.71,0,0,1-.27-.43c-.7.9-1.43,1.78-2.18,2.63l.36.1c0,.27-.31.26-.63.23a60,60,0,0,1-4.58,4.58.27.27,0,0,0,.18.18,3.73,3.73,0,0,0-1.37,1.76.44.44,0,0,1-.37-.59l-1.07.89s.06,0,.08.08c.06.5-.42.47-.82.51-.84.64-1.69,1.26-2.56,1.86a.15.15,0,0,1-.13.1,57.7,57.7,0,0,1-11.28,6,6,6,0,0,1,.12.76,1,1,0,0,1-.53-.6,57.57,57.57,0,0,1-46.59-2.14,1.35,1.35,0,0,0-.63,1.39c-.72,0-1-.4-1.32-.75.09-.58.49-.86.78-1.24q-1.07-.57-2.1-1.17a1.28,1.28,0,0,1-.29.23c-.23.47,0,1.4-.76,1.33-.25-.49.34-.66.19-1.33,0-.27.23-.34.33-.53q-.89-.54-1.77-1.11a.83.83,0,0,1-.26.51c0,.4.37.45.38.85s-.28.67-.38,1c.23.4.57-.23.95.09.07.48-.29.53-.19,1s.43.26.47.57.38.32.47.57c-.08,1.17-.51,2-2,1.79-.15-.26-.14-.68-.28-.94s-.56-.33-.76-.57c-.11-.59-.45-.94-.38-1.7,0-.39-.55-.26-.38-.85-.27-.39-.79-.54-.94-1-.64-.18-1.36-.68-2.18-.38-.38-.09-.58-.37-.85-.56s-.68-.21-.56-.76c.63-.09.91-.53,1.6-.57.42-.15.48-.66.85-.85a2.82,2.82,0,0,0,1.23-.19,5.46,5.46,0,0,1,.95.76.38.38,0,0,0,.28-.14,58.16,58.16,0,0,1-7.51-6.32,1.66,1.66,0,0,1-.62.32c-.21-.16-.3-.46-.47-.67s-.27-.41-.28-.75a1,1,0,0,1,.21-.1A57.85,57.85,0,0,1,7.83,82.26c-.18.1-.59.12-.59-.13s.25-.34.46-.32a56.66,56.66,0,0,1-1.43-6.25l-.19,0c-.57-.09,0-.13.18-.09a57.69,57.69,0,0,1,17.82-52v-.38c.21-.08.29,0,.33.05l.56-.48c-.09-.05,0-.16.08-.15a.08.08,0,0,1,.07,0,58,58,0,0,1,8.05-6,1.08,1.08,0,0,1,.33-.71,2.06,2.06,0,0,0-1.34-.45c0-.56.16-.39-.44-.74.41-.3.05-.59.59-.89.28.2.11.4.3.59.38-.24.07-.49-.15-.74a1.54,1.54,0,0,1,.74.15c0-.63.25-.86.89-.59-.45-.54.63-.69.89-1.48-.28-.31,0-.61,0-.92l-1.16-.09a2.63,2.63,0,0,0,.39.27l-.6.59c-.28-.25-.13-.5-.44-.74-.15-.14-.3.06-.45.15a.27.27,0,0,1-.14-.37l-.9-.07c0,.14-.29.07-.29,0v0A10.48,10.48,0,0,0,25,12.25c0,.05.07.12,0,.15s-.12,0-.16-.06c-.23.15-.45.3-.67.47.23,0,.57,0,.09.1l-.17,0a10.41,10.41,0,0,0-3.75,5.69L19.2,23.62A25,25,0,0,1,9.41,37.1L5,39.8a10.87,10.87,0,0,0-4.23,13l2,4.78a24.81,24.81,0,0,1,0,16.66l-2,4.79a10.39,10.39,0,0,0-.39,6.54c.07-.35.44-.41.56-.71.55.29.63,1.06.66,1.89-.2.18-.62.07-.85,0a10.66,10.66,0,0,0,.85,1.77,5.24,5.24,0,0,1-.19-1.11c.26-.15.72-.09,1-.19a9.75,9.75,0,0,1,.28-1.61c0-.32-.28-.35-.47-.47a5.17,5.17,0,0,1-.38-1.33,1.64,1.64,0,0,0,.66-1.41.6.6,0,0,0,.47-.1c0-.56-.81-.31-1.13-.56,0-.45.41-.54.57-.85.29,0,.25.25.47.28.45-.21.14-.53.09-1,.29-.45.84-1.45,1.42-.75-.05,1-.35,1.79-.47,2.74A5.29,5.29,0,0,1,4,85a5.53,5.53,0,0,1,.19,1.89c-.19.31-.56.44-.75.75-.48.1-.48-.27-.76-.37-.22.22,0,.9-.28,1a2,2,0,0,1,0,1.53A9.92,9.92,0,0,0,5,92.07l4.44,2.7a24.93,24.93,0,0,1,9.79,13.47l.66,2.81c.06.08.11.17.23.19.46-.74.41-2,1.42-2.17a8.52,8.52,0,0,1,.75,1.79,1.15,1.15,0,0,0,.38,1.51c.42.07.39-.3.66-.37s.57-.13.95-.1a2.14,2.14,0,0,1,.94.47c.45,0,.52-.45.94-.19s-.1.73-.18,1c-.94-.17-1.07.45-1.89.38-.28.11-.17.59-.48.67.1.49.62.65,1.14.47a1.57,1.57,0,0,1-.19,1.41c-.53.26-1.2.38-1.23,1.14-.18.14-.34.29-.51.43a8.52,8.52,0,0,0,.85.85.63.63,0,0,1,.13-.24c.29-.1.17.21.19.38a1.34,1.34,0,0,1,.12.24,11.58,11.58,0,0,0,2.3,1.42c.38-.28,1-.35,1-1a.76.76,0,0,1,.57.09,1.62,1.62,0,0,1-.09.66,1.5,1.5,0,0,1,.94.85.75.75,0,0,1-.14.17,9.61,9.61,0,0,0,2.83.2l5.18-.42a24.91,24.91,0,0,1,15.83,5.14l3.94,3.39.19.14a.48.48,0,0,1,.68.51,10.64,10.64,0,0,0,5.59,1.76l0,0c.1-1.09.27-2.13.37-3.21a.67.67,0,0,0,.38-.57c.32-.12.36-.52.76-.57.1-.25.08-.61.47-.56.16.41-.56.67-.57,1.23-.19.08-.37.19-.56.28a2.94,2.94,0,0,0,.38.94c-.08.59-.15,1.18-.22,1.76.05,0,.14-.09.17-.06s-.13.24-.19.2c0,.13,0,.25,0,.37.83,0,.36-1.28,1.14-1.32.12.09.35.09.37.28-.07.36-.12.74-.19,1.1a10.2,10.2,0,0,0,5-2.26l3.93-3.39a25,25,0,0,1,11.23-4.86c0-.09.16-.17.21-.14a1.55,1.55,0,0,1,0-.3h.59a.73.73,0,0,1-.08.33c.47-.07.93-.12,1.38-.16a1.41,1.41,0,0,1-.52-1.14,1.7,1.7,0,0,1,.71,1.13,16.18,16.18,0,0,1,2.31,0l5.17.42a10,10,0,0,0,4.36-.66.51.51,0,0,1,.33-.25c0-.42-.57-.26-.42-.84a1.05,1.05,0,0,1,.77.34c0-.12.09-.19.2-.14a3.29,3.29,0,0,1,.39-2.53c.55.43.38.95.12,1.51.35.06.46.36.41.82a.62.62,0,0,0,.28,0,11.23,11.23,0,0,0,2.14-1.8,1.1,1.1,0,0,0,0-.18.33.33,0,0,1,.13.07,11.78,11.78,0,0,0,1-1.24h-1.1c-.48-.46.29-.37.19-1a.58.58,0,0,1-.19-1c.51-.06.5.41.58.78a3,3,0,0,1,1.1.18,9.82,9.82,0,0,0,.84-2.19l.65-2.76c-.45-.13-.53-.64-.75-1a.37.37,0,0,1,.16-.07h0v-.77c.39-.07.61,0,.58.38a.54.54,0,0,1,.43-.1l.18-.73s0-.11,0-.16c-.14.15-.36.35-.06,0l.08-.07c.06-.24.14-.48.21-.72,0,0-.08,0-.1,0s.08-.2.16-.2,0-.19.09-.29,0,0-.05,0a.42.42,0,0,1,.1-.14c0-.15.12-.29.17-.44l-.28-.07c.15-.6-.19-.72-.19-1.17.51-.07.64.26.59.77h0l.05,0c.08-.2.19-.4.27-.59l-.23,0c0-.14.15-.22.35-.23l.23-.51a.1.1,0,0,1,0-.07c0-.14.09-.15.14-.12a27.29,27.29,0,0,1,1.77-2.94,1.5,1.5,0,0,0,0-.51l.32.08c.17-.24.34-.47.52-.7h0l.15-.2a.29.29,0,0,1-.16,0c0-.24,0-.37-.21-.42.21-.21.41-.42.63-.63C111.71,98.61,111.35,98.55,111.08,98.39Zm-84.86-79c-.1.1-.25-.14-.2-.2S26.27,19.35,26.22,19.41ZM26.61,21c-.1.1-.25-.14-.2-.2S26.66,20.91,26.61,21Zm2.53-5.26c.1-.1.25.14.2.19S29.09,15.76,29.14,15.71Zm-.39,3.11a.53.53,0,0,1-.39-.58A.53.53,0,0,1,28.75,18.82Zm-.39-3.31c-.37-.08-.84-.07-.78-.58C28.09,14.87,28.42,15,28.36,15.51Zm-1.75-1.17c-.18-.2-.72-.06-.59-.58C26.45,13.73,26.65,13.92,26.61,14.34Zm.78,1.17a4.33,4.33,0,0,0-1.76-.19C25.57,14.63,27.68,14.72,27.39,15.51Zm-2.14,2.73c-.44.11-.28-.38-.59-.39C24.74,17.36,25.42,17.84,25.25,18.24Zm-.39-1.36c-.31-.11,0-.21.19-.2S25.06,16.88,24.86,16.88Zm-.78-2.34c.45-.43,1.08.06,1,.78-.37-.37-.49,0-1,0Zm0,3.7c.1,0,.22.16,0,.19Zm0,3.5c.1,0,.22.16,0,.2ZM5.16,77.32c-.3,0-.3-.21-.29-.48h.48C5.36,77.07,5.37,77.3,5.16,77.32Zm3.4,13.89c-.46.05-.44-.38-.76-.48s-.33.5-.66.57c-.44-.1-.59-.48-1-.57-.06-.5.35-.54.57-.75a2.35,2.35,0,0,0,1.61.47C8.49,90.58,8.84,90.88,8.56,91.21Zm.85.18c.2,0,.25.07.38.1C9.77,91.76,9.34,91.72,9.41,91.39Zm15.78,24.67c.56.12-.34.44,0,0Zm3.4,2.93c.17,0,.22.16.19.38A.23.23,0,0,1,28.59,119Zm13.33,1.7a1.26,1.26,0,0,1-1,0c.09-.41.46-.54.94-.57C41.82,120.34,42,120.4,41.92,120.69Zm14,8c-.36.08-.33-.42-.19-.56H56C56.13,128.28,56.16,128.72,55.9,128.72Zm1.89-1.23c-.1-.6,1-.66.85,0C58.42,127.56,58,127.68,57.79,127.49Zm.85,2.74c-.38.06-.32-.4-.09-.47S58.77,130.11,58.64,130.23Zm1.61-.75c-.56,0-.91-.23-.85-.85.39.07.48-.15.85-.1,0,.09.08.17.19.19A1.52,1.52,0,0,1,60.25,129.48Zm.32.05c0-.19.24-.15.39-.2C61,129.52,60.72,129.48,60.57,129.53Zm2.53-1c0-.22.2-.11.2,0S63.1,128.66,63.1,128.55Zm-.3-1.15c-.31-.41.16-1.16.57-.85A.74.74,0,0,1,62.8,127.4Zm2,2.46c.07-.18.1,0,.09.18S64.78,130,64.79,129.86Zm.65,1.62c0-.19.24-.16.39-.2C65.82,131.47,65.59,131.43,65.44,131.48Zm.2-.4c-.1-.1.14-.24.19-.19S65.69,131.14,65.64,131.08Zm1-.19c-.08-.47.36-.42.19-1C67.4,129.63,67.08,131,66.61,130.89Zm1.17-1.95c.1-.3.2,0,.19.2S67.77,129.15,67.78,128.94Zm.78,1.36c-.11-.1.13-.24.19-.19S68.61,130.36,68.56,130.3Zm11.49-8.37c-.1-.1.14-.25.19-.19S80.1,122,80.05,121.93Zm19.47-8.77c.2.59-.43.35-.77.4C98.79,113.21,99.08,113.11,99.52,113.16Zm-.77-1.36c.1.1-.14.25-.2.2S98.69,111.75,98.75,111.8Zm-1.56,2.73c-.1-.1.14-.25.19-.19S97.25,114.58,97.19,114.53Zm2.92,2.53c-.41-.27.15-1-.2-1.17C100.62,115.45,100.38,116.56,100.11,117.06Zm-1-.78c-.53-.08-.18.73-.58.78-.74.35.2-1.33-.58-.58-.29-.37.42-1.39.58-2,.27.06.16.49.2.78.34,0,.44-.34.38-.78.58.14.85.58,1.76.39C100,115.09,100,116.06,99.13,116.28Zm2.35-6.62c.69-.19.34.84.19,1C101.25,110.67,101.58,109.94,101.48,109.66Zm.58,5.07c0,.22-.36.16-.58.19C101.5,114.69,101.83,114.75,102.06,114.73Zm-.58,2.14c-.11-.1.13-.25.19-.2S101.53,116.92,101.48,116.87Zm.19,2.14c-.49-.36.32,0,.58,0C102.11,119.36,101.9,119,101.67,119Zm1.75-5.85c-.37.39-.18.84-.39,1C103,114.74,102.46,113,103.42,113.16Zm1,3.51c.11.1-.14.25-.19.2S104.34,116.62,104.39,116.67Zm-.77.78c0-.19.23-.15.39-.19C104,117.44,103.76,117.41,103.62,117.45Zm.19-.58c0,.19-.24.15-.39.19C103.43,116.87,103.66,116.91,103.81,116.87Zm1.56-8.57c0,.18-.24.15-.39.19C105,108.3,105.22,108.34,105.37,108.3Zm-1.36,6c.08-.38.07-.85.58-.78C104.94,113.89,104.53,114.32,104,114.34Zm.78.39a.19.19,0,0,1,.38,0C105,114.84,104.83,115,104.79,114.73Zm1-.79c-.17,0-.18.08-.2.2h-.39v-.39c.17,0,.19-.08.2-.19h.39Zm0-4.87c0-.22.19-.1.19,0S105.76,109.18,105.76,109.07Zm.58-2.14c.09-.17.17-.35.39-.39,0-.38-.53-.25-.39-.78a1,1,0,0,1,1,1A1.26,1.26,0,0,1,106.34,106.93Zm0-2.14c.45.27,1.22.21,1.17,1C107,105.57,106.4,105.44,106.34,104.79Zm2.34-.58c-.1-.1.14-.25.2-.2S108.73,104.26,108.68,104.21Zm2.14-5.07c-.1-.1.15-.25.2-.19S110.88,99.2,110.82,99.14ZM94.58,11c-.11-.07-.1-.24-.06-.46l-.31,0C94.18,11,94.42,11.44,94.58,11Zm-59,3.66c-.15-.08-.3-.29-.45-.15C35.27,14.62,35.42,14.83,35.57,14.69ZM58.39,5.5c-.08.15,0,.3.15.45C58.62,5.8,58.59,5.65,58.39,5.5Zm59.64,80a.86.86,0,0,1-.2.58c.4-.12,1.36.32,1.17-.39C118.39,85.92,118.49,85.79,118,85.51Zm.58,1c-.15,0-.38,0-.39.2C118.38,86.63,118.61,86.67,118.61,86.48ZM37.2,11.58c-.08-.1-.16-.2,0-.3.08.09.29.05.15-.15-.24.18-.49,0-.74.15C36.81,11.43,37,11.73,37.2,11.58Zm80.44,77c-.06-.05-.29.1-.2.2S117.74,88.72,117.64,88.62Zm2-1.94H119v.58h.39C119.41,87,119.64,87,119.59,86.68Zm-12.71,23.46.16-.63a1.38,1.38,0,0,0-.66-.09C106.63,109.46,106.84,109.74,106.88,110.14ZM36,13.06c-.28-.25-.57-1.26-1-1.33C35.41,12.38,35,13.12,36,13.06ZM.71,86.73a3.56,3.56,0,0,0-.31-1C.49,86.09.59,86.41.71,86.73ZM68.47,1.35c-.15-.08-.3-.29-.44-.15C68.17,1.29,68.32,1.49,68.47,1.35Zm36.05,15.53c0,.05.09.29.2.19S104.62,16.77,104.52,16.88ZM119,87.46c0-.06-.29.09-.19.19S119.1,87.56,119,87.46Zm.78-.78c.06,0,.3-.1.2-.2S119.68,86.58,119.78,86.68Zm6.43-6.24a.93.93,0,0,1-.4-1.33s0,0,0-.06l-.08-.18h-.08a.39.39,0,0,1,0-.19l-1.85-4.43a23,23,0,0,1-1.42-9c-.06.06-.16.11-.19.07s.12-.24.19-.21a21.81,21.81,0,0,1,1.42-7.5l2-4.78s0,0,0-.06-.3.21-.26.34c-.64-.18.22-.38.2-.58l.13,0a10.87,10.87,0,0,0-4.32-12.76l-3.32-2a11.47,11.47,0,0,1-1.65-.64c0-.13.16-.17.31-.18a25.27,25.27,0,0,1-8.14-9.54c-.1,0-.19-.17-.15-.21s0,0,0,0-.07-.17-.11-.25a9.76,9.76,0,0,0-.32,1c-.59-.14-.71.2-1.17.19-.06-.51.27-.64.78-.58.16-.55-.27-.51-.19-1a3.46,3.46,0,0,1,.61-.3c-.18-.42-.34-.84-.49-1.25h-.32c0-.24,0-.32.2-.36-.11-.36-.22-.72-.3-1.08l-1-4.27s-.06,0-.06-.07a.05.05,0,0,1,0-.05l-.15-.66-.12-.41a.68.68,0,0,1-.1-.34c0-.1-.07-.2-.1-.3a.23.23,0,0,0-.13-.06.12.12,0,0,1,.06-.11,8.9,8.9,0,0,0-.57-1.21c-.33.15.56.7-.27.54-.15.6.54.38.39,1,.08.3.61.16.39.77-.18-.2-.72-.05-.58-.58-.41,0-.06.85-.39,1s-.42-.23-.78-.19c-.08-.33.15-.37.39-.39-.5-1.09.36-1.43,0-2.53a1.51,1.51,0,0,0,.75.24,1.82,1.82,0,0,0-.15-.23,3.16,3.16,0,0,1-1-.4.84.84,0,0,0,.15-.76c-.1-.12-.2-.26-.31-.37a.33.33,0,0,1-.14.29,3.61,3.61,0,0,0-.09.84c-.39-.64-.31,0-1,0-.36-.42-.23-1.33-1.17-1.17.39-.46-.08-1.36,0-2l-.17-.11a.2.2,0,0,1-.16,0v0s-.11-.06-.17-.1c0,.14-.28.08-.28,0s.06-.08.11-.08a10.29,10.29,0,0,0-1.21-.57c-.07.2-.19.29-.47,0,.37.68-.46.66-.19,1.75h-.78c0-.55.66-.38.39-1.17-.24-.29-.79-.58-.39-1L98,10.76a9.79,9.79,0,0,0-2.75-.24c.45.34-.16.73.68.71-.15.16-.88.25-1.37.58,0,.5.34-.27.79,0-.52.75,0,.77-.2,1.36.53-.22.49-.09,1.17,0,.35.53-.86.38-.19.59-.19.76-.77-.95-.78.2a1.27,1.27,0,0,0-1-.2c-.16-.39.24-.54.19-.78-.16-.87-1.12-1-.77-2a1.44,1.44,0,0,0-.36-.38h-.07s0,.09,0,.18a.22.22,0,0,1-.34-.15l-1.11.09a.64.64,0,0,1-.25.25c0,.22.19.11.19,0,.2.45.61.69.58,1.37-.28,0-.87-.8-.77,0-.31-.09-.17-.62-.79-.39,0,.51.41.5.79.58-.43.62-.62.25-.2,1-.17,0-.19-.07-.2-.19-.4.05-.39.52-.58.78a10.14,10.14,0,0,1,0-2.42,2.43,2.43,0,0,1,0-.66l-.17,0a.26.26,0,0,0,.15-.14l-.54,0a.42.42,0,0,1,.2.49c-.33.07-.37-.15-.39-.39a1.68,1.68,0,0,1-1.56.39,1.89,1.89,0,0,1-.1-.44A24.06,24.06,0,0,1,82.08,9.9a1.09,1.09,0,0,1-.93,0,.51.51,0,0,0,.13-.21l-.5-.17a3.28,3.28,0,0,1,.17.58c-.63.11-.74-.3-.76-.8A21.23,21.23,0,0,1,74.05,5.8L72.68,4.63a1.74,1.74,0,0,1-.51.13,1.06,1.06,0,0,1,.07-.52L70.12,2.42l0,0c-.14.11-.28-.08-.42-.16a.15.15,0,0,1,.21,0,7.39,7.39,0,0,0-.93-.65.49.49,0,0,1-.47.66l.89.89c0,.71-.5.06-.89.59.11.4,0,.91-.59.89-.44-.34-.08-.69.15-1A6.09,6.09,0,0,1,66.84,1.5a1.37,1.37,0,0,0,.88-.58L67.25.73c-.23.1-.47.36-.71.18.15,1-.82,1.48-1.48,2.07-1.06-.72-1.33-.29-2.22-1.33.54-.6,1.08-.06,1.63-.45.28.25.13.5.45.75,1.16.14,0-1.45,1-1.34a4.48,4.48,0,0,1-.38-.37A11.48,11.48,0,0,0,63,0a2.19,2.19,0,0,1-.48.76,1.49,1.49,0,0,0-.85-.65A10.66,10.66,0,0,0,58,1.3l.06.05c-.36.42-1,.38-1.19.89a.6.6,0,0,0-.12-.11l-.37.29L52.48,5.8a25.14,25.14,0,0,1-12.16,5,0,0,0,0,1,0,0c-.1.07-.16,0-.18,0-.64.07-1.27.12-1.88.14a.86.86,0,0,0,0,.75c.54.34.17-.46.59-.6,1,.92-.84.92.59,1.78-.49,0-.33.25-.38.55a58.13,58.13,0,0,1,8.21-3.07l.18-.15a.36.36,0,0,1,0,.09,58.29,58.29,0,0,1,8.41-1.72c0-.12.19-.09.26,0l1.26-.15a1,1,0,0,1,.4-.55c-.3-.54-.59-.17-.89-.59.2-.94.9-2.12,2.08-1.78a1.29,1.29,0,0,1,.14-1c.27-.49,1.27.77,1-.14.23-.35.89.45.29.59,1.23.48.74,1.15,1.63,1.63l-.59.59c-.34-.24-.43-.49-.14-.74-.66-.06-.46-1-1.19-.89-.16.29.25.13.45.45-.5.42-1-.07-1.49-.3-.44.7-.88.39-1.33.44-.25.6.28,1.19.59,1.78a1,1,0,0,0-.44.5l.26,0,0,0v0l.58,0a1.25,1.25,0,0,1,.29-.59,1.39,1.39,0,0,1,.81.5c.68,0,1.36-.05,2.05-.06L61.8,8c.14-.13.28,0,.41.13.36,0,.7,0,1.06,0a59.91,59.91,0,0,1,6.87.42s.07,0,.1,0,0,0,0-.06a.23.23,0,0,1,.24.09,57.08,57.08,0,0,1,14.3,3.7,4.25,4.25,0,0,1,.29-.56,3.87,3.87,0,0,1,0,.68L86.4,13a.61.61,0,0,0,.3-.21.45.45,0,0,1,.08.38c1.22.55,2.41,1.15,3.59,1.77.19-.3.76-.22.71-.76.41.42.56-.1,1.17,0,0,.74.16.07.58.19-.17.53.36,1.76-.34,1.75l.28.17a.46.46,0,0,0,.26-.55A1.25,1.25,0,0,1,94,17l1.75,1.15c-.08-.45.11-.63.59-.51-.19.16-.1.61-.5.58l.26.17c.29,0,.66.15.65.46a58,58,0,0,1,9.79,8.78c0-.21.19-.1.19,0s0,.11-.08.12c.19.22.37.46.57.7a.59.59,0,0,1,.61-.31,4.89,4.89,0,0,1-.29.7c.11.12.21.25.31.37a.91.91,0,0,1,1-.87,1.23,1.23,0,0,1,.2,1c-.18-.09-.35-.17-.39-.39-.36,0-.29.42-.68.39q1.72,2.1,3.26,4.35A3.79,3.79,0,0,0,112.9,35a.44.44,0,0,1-.64.35c.17.27.32.54.49.81.09,0,.19.16.15.2h0a58.08,58.08,0,0,1,2.81,5.22s0,0,0,0a57.63,57.63,0,0,1,2.12,43.47,1.35,1.35,0,0,1,.61-.34v-1a.87.87,0,0,1,.39.78A1.9,1.9,0,0,0,120,84c.37.36.15.36.78.19-.09.47.35.43.19,1-.31,0-.33-.19-.58-.2-.09.42.28.37.58.39a1.33,1.33,0,0,1-.58.39c.42.41.4.74-.2,1,.65,0,0,.86.39,1.55.56,0,.34.84,1,.78-.43.41.09.56,0,1.17-.75,0-.07.16-.2.59-.54-.18-1.83.4-1.75-.39-.49.08,0,.75.39.58a1.26,1.26,0,0,1-1.37,1,.92.92,0,0,0-.19-1.56c-.58.13.18.41,0,.78-1.26,0,0-1.15-1.56-.78.39-.4-.08-.39-.19-.78a3.32,3.32,0,0,0,.19-1.37c1.22.37.68-.23.78-.58.59-.2.35.43.39.78.41.08.52-.14.78-.2,0-.18-.24-.15-.39-.19-.06-.31.18-.34.19-.58-.16-.58-.62.11-1,0,0-.23,0-.35-.2-.39.2-.2.39-.4.59-.59a1.45,1.45,0,0,0-.61-.34,57.52,57.52,0,0,1-4.87,10,1,1,0,0,1,.12.25c.22-.14.44,0,.58.23a1.81,1.81,0,0,0,.75-.47c.41.39.17.38.84.21a.38.38,0,0,0,0,.15,17.15,17.15,0,0,1,2.28-1.71l.86-.53c-.21-.15-.66-.06-.54-.55.43-.1.62,0,.61.37.06,0,.12-.06.15,0a.15.15,0,0,1,0,.09l.45-.28a.41.41,0,0,1-.25-.53h.78a.67.67,0,0,1,0,.2l.06,0a.26.26,0,0,1,.13-.08l1.75-1.07c-.09-.1.15-.24.2-.19a.07.07,0,0,1,0,.06l.2-.12c.23-.14.46-.3.68-.46a7.34,7.34,0,0,1,.35-.94A1.26,1.26,0,0,0,123,91c.21-.19.39-.41.58-.62a1.55,1.55,0,0,1-.32,0c0-.29.8-.87,0-.78.08-.31.61-.17.39-.78-.52-.06-.51.41-.59.78-.61-.43-.25-.62-1-.2,0-.16.08-.18.2-.19-.06-.4-.52-.39-.78-.59a13.53,13.53,0,0,1,2.92,0,1.33,1.33,0,0,1-.59.39c0,.21.39.13.39.39.29-.16.28-.62.39-1,.09.17.21.18.31.12s.14-.26.21-.39A.12.12,0,0,0,125,88c0-.11.11-.12.24-.12a3.14,3.14,0,0,0,.18-.37.21.21,0,0,1,.07-.14c.1-.21.2-.43.28-.65a2.07,2.07,0,0,1-.58-.08c-.7.14,0,1.71-1,1.55-.07-.33.16-.36.39-.38a1.76,1.76,0,0,1-.39-1.56A14.08,14.08,0,0,1,126,86a10.63,10.63,0,0,0,.14-5.73A1.1,1.1,0,0,0,126.21,80.44ZM124.78,53.1c.1-.1.24.14.19.2S124.72,53.16,124.78,53.1Zm-.39.39c.1-.1.25.14.19.2S124.33,53.55,124.39,53.49ZM124,49.6c-.19,0-.15-.24-.2-.39C124,49.22,124,49.45,124,49.6Zm-.2,5.84c.1-.1.25.14.2.2S123.75,55.5,123.8,55.44Zm-16.56-30c.11-.1.25.15.2.2S107.19,25.5,107.24,25.44Zm-1.75-8.37c-.1.1-.24-.14-.19-.19S105.55,17,105.49,17.07ZM39.08,11.23c-.1.1-.25-.14-.2-.2S39.13,11.17,39.08,11.23ZM57.19,7.92c.1-.11.25.14.19.19S57.14,8,57.19,7.92Zm5.26,0c-.23,0-.11-.2,0-.2S62.56,7.92,62.45,7.92Zm5.84-.78c-.53-.6.59.53,0,0Zm.78-2.73c-.1.1-.25-.14-.19-.2S69.13,4.36,69.07,4.41Zm.2-.59c0-.5.33.27.77,0C70,4.31,69.38,3.88,69.27,3.82Zm1.16.39c-.18,0-.15-.23-.19-.39C70.43,3.83,70.39,4.06,70.43,4.21ZM70.24,5c.6.43-.22,1.25,0,0Zm1,0c-.1.1-.25-.14-.19-.19S71.27,4.94,71.21,5ZM72,7.14c-.24,0-.19-.39,0-.39C72.11,6.92,72.22,7.1,72,7.14Zm10.33,3.5c-.1.1-.25-.14-.2-.19S82.37,10.59,82.32,10.64Zm1.36.2c-.1.1-.25-.14-.2-.2S83.73,10.78,83.68,10.84ZM84.27,12c-.11.1-.25-.15-.2-.2S84.32,12,84.27,12Zm2.53.39c-.23,0-.11-.2,0-.2S86.9,12.4,86.8,12.4Zm.39.38c-.1.11-.26-.13-.2-.19S87.24,12.73,87.19,12.78ZM88,12c-.1.1-.25-.15-.19-.2S88,12,88,12Zm.2,1.75c-.22,0-.11-.2,0-.2S88.27,13.76,88.16,13.76ZM88.74,12c.1-.1.25.14.2.19S88.69,12.06,88.74,12Zm.39,1.36h-.39V13h.39Zm.39.78c0-.35.24-.41.2-.78,0-.19-.24-.15-.39-.2-.11-.42.37-.27.39-.58.77.34.32.7.58,1.56Zm-.39-2c.34-.24.51-.66,1.17-.58C90.58,12.48,89.66,12.14,89.13,12.2Zm2.92,1c0,.05.06.36,0,.39s-.31-.28-.19-.39S92.85,12.48,92.05,13.17Zm5.46-1.55c.1-.1.25.14.19.19S97.45,11.67,97.51,11.62Zm-.2,2.53c0,.16-.07.18-.19.19h-.39v-.58C97,13.83,97,14.1,97.31,14.15Zm-.39-.78h-.39V13h.39ZM95.76,12.2c-.18-.68.63-.33.77-.19C96.47,12.27,96.05,12.17,95.76,12.2Zm.58,2c.1-.1.25.14.19.19S96.29,14.2,96.34,14.15Zm-2.14.19c.1-.1.25.15.19.2S94.14,14.4,94.2,14.34Zm-1,.78c.19,0,.15.24.2.39C93.23,15.51,93.27,15.28,93.22,15.12Zm.2-.58s-.07.55-.2.39S93.69,14,93.42,14.54Zm.19.78a.54.54,0,0,1,.59-.39C94.29,15.34,93.92,15.3,93.61,15.32Zm.59,1c-.29-.08,0-.17,0-.39C94.44,16,94.39,16.29,94.2,16.29Zm.77,1c-.43.11-.27-.37-.58-.38C94.33,16.53,95.14,16.87,95,17.26Zm.4,0v-.77A.41.41,0,1,1,95.37,17.26Zm.78-1.75c-.11.1-.25-.14-.2-.19S96.2,15.46,96.15,15.51Zm0-.78c.5-.05.83.07.77.59C96.55,15.24,96.08,15.25,96.15,14.73ZM96.92,18h-.39v-.38h.39Zm-.39-.78c-.26,0-.07-1.08.59-.77C97.06,16.88,96.73,17,96.53,17.26Zm.39-1a.54.54,0,0,1,.59-.39A.54.54,0,0,1,96.92,16.29Zm.78,2.14c.23,0,.17.36.2.59C97.67,19,97.73,18.66,97.7,18.43Zm0-1.94c.19,0,.15.23.2.39C97.71,16.87,97.74,16.64,97.7,16.49Zm-.19-1c.26-.66.23-1.92.39-2.14-.13-.2-.45-.2-.39-.59.61.17.8.76,1,1.37C97.55,13.76,98.54,15.56,97.51,15.51Zm1.17-.58c-.48-.66.65.47,0,0Zm3.11,2.53v.78A.42.42,0,1,1,101.79,17.46Zm-1.36-2.73c-.1.1-.25-.14-.19-.19S100.48,14.68,100.43,14.73Zm0,.78c-.1.1-.25-.14-.19-.19S100.48,15.46,100.43,15.51ZM100,12c-.47-.66.65.47,0,0Zm0,.77c-.47-.65.65.48,0,0Zm-.19,3.71c.1-.1.25.14.19.19S99.79,16.54,99.85,16.49Zm-.4.39c-.59.53.54-.6,0,0Zm.59,1.75c-.59-.13.19-.42,0-.78C100.69,18,100.21,18.28,100,18.63Zm.39-1.17c-.28-.09,0-.17,0-.39A.2.2,0,0,1,100.43,17.46Zm.39-4.48c-.1.1-.25-.14-.2-.2S100.87,12.93,100.82,13Zm.2,6.82a.2.2,0,0,1,0-.39C101.3,19.5,101,19.58,101,19.8Zm.19-3.7c.1-.11.25.14.19.19S101.16,16.15,101.21,16.1Zm.39,3.11c-.68-.06,0-.52-.39-.58.48-.11.82-.16,1-1,.27.06.16.48.2.77-.35-.05-.4.19-.2.2C102.16,19,101.54,18.76,101.6,19.21Zm1-.19c-.1.1-.25-.14-.19-.2S102.62,19,102.57,19Zm0-1.56c.19,0,.15.24.2.39C102.58,17.85,102.62,17.61,102.57,17.46Zm.2-.78c-.1.1-.25-.14-.2-.19S102.82,16.63,102.77,16.68Zm.39-.58c.2-.17.06.38,0,.19C103.56,17.4,102.68,16.49,103.16,16.1Zm.78,1.94c-.36,0-.42-.23-.78-.19C103.09,17.51,104.25,17.5,103.94,18Zm0,4.29c-.1.1-.26-.14-.2-.2S104,22.27,103.94,22.33ZM105.49,19c-.47-.65.66.47,0,0Zm.78,8c-.1.1-.25-.14-.19-.19S106.33,27,106.27,27Zm4.09,3.32c.19,0,.15.24.2.38C110.37,30.7,110.41,30.47,110.36,30.32Zm1.37,3.89c-.19-.7.83-.34,1-.2C112.73,34.44,112,34.1,111.73,34.21Zm1,1.63c-.1-.1.14-.25.2-.19S112.82,35.9,112.77,35.84Zm1.29,1.29c-.1.1-.25-.14-.19-.19S114.12,37.08,114.06,37.13Zm1.56-.19c-.34,0-.44-.34-.39-.78C115.82,36,115.58,36.59,115.62,36.94Zm.27,2.79c-.11-.1.14-.24.19-.19S115.94,39.79,115.89,39.73Zm.51-1.43c.1-.1.25.14.19.2S116.35,38.36,116.4,38.3Zm.07,2.8c-.1-.1.14-.25.2-.2S116.53,41.15,116.47,41.1Zm.39-2.92c-.1-.1.14-.25.19-.2S116.91,38.23,116.86,38.18Zm2.53,6.23c-.1-.1.14-.25.2-.19S119.45,44.46,119.39,44.41Zm.2,37.2c0,.23-.36.17-.59.19C119,81.58,119.36,81.64,119.59,81.61Zm-.2,2.34c-.1-.1.14-.25.2-.2S119.45,84,119.39,84Zm0-2.53c-.1-.1.14-.25.2-.2S119.45,81.47,119.39,81.42ZM117.25,91c-.17.12-.35.24-.39,0S117.25,90.77,117.25,91Zm-2.73,2c.6-.53-.53.59,0,0Zm-.38,1.36c.11-.17.23-.35,0-.39.14-.34.35,0,.58,0,0,.16-.2.2-.2.39Zm.58,1.76v-.59C115.29,95.16,115.29,96.31,114.72,96Zm.39-1.76c-.1-.1.14-.25.19-.19S115.16,94.33,115.11,94.27Zm0-2.72c.08-.29.17,0,.39,0C115.45,91.79,115.11,91.74,115.11,91.55Zm.58,2.53c-.1-.1.14-.25.2-.2S115.75,94.13,115.69,94.08Zm1,.58c-.15-.6.67-.23.38-1C117.5,93.84,117.24,94.89,116.67,94.66Zm.77-1.56c0-.18.24-.15.39-.19C117.83,93.1,117.6,93.06,117.44,93.1Zm.2-.78c0-.22.2-.1.19,0S117.64,92.43,117.64,92.32Zm.19-.77c0-.22.2-.11.2,0S117.83,91.65,117.83,91.55Zm.59,1.36c-.11-.43.37-.28.39-.59C119.16,92.27,118.82,93.08,118.42,92.91Zm1-.78c.09-.28.17,0,.39,0A.2.2,0,0,1,119.39,92.13Zm1.17-1c0,.19-.24.15-.39.19C120.18,91.16,120.41,91.2,120.56,91.16Zm-.19.39a.53.53,0,0,1,.39.58C120.34,92.22,120.39,91.85,120.37,91.55Zm.77-.2s-.55-.06-.38-.19S121.7,91.63,121.14,91.35Zm1.37-1.56c.13.15.7,1,0,.2-.05-.06-.35.06-.39,0C122,89.77,122.41,89.68,122.51,89.79ZM123.87,81c.1.1-.14.25-.19.19S123.82,81,123.87,81Zm0,1c.1.1-.14.25-.19.2S123.82,82,123.87,82Zm0,3.7c.1.1-.14.25-.19.2S123.82,85.65,123.87,85.7Zm-.39-7c.1.1-.14.25-.19.19S123.43,78.64,123.48,78.69Zm-.39-.58c-.17.12-.34.23-.38,0A.19.19,0,0,1,123.09,78.11Zm-.58,3.69c0,.2-.24.16-.39.2C122.13,81.81,122.36,81.85,122.51,81.8Zm.2,4.88v.39h-.39v-.39Zm-.39-10.13c.09.1-.14.25-.2.19S122.26,76.5,122.32,76.55Zm-.07-21.3a.53.53,0,0,1,.58-.39C122.92,55.27,122.55,55.23,122.25,55.25Zm.58-5.07V49.6c.35,0,.41.24.78.19C123.56,50.14,123.27,50.23,122.83,50.18Zm.39-2.14a1.64,1.64,0,0,1-1.37.78A2,2,0,0,1,123.22,48Zm-1.29,12.15c.09.1-.15.25-.2.19S121.87,60.13,121.93,60.19Zm-.39,19.47c.18-.2.71-.06.58-.58.5.51-.1,1.58-.78,1.56A1.3,1.3,0,0,0,121.54,79.66Zm.58,6.43c0,.22-.19.11-.19,0S122.12,86,122.12,86.09ZM120.37,82c-.1-.1.14-.25.19-.2S120.42,82.06,120.37,82Zm.19,1.75c0-.22.2-.1.2,0S120.56,83.86,120.56,83.75ZM121,82c.06-.4.73-.18.78-.58.5,0-.27.33,0,.78C121.38,82.22,121.32,82,121,82Zm.59.78c-.11-.1.14-.25.19-.19S121.59,82.83,121.54,82.78Zm0,1.36c0-.16-.08-.18-.2-.19,0-.21.39-.13.39-.39.22,0,.11.19,0,.19,0,.23,0,.35.2.39-.05.28-.59.07-.59.39C121,84.41,121.22,84.09,121.54,84.14Zm-.2,2.34c-.1-.1.14-.25.2-.19S121.39,86.54,121.34,86.48Zm.2,1.75v-.77c.35,0,.41.24.78.19.18,0,.15-.24.19-.39.43-.11.28.37.58.39C122.76,88.43,122.39,88,121.54,88.23Zm1.55-3.31c.11.1-.14.25-.19.2S123,84.87,123.09,84.92ZM123,87.38c-.23,0-.12-.19,0-.19S123.13,87.39,123,87.38Zm-.13-7.72c-.16-.2.17-.35.19-.39C123.53,78.52,123,79.8,122.9,79.66Zm.58.2c.1.1-.14.25-.19.19S123.43,79.81,123.48,79.86Zm-.19,4.87c0-.22.19-.11.19,0S123.29,84.84,123.29,84.73Zm.39,2c.1.1-.14.24-.2.19S123.62,86.62,123.68,86.68Zm-.2.39c.25.33.66.51.59,1.16C123.21,88.51,123.54,87.59,123.48,87.07Zm.78-8.38c-.1-.1.14-.25.2-.19S124.32,78.75,124.26,78.69Zm0-2c-.1-.1.14-.24.2-.19S124.32,76.8,124.26,76.74Zm.59,9.16c-.11-.1.14-.25.19-.2S124.9,86,124.85,85.9Zm0-4.29c-.11-.1.14-.25.19-.19S124.9,81.67,124.85,81.61Zm.19-1.36c-.1-.1.14-.25.19-.2S125.1,80.3,125,80.25Zm1,1.55c-.26,0-.15-.48-.19-.77C126.5,80.85,126.15,81.66,126,81.8Zm-7.4,8.38c.1-.29.29-.49.39-.78-.63-.24-.14.63-.78.39-.11-.34.58-.81,0-1,0,.42-.69.09-1,.19.19.36-.58.65,0,.78a1.42,1.42,0,0,1,.39-.58c0,.53.32.39,0,.78C118.25,89.77,118.16,89.9,118.61,90.18ZM57.5,1.63l0,0h0Zm-19.71,12c0-.08-.3-.15-.3,0S37.79,13.81,37.79,13.65Zm-.89-1.48L36,11.28c-.15.2-.44.4-.29.59C36.37,11.47,36.18,12.45,36.9,12.17ZM120.17,85.7c-.69.29-1.17-.62-1.36-.19.22,0,.3.21.39.39s-.35.44,0,.58C119.06,85.76,120,86.15,120.17,85.7Zm-.39,3.9c-.23,0-.55,0-.58.19.12,0,.23,0,.19.2-.1,0-.22.15,0,.19C119.44,89.9,119.71,89.85,119.78,89.6Zm.2-1c-.16.7-.68-.07-1,.59h1.17C120.14,89,120.2,88.65,120,88.62Zm-.78,2.54s.29-.1.19-.2S119.1,91.05,119.2,91.16Z" fill="#FF8C00" style="fill: rgb(255, 140, 0);"></path><path d="M34.16,108.21a.93.93,0,0,0-.15.35c.13.43,1,.15,1.22.47v.56c0,.3.5.12.47.47-.14,0-.24.14-.38.19s-.36-.2-.56-.29c-.36-.08-.33.23-.56.29l-.15,0c.64.42,1.27.84,1.92,1.23.09-.12.19-.23.29-.35-.08-.42-.37-.63-.37-1.13a1.13,1.13,0,0,1,.65-.2C35.73,109.27,34.94,108.75,34.16,108.21ZM12.38,77.88c-.25-.51.6-.37.83-.56a51.28,51.28,0,0,1,14.5-48.39,2.9,2.9,0,0,1-1.15-1,.69.69,0,0,1,0-.35A53,53,0,0,0,10.84,74.36a.43.43,0,0,1,.12.11h-.1a52.73,52.73,0,0,0,4.94,15.2,5,5,0,0,1-.18-1.09,1,1,0,0,1,1.23-.38.38.38,0,0,0,.12-.1,51.16,51.16,0,0,1-3.66-10.36C13.19,78,12.66,77.94,12.38,77.88Zm4,9.57c0,.11-.1.06-.1,0S16.38,87.4,16.38,87.45Zm17.07,20.92a.27.27,0,0,0-.28-.19c-.21,0,0,.5-.19.57-.41-.08.08-.46-.19-.66-.43,0-.39.42-.84.37,0-.62.33-1,.09-1.59a.68.68,0,0,1,.28,0c-1-.74-1.91-1.5-2.83-2.3a2.06,2.06,0,0,1,0,.44,2,2,0,0,1-.43-.15l-.1-.07c.09-.14.08-.39.2-.5l-.55-.5a.28.28,0,0,0-.06.16,1.11,1.11,0,0,1,.09.51,2.41,2.41,0,0,1-.17-.68c-.14-.77-.79-.75-1-1.35a2.16,2.16,0,0,0-1.37-1.16c-.54-.57-1.07-1.15-1.58-1.74-.17.06-.29.19-.52.3a2.67,2.67,0,0,1-1.59-.66,1.36,1.36,0,0,0-.28-1c.24-.68-.23-.81-.19-1.5-.3-.24-1-.05-.94-.66.22-.22.39,0,.7,0A51.92,51.92,0,0,1,18,90.18a1.31,1.31,0,0,0-.25.56c-.08.61.32.75.38,1.22a4.25,4.25,0,0,1-.1,1.22,1.36,1.36,0,0,1,.14.74,53,53,0,0,0,4.22,5.85,2.93,2.93,0,0,1,1.08.72,1.19,1.19,0,0,1,.16.74c.47.53,1,1,1.46,1.56,0,0,.06,0,.08-.05v-.56h0a6.52,6.52,0,0,0,1.33,1.23s0,.1,0,.14a1,1,0,0,0,.46,1.12c.49.31.92.25,1.4.63a3,3,0,0,0,1.11.66.41.41,0,0,0,.53-.32l0,0c0,.39,0,.78.19.94s.47-.22.84-.19a2,2,0,0,0,.66.47c.07.35-.23.52,0,.75a2.29,2.29,0,0,0-.45.65c.68.51,1.37,1,2.08,1.51.07-.1.22-.13.24-.29s-.31-.25-.37-.46C33.15,108.64,33.46,108.66,33.45,108.37ZM96,105.64a1.51,1.51,0,0,1-1.41,1.4c.06-.41.54-.4.81-.6a2,2,0,0,1,.13-.56,51.33,51.33,0,0,1-11,6.8.75.75,0,0,1,.47,0c-.1.57-1,.29-.8,1.2a.7.7,0,0,1,.22-1.13,51.22,51.22,0,0,1-21.09,4.54,50.45,50.45,0,0,1-6.43-.41.71.71,0,0,1-.41.33c-.39,0-.51-.17-.82-.19a.67.67,0,0,0-1,0l-.08.09a.63.63,0,0,0,0,.88l.08.06a.78.78,0,0,0,1.13-.12,1,1,0,0,1,.17.45s0,.06,0,.1a53.7,53.7,0,0,0,7.33.52c1.42,0,2.82-.07,4.22-.18a.43.43,0,0,0-.09-.26c-.14-.2-.47-.21-.47-.56.41-.48.75.17,1,.38.34,0,.74-.06.85.18.24-.07-.18-.41.09-.56.7.12,1.68-1,1.78.19-.22.07-.64.18-.84,0-.37,0-.4.41-.75.47h0a52.56,52.56,0,0,0,11.46-2.58c-.07-.4.31-.88.65-.62a1.16,1.16,0,0,1-.07.41l1.29-.46a.56.56,0,0,1,.52-.79c0,.17-.2.21-.2.4a2,2,0,0,0,.12.21,52.08,52.08,0,0,0,5.61-2.61h-.11v-.6H89a.46.46,0,0,1-.13.4,53.77,53.77,0,0,0,7.09-4.7,1.21,1.21,0,0,1-.34.09c0-.2.24-.16.4-.2a.14.14,0,0,1,0,.1c.87-.68,1.73-1.39,2.56-2.12a1.77,1.77,0,0,0-.51,0c.41-.19.17-1,.8-1a7.22,7.22,0,0,1,.25-1.89c-1,1-2.11,2-3.22,2.89ZM57.08,117.75c-.31,0-.62,0-.56-.37C56.76,117.16,57.23,117.29,57.08,117.75Zm16.7-.09c-.35.08-.34-.42-.19-.57h.28C74,117.21,74,117.66,73.78,117.66Zm1.88-1.22c-.11-.6,1-.66.84,0C76.28,116.51,75.85,116.62,75.66,116.44Zm30-82.5c0,.09-.18.16-.22.12s.06-.2.15-.21c-.57-.75-1.17-1.49-1.79-2.22a.58.58,0,0,0,0,.23c-.21,0-.24-.17-.4-.21v-.4h0A53.62,53.62,0,0,0,89,19.51c0,.17-.16.34-.31.52a.55.55,0,0,1,.09-.65A52.69,52.69,0,0,0,68.1,13.07h0c0,.15-.28.08-.28,0l0,0-1.38-.11a1.9,1.9,0,0,1-.64,0h-.39a.53.53,0,0,1-.59,0c-.25.43-.44,1-1,.42a1.65,1.65,0,0,0,.83-.49c-.48,0-.94,0-1.41,0a52.93,52.93,0,0,0-13,1.62l-.19.19L50,14.52A53.36,53.36,0,0,0,40.57,18a.7.7,0,0,1,0,.23c0,.62,0-.15,0-.23-1.25.6-2.48,1.24-3.67,1.92h0l-.06,0c-.81.47-1.6,1-2.38,1.46a.92.92,0,0,1,0,.37c-.19.17-.38.12-.58,0a55.92,55.92,0,0,0-5.42,4.15A4.72,4.72,0,0,0,29.26,27c-.05.18.06.34,0,.51a51.62,51.62,0,0,1,8.25-5.95c-.08,0-.18,0-.18-.09s.28-.07.28,0a.05.05,0,0,1,0,0q1.59-.93,3.24-1.74a.16.16,0,0,1,0-.14l.17,0c.55-.26,1.11-.51,1.67-.75l-.14-.14c.28,0,.56-.21.83-.17.72-.3,1.44-.59,2.17-.86,0,0,.07,0,.13,0l.53-.18a2.85,2.85,0,0,1-.26-.17c.13-.12.27,0,.4.12a51.34,51.34,0,0,1,64.46,67.77c.29.22,1,0,.76.77a5.53,5.53,0,0,1-.95-.28,51.28,51.28,0,0,1-6.74,11.56l.28,0c0,.19-.24.16-.39.2q-1.6,2.06-3.4,3.94a1.13,1.13,0,0,0,.18.07c-.07.28-.17.12-.31.06l-.22.23c.27.34,0,.47-.27.71,0,.57,1.31-.24,1,.6a1.71,1.71,0,0,0-1.21.21c.38.38,0,.5,0,1s.55-.23.61-.4a.21.21,0,0,1,.18,0c.75-.73,1.49-1.48,2.19-2.25-.23-.09.19-.34-.17-.39.05-.22.4-.14.4-.4.15,0,.18.16.19.31.36-.41.7-.84,1-1.25a.59.59,0,0,1-.44.14c-.25-.27-.26-.75.21-.8-.11-.41-.61-.4-.21-.81a1.22,1.22,0,0,1,.81-.2c.64.17-.36.27-.6.2v.4c0,.26.59.27.6,0,.13.07.06.47-.15.79.24-.29.49-.57.72-.86-.08,0-.15,0-.17-.13a.2.2,0,0,1,.35-.1c.17-.2.33-.41.49-.62a.61.61,0,0,1,.16-.48.2.2,0,0,1,.14.08,50.23,50.23,0,0,0,3-4.57.79.79,0,0,1-.76-.32c0-.5.64-.41,1.18-.4a53,53,0,0,0-3.77-58.27ZM49.09,115.46a6.52,6.52,0,0,1-1-.34,4.62,4.62,0,0,0-.93-.31.8.8,0,0,0,0-.15c-.9-.3-1.79-.62-2.67-1a.33.33,0,0,1-.29-.07s0,0,0,0l-.15-.06a.9.9,0,0,0,0,.28l-.11.12a.73.73,0,0,0-.82-.32l-.06,0a1.13,1.13,0,0,0-.58,0,.47.47,0,0,0-.33.58,1.55,1.55,0,0,0,.53.6.91.91,0,0,0,.11.16l.07,0s0,.05.07.07h0v0a.9.9,0,0,0,.42.1c.5.2,1,.4,1.5.59l.16,0a6.36,6.36,0,0,0,2.32,1.07,8.84,8.84,0,0,0,2,.33c.84.23,1.69.45,2.54.64.25-.3.6-.5.74-.9a.68.68,0,0,0,.66-.37,1.37,1.37,0,0,1,.23-.19c-1.43-.27-2.83-.61-4.21-1A.77.77,0,0,1,49.09,115.46Zm-8.4-3.33a.8.8,0,0,0-1.21-.22,2.67,2.67,0,0,0-.57-.6,1.1,1.1,0,0,0-.89-.07c-.06-.1-.15-.19-.23-.12s-.1.21-.21.31a.37.37,0,0,0,.16.6,4.44,4.44,0,0,1,.83.45,1.66,1.66,0,0,0,.62.15.86.86,0,0,0,.6.91,2,2,0,0,0,1.17.06.54.54,0,0,0,.37-.65A1.21,1.21,0,0,0,40.69,112.13Zm-1.49.33c0-.18,0-.1,0,0Z" fill="#FF8C00" style="fill: rgb(255, 140, 0);"></path></g></g></g></svg>