<svg xmlns="http://www.w3.org/2000/svg" height="405.53" width="236.01"><path d="M83.32 130.7v187.15q0 26.61 4.36 42.53 4.37 15.92 15.27 30.32l5.67 7.85-5.67 6.98H7.41L2.18 390.7l10.03-2.62q16.58-4.36 22.25-12.65 5.67-8.29 5.67-27.92v-215.5q0-10.47-9.59-10.47H5.23L0 105.4q18.76-7.42 49.51-13.31 30.76-5.89 59.11-5.89 64.57 0 95.98 29.01 31.41 29.01 31.41 73.94 0 44.94-26.62 73.73-26.61 28.79-78.08 28.79-16.14 0-27.27-3.93-11.12-3.92-11.12-12.86 0-8.95 6.98-8.95.43 0 6.98 1.53 6.54 1.53 14.39 1.53 32.72 0 51.04-20.94 18.33-20.94 18.33-56.5 0-35.55-19.42-58.23-19.41-22.69-53.65-22.69-34.25 0-34.25 20.07z" xmlns:name="main_text" fill="#52eac8"/><path d="M150.127 0H85.882a3.477 3.477 0 0 0-3.477 3.478v64.245a3.477 3.477 0 0 0 3.477 3.477h64.246a3.478 3.478 0 0 0 3.477-3.478V3.478A3.479 3.479 0 0 0 150.127 0zm-32.91 65.646c-1.948-5.983 1.292-12.42 7.26-14.384 4.655-1.532 9.688 1.008 11.22 5.664 1.181 3.61-.782 7.503-4.387 8.69a5.244 5.244 0 0 1-4.029-.302 5.248 5.248 0 0 1-2.636-3.064 4.014 4.014 0 0 1 2.547-5.046 2.975 2.975 0 0 1 3.751 1.892 2.144 2.144 0 0 1-.123 1.642 2.134 2.134 0 0 1-1.247 1.074l.708 2.154a4.382 4.382 0 0 0 2.563-2.206 4.341 4.341 0 0 0 .252-3.372 5.244 5.244 0 0 0-6.614-3.338 6.22 6.22 0 0 0-3.634 3.128 6.222 6.222 0 0 0-.357 4.781 7.493 7.493 0 0 0 3.768 4.379 7.494 7.494 0 0 0 5.76.43c4.792-1.576 7.41-6.747 5.831-11.552a11.081 11.081 0 0 0-5.57-6.47 11.082 11.082 0 0 0-8.514-.639 13.578 13.578 0 0 0-5.754 3.703 25.37 25.37 0 0 0 1.2-16.456c11.825-3.116 24.219 3.501 28.091 15.268 2 6.084.638 12.482-3.057 17.179H118.71a14.205 14.205 0 0 1-1.493-3.155zM84.805 36.232a14.23 14.23 0 0 1 2.918-1.347c5.982-1.948 12.42 1.293 14.384 7.26 1.532 4.655-1.009 9.688-5.664 11.22-3.61 1.181-7.503-.782-8.69-4.387a5.244 5.244 0 0 1 .301-4.028 5.248 5.248 0 0 1 3.064-2.637 4.014 4.014 0 0 1 5.047 2.547 2.975 2.975 0 0 1-1.892 3.751 2.144 2.144 0 0 1-1.643-.123 2.134 2.134 0 0 1-1.073-1.246l-2.154.707a4.382 4.382 0 0 0 2.206 2.563 4.341 4.341 0 0 0 3.372.252 5.244 5.244 0 0 0 3.337-6.614 6.22 6.22 0 0 0-3.127-3.634 6.222 6.222 0 0 0-4.782-.357 7.493 7.493 0 0 0-4.378 3.768 7.494 7.494 0 0 0-.431 5.76c1.577 4.792 6.748 7.41 11.553 5.831a11.081 11.081 0 0 0 6.47-5.57 11.082 11.082 0 0 0 .638-8.514 13.593 13.593 0 0 0-3.59-5.656 25.35 25.35 0 0 0 16.36 1.166c3.074 11.806-3.538 24.162-15.283 28.027-5.986 1.967-12.269.682-16.943-2.874V36.232zM118.49 5.416c1.95 5.99-1.289 12.434-7.257 14.4-4.654 1.532-9.688-1.014-11.223-5.676-1.182-3.614.78-7.514 4.384-8.7a5.228 5.228 0 0 1 4.03.304 5.256 5.256 0 0 1 2.638 3.068c.683 2.078-.452 4.36-2.546 5.052a2.976 2.976 0 0 1-3.751-1.897 2.144 2.144 0 0 1 .122-1.644 2.131 2.131 0 0 1 1.246-1.075l-.708-2.156a4.374 4.374 0 0 0-2.563 2.208 4.349 4.349 0 0 0-.251 3.375 5.247 5.247 0 0 0 6.616 3.345 6.213 6.213 0 0 0 3.634-3.13 6.235 6.235 0 0 0 .355-4.788 7.514 7.514 0 0 0-3.77-4.385 7.499 7.499 0 0 0-5.761-.433c-4.792 1.577-7.408 6.754-5.828 11.567.932 2.834 2.912 5.135 5.572 6.481s5.684 1.574 8.516.642a13.584 13.584 0 0 0 5.612-3.55 25.351 25.351 0 0 0-1.116 16.34c-11.806 3.073-24.166-3.553-28.036-15.316-1.98-6.03-.67-12.36 2.93-17.048h25.74c.572.932 1.06 1.932 1.415 3.016zm25.579 15.115a4.349 4.349 0 0 0-3.376-.251 5.247 5.247 0 0 0-3.344 6.616 6.213 6.213 0 0 0 3.13 3.634 6.235 6.235 0 0 0 4.787.355 7.514 7.514 0 0 0 4.386-3.77 7.499 7.499 0 0 0 .433-5.761c-1.577-4.792-6.754-7.408-11.568-5.828-2.833.932-5.135 2.912-6.48 5.572s-1.574 5.684-.642 8.516a13.584 13.584 0 0 0 3.645 5.701 25.367 25.367 0 0 0-16.419-1.14c-3.114-11.825 3.516-24.224 15.3-28.1 6.132-2.015 12.575-.629 17.284 3.112v25.417a14.28 14.28 0 0 1-3.252 1.554c-5.99 1.95-12.434-1.288-14.4-7.256-1.532-4.655 1.015-9.69 5.676-11.224 3.615-1.182 7.514.78 8.7 4.384a5.228 5.228 0 0 1-.304 4.03 5.256 5.256 0 0 1-3.068 2.638c-2.077.684-4.36-.452-5.052-2.546a2.976 2.976 0 0 1 1.897-3.751 2.144 2.144 0 0 1 1.644.122c.515.259.895.702 1.075 1.247l2.156-.71a4.381 4.381 0 0 0-2.208-2.56zM150.164 2.4c.575 0 1.04.466 1.04 1.04v2.943a20.54 20.54 0 0 0-2.167-1.285 20.605 20.605 0 0 0-14.327-1.61c-.501.124-1.001.268-1.498.432a25.462 25.462 0 0 0-12.417 8.858 13.571 13.571 0 0 0-.15-8.072 16.16 16.16 0 0 0-.97-2.306h30.489zm-64.319 0h2.702c-.402.62-.78 1.26-1.118 1.931a20.6 20.6 0 0 0-1.61 14.327c.124.502.268 1.002.432 1.499a25.453 25.453 0 0 0 8.907 12.453 13.547 13.547 0 0 0-8.143.12c-.774.256-1.502.58-2.21.934V3.441a1.04 1.04 0 0 1 1.04-1.041zm0 66.4a1.04 1.04 0 0 1-1.04-1.04v-2.882c.595.381 1.208.742 1.848 1.064 4.472 2.257 9.497 2.816 14.308 1.616.502-.124 1-.268 1.496-.432a25.402 25.402 0 0 0 12.518-9.016 13.54 13.54 0 0 0 .087 8.244c.283.856.631 1.67 1.035 2.446H85.845zm64.319 0h-3.116c.441-.669.859-1.357 1.225-2.083 2.257-4.472 2.816-9.498 1.616-14.309-.124-.502-.268-1-.432-1.495a25.402 25.402 0 0 0-8.966-12.483c2.583.77 5.418.793 8.172-.117a16.241 16.241 0 0 0 2.542-1.094V67.76a1.04 1.04 0 0 1-1.041 1.04z" xmlns:name="symbol_mainfill" fill="#52eac8"/></svg>