<svg xmlns="http://www.w3.org/2000/svg" height="124.666" width="254.03"><path d="M4.72 110.406h14.67v-4.71H4.72v-9.12h14.99v-4.67H0v32.34h19.76v-4.67H4.72zm24.2 13.84v-22.63l15.64 22.63h3.7v-32.39h-4.63v22.81l-15.77-22.81h-3.61v32.39zm37.99 0v-27.95h9.76v-4.44H52.43v4.44h9.81v27.95zm18.32-13.84H99.9v-4.71H85.23v-9.12h15v-4.67H80.51v32.34h19.76v-4.67H85.23zm25.87-.37l11.8 14.21h6.06l-10.23-12.17c5.56-.97 8.38-5.32 8.38-9.9 0-5.14-3.52-10.32-10.55-10.32h-11.8v32.39h4.63v-27.67h7.17c3.93 0 5.88 2.82 5.88 5.6 0 2.82-1.95 5.64-5.88 5.64h-5.46zm21.1-18.18v32.39h4.72v-10.78h7.12c6.99 0 10.51-5.37 10.51-10.78 0-5.42-3.52-10.83-10.51-10.83zm4.72 16.98v-12.26h7.12c3.94 0 5.88 3.05 5.88 6.15 0 3.06-1.94 6.11-5.88 6.11zm28.41 1.2l11.8 14.21h6.06l-10.23-12.17c5.56-.97 8.38-5.32 8.38-9.9 0-5.14-3.52-10.32-10.55-10.32h-11.8v32.39h4.63v-27.67h7.17c3.93 0 5.88 2.82 5.88 5.6 0 2.82-1.95 5.64-5.88 5.64h-5.46zm37.11-18.18h-16.71v4.21h6.02v23.92h-6.02v4.26h16.71v-4.26h-6.02v-23.92h6.02zm26.47 8c-.84-5.96-6.02-8.6-11.02-8.6-3.74 0-7.63 1.48-9.81 4.35-1.38 1.85-1.94 4.02-1.75 6.24v-.04c.5 6.85 6.43 7.96 11.47 8.47 3.24.32 6.57.74 7.13 3.23.09.42.14.79.14 1.12 0 3.37-3.8 5.36-7.27 5.36-3.01 0-6.66-1.62-6.99-4.67v.23l-.04-.74-4.72.09.04.93c.61 5.83 6.67 8.84 11.66 8.84 5.84 0 12.04-3.66 12.04-10 0-.65-.1-1.43-.24-2.13-1.25-5.27-6.75-6.43-11.19-6.98-3.47-.33-7.13-.74-7.36-4.12-.09-1.16.14-2.22.79-3.06 1.29-1.71 3.7-2.45 5.87-2.49 2.82-.05 5.97 1.24 6.62 4.16zm10.08 10.55h14.67v-4.71h-14.67v-9.12h15v-4.67h-19.72v32.34h19.76v-4.67h-15.04z" fill="#FF2A58" xmlns:name="main_text"/><path d="M171.3 76.256L127.016 0 93.98 56.88h11.415l21.618-37.219 27.235 46.891h-40.3v.033H88.346l-5.616 9.671z" xmlns:name="symbol_mainfill" fill="#FF2A58"/></svg>