<svg xmlns="http://www.w3.org/2000/svg" height="258.283" width="258.3"><path d="M139.66 236.317c18.16 0 34.15-4.79 47.96-14.36 13.82-9.57 20.82-20.28 21.02-32.12 0-3.16-.69-5.83-2.07-8-2.57-4.14-6.02-5.42-10.36-3.85-4.94 1.78-6.91 5.93-5.92 12.44 1.97 11.05-1.88 21.12-11.55 30.2-9.67 9.08-22.7 13.61-39.08 13.61h-.29c-21.91-.19-39.33-8.78-52.26-25.75-12.92-16.98-19.39-44.21-19.39-81.71 0-34.74 6.91-60.55 20.72-77.42 13.82-16.88 31.78-25.21 53.89-25.02h.59c15.79.2 27.78 4.2 35.97 11.99 8.19 7.8 11.3 17.03 9.32 27.68-.59 3.36-.39 6.22.6 8.59 1.97 4.34 5.13 6.02 9.47 5.03 5.33-1.18 8.09-5.52 8.29-13.02.39-11.65-5.72-21.66-18.36-30.05-12.63-8.39-27.92-12.59-45.88-12.59-26.06 0-48.01 9.08-65.88 27.24-17.86 18.16-26.79 44.01-26.79 77.57 0 35.92 8.34 63.16 25.02 81.71 16.68 18.55 38.24 27.83 64.69 27.83z" fill="#d90000" xmlns:name="main_text"/><g xmlns:name="outlineContainer_mainfill" fill="#d90000"><path d="M140.071 8.288a.52.52 0 0 1-.468-.312 13.52 13.52 0 0 0-8.684-7.02.52.52 0 1 1 .26-.988 14.56 14.56 0 0 1 9.308 7.54.52.52 0 0 1 0 .676zm6.344.78a.52.52 0 0 1-.468-.312 13.52 13.52 0 0 0-8.32-7.436.52.52 0 0 1 .312-.936 14.56 14.56 0 0 1 8.892 8.06.52.52 0 0 1-.26.676zm6.344 1.04a.52.52 0 0 1-.468-.364 13.52 13.52 0 0 0-7.904-7.904.52.52 0 0 1 .364-.936 14.56 14.56 0 0 1 8.476 8.476.52.52 0 0 1-.312.624zm6.188 1.404a.52.52 0 0 1-.468-.364 13.52 13.52 0 0 0-7.488-8.268.52.52 0 0 1 .416-.936 14.56 14.56 0 0 1 8.008 8.944.52.52 0 0 1-.364.624zm6.136 1.716a.52.52 0 0 1-.468-.416 13.52 13.52 0 0 0-7.02-8.684.52.52 0 1 1 .468-.884 14.56 14.56 0 0 1 7.54 9.36.52.52 0 0 1-.364.624zm6.032 2.08a.52.52 0 0 1-.52-.416 13.52 13.52 0 0 0-6.552-8.996.52.52 0 1 1 .52-.884 14.56 14.56 0 0 1 7.02 9.724.52.52 0 0 1-.416.572zm5.928 2.34a.52.52 0 0 1-.52-.468 13.52 13.52 0 0 0-6.084-9.36.52.52 0 1 1 .572-.832 14.56 14.56 0 0 1 6.5 10.192.52.52 0 0 1-.468.572zm5.772 2.652a.52.52 0 0 1-.52-.468 13.52 13.52 0 0 0-5.564-9.672.52.52 0 0 1 .624-.78 14.56 14.56 0 0 1 5.98 10.4.52.52 0 0 1-.468.52zm5.668 2.964a.52.52 0 0 1-.52-.52 13.52 13.52 0 0 0-5.2-9.932.52.52 0 1 1 .624-.78 14.56 14.56 0 0 1 5.2 10.712.52.52 0 0 1-.52.52zm5.46 3.276a.52.52 0 0 1-.468-.52 13.52 13.52 0 0 0-4.524-10.4.52.52 0 1 1 .676-.728 14.56 14.56 0 0 1 4.888 10.972.52.52 0 0 1-.572.676zm5.304 3.536a.52.52 0 0 1-.468-.572 13.52 13.52 0 0 0-4.004-10.4.52.52 0 1 1 .728-.676 14.56 14.56 0 0 1 4.264 11.232.52.52 0 0 1-.52.416zm5.148 3.796a.52.52 0 0 1-.416-.572 13.52 13.52 0 0 0-3.432-10.4.52.52 0 1 1 .78-.676 14.56 14.56 0 0 1 3.692 11.44.52.52 0 0 1-.624.208zm4.888 4.108a.52.52 0 0 1-.416-.572 13.52 13.52 0 0 0-2.912-10.764.52.52 0 0 1 .78-.624 14.56 14.56 0 0 1 3.068 11.596.52.52 0 0 1-.52.364zm4.68 4.316a.52.52 0 0 1-.364-.624 13.52 13.52 0 0 0-2.34-10.92.52.52 0 1 1 .832-.572 14.56 14.56 0 0 1 2.496 11.752.52.52 0 0 1-.624.364zm4.472 4.576a.52.52 0 0 1-.312-.624 13.52 13.52 0 0 0-1.768-11.024.52.52 0 1 1 .832-.52 14.56 14.56 0 0 1 1.872 11.856.52.52 0 0 1-.624.312zm4.212 4.784a.52.52 0 0 1-.312-.624 13.52 13.52 0 0 0-1.196-11.076.52.52 0 0 1 .884-.468 14.56 14.56 0 0 1 1.248 11.96.52.52 0 0 1-.624.208zm3.952 4.992a.52.52 0 0 1 0-.676 13.52 13.52 0 0 0-.572-11.128.52.52 0 0 1 .884-.416 14.56 14.56 0 0 1 .624 11.96.52.52 0 0 1-.936.26zm3.64 5.2a.52.52 0 0 1 0-.676 13.52 13.52 0 0 0 0-11.18.52.52 0 0 1 .936-.416 14.56 14.56 0 0 1 0 12.012.52.52 0 0 1-.936.26zm3.432 5.408a.52.52 0 0 1 0-.676 13.52 13.52 0 0 0 .572-11.128.52.52 0 0 1 .936-.364 14.56 14.56 0 0 1-.624 11.96.52.52 0 0 1-.884.208zm3.12 5.564h-.26a.52.52 0 0 1 0-.676 13.52 13.52 0 0 0 1.144-11.076.52.52 0 1 1 .936-.312 14.56 14.56 0 0 1-1.248 11.908.52.52 0 0 1-.572.156zm2.808 5.668h-.312a.52.52 0 0 1 0-.676 13.52 13.52 0 0 0 1.716-11.024.52.52 0 0 1 .364-.624.52.52 0 0 1 .624.364 14.56 14.56 0 0 1-1.872 11.856.52.52 0 0 1-.52.104zm2.548 5.876h-.312a.52.52 0 0 1 0-.728 13.52 13.52 0 0 0 2.288-10.92.52.52 0 1 1 .988 0 14.56 14.56 0 0 1-2.496 11.752.52.52 0 0 1-.468-.104zm2.184 5.98h-.312a.52.52 0 0 1 0-.728 13.52 13.52 0 0 0 2.86-10.764.52.52 0 1 1 .988 0 14.56 14.56 0 0 1-3.12 11.596.52.52 0 0 1-.416-.104zm2.028 6.084a.52.52 0 0 1-.364-.832 13.52 13.52 0 0 0 3.432-10.4.52.52 0 0 1 .468-.52.52.52 0 0 1 .52.468 14.56 14.56 0 0 1-3.744 11.388.52.52 0 0 1-.312-.104zm1.456 6.188a.52.52 0 0 1-.364-.884 13.52 13.52 0 0 0 4.004-10.4.52.52 0 0 1 .468-.52.52.52 0 0 1 .52.468 14.56 14.56 0 0 1-4.316 11.18zm1.248 6.24a.52.52 0 0 1-.312-.884 13.52 13.52 0 0 0 4.524-10.4.52.52 0 0 1 .52-.468.52.52 0 0 1 .468.52 14.56 14.56 0 0 1-4.888 10.972zm.936 6.344a.52.52 0 0 1-.312-.884 13.52 13.52 0 0 0 5.2-9.932.52.52 0 0 1 .52-.468.52.52 0 0 1 .468.52 14.56 14.56 0 0 1-5.46 10.66zm.572 6.344a.52.52 0 0 1-.26-.936 13.52 13.52 0 0 0 5.564-9.828.52.52 0 1 1 .988 0 14.56 14.56 0 0 1-6.032 10.4zm.26 6.344a.52.52 0 0 1 0-.936 13.52 13.52 0 0 0 6.084-9.36.52.52 0 0 1 .572-.416.52.52 0 0 1 .416.572 14.56 14.56 0 0 1-6.552 10.036zm-.104 6.396a.52.52 0 0 1 0-.936 13.52 13.52 0 0 0 6.552-9.048.52.52 0 0 1 .988 0 14.56 14.56 0 0 1-7.072 9.672zm-.364 6.344a.52.52 0 0 1 0-.936 13.52 13.52 0 0 0 7.02-8.684.52.52 0 0 1 .988.26 14.56 14.56 0 0 1-7.54 9.308zm-.78 6.552a.52.52 0 0 1 0-.988 13.52 13.52 0 0 0 7.436-8.32.52.52 0 1 1 .936.312 14.56 14.56 0 0 1-8.164 8.996zm-1.04 6.084a.52.52 0 0 1 0-.988 13.52 13.52 0 0 0 7.904-7.904.52.52 0 0 1 .936.364 14.56 14.56 0 0 1-8.476 8.476zm-1.404 6.24a.52.52 0 0 1 0-.988 13.52 13.52 0 0 0 8.268-7.488.52.52 0 0 1 .936.416 14.56 14.56 0 0 1-8.944 8.008zm-1.768 6.136a.52.52 0 0 1 0-.988 13.52 13.52 0 0 0 8.58-7.072.52.52 0 1 1 .884.468 14.56 14.56 0 0 1-9.36 7.54zm-2.028 6.032a.52.52 0 0 1 0-.988 13.52 13.52 0 0 0 8.996-6.552.52.52 0 1 1 .884.52 14.56 14.56 0 0 1-9.724 7.02zm-2.184 5.928a.52.52 0 0 1 0-.988 13.52 13.52 0 0 0 9.36-6.084.52.52 0 0 1 .832.572 14.56 14.56 0 0 1-10.192 6.5zm-2.86 5.98a.52.52 0 0 1 0-.988 13.52 13.52 0 0 0 9.672-5.564.52.52 0 1 1 .78.624 14.56 14.56 0 0 1-10.4 5.98zm-2.964 5.2a.52.52 0 0 1 0-.988 13.52 13.52 0 0 0 9.932-5.2.52.52 0 1 1 .78.624 14.56 14.56 0 0 1-10.712 5.2zm-2.756 5.72h-.52a.52.52 0 0 1 0-.988 13.52 13.52 0 0 0 10.4-4.524.52.52 0 1 1 .728.676 14.716 14.716 0 0 1-10.608 4.836zm-2.964 5.356h-1.092a.52.52 0 0 1-.468-.572.52.52 0 0 1 .572-.468 13.52 13.52 0 0 0 10.4-4.004.52.52 0 1 1 .676.728 14.872 14.872 0 0 1-10.088 4.316zm-3.172 5.2h-1.716a.52.52 0 0 1-.416-.572.52.52 0 0 1 .572-.416 13.52 13.52 0 0 0 10.4-3.432.52.52 0 1 1 .676.78 15.08 15.08 0 0 1-9.516 3.64zm-3.484 4.992a11.908 11.908 0 0 1-2.392 0 .52.52 0 0 1 0-.988 13.52 13.52 0 0 0 10.764-2.912.52.52 0 0 1 .624.78 15.236 15.236 0 0 1-8.996 3.12zm-3.692 4.732a12.116 12.116 0 0 1-3.016-.364.52.52 0 1 1 0-.988 13.52 13.52 0 0 0 10.92-2.34.52.52 0 0 1 .572.832 15.6 15.6 0 0 1-8.476 2.86zm-4.108 4.732a12.324 12.324 0 0 1-3.692-.572.52.52 0 1 1 .312-.936 13.52 13.52 0 0 0 11.024-1.768.52.52 0 1 1 .52.832 15.6 15.6 0 0 1-8.164 2.444zm-3.952 4.42a12.532 12.532 0 0 1-4.42-.78.52.52 0 1 1 .364-.936 13.52 13.52 0 0 0 11.076-1.196.52.52 0 0 1 .468.884 15.6 15.6 0 0 1-7.488 2.028zm-4.316 4.16a12.74 12.74 0 0 1-5.2-1.04.52.52 0 1 1 .416-.936 13.52 13.52 0 0 0 11.128-.572.52.52 0 0 1 .416.884 15.6 15.6 0 0 1-6.76 1.664zm-4.524 3.952a12.948 12.948 0 0 1-5.772-1.3.52.52 0 1 1 .468-.884 13.52 13.52 0 0 0 11.18 0 .52.52 0 1 1 .416.936 16.016 16.016 0 0 1-6.292 1.248zm-4.732 3.536a13.208 13.208 0 0 1-6.5-1.612.52.52 0 0 1 .52-.884 13.52 13.52 0 0 0 11.128.572.52.52 0 0 1 .364.936 16.12 16.12 0 0 1-5.512.988zm-4.836 3.64a13.416 13.416 0 0 1-7.228-1.976.52.52 0 1 1 .52-.832 13.52 13.52 0 0 0 11.076 1.144.52.52 0 0 1 .312.936 16.224 16.224 0 0 1-4.68.728zm-5.044 3.224a13.624 13.624 0 0 1-7.904-2.392.52.52 0 1 1 .572-.832 13.52 13.52 0 0 0 11.024 1.716.52.52 0 1 1 0 .988 16.276 16.276 0 0 1-3.692.52zm-5.2 2.964a13.832 13.832 0 0 1-8.632-2.808.52.52 0 0 1 .624-.78 13.52 13.52 0 0 0 10.92 2.288.52.52 0 0 1 0 .988 16.432 16.432 0 0 1-2.912.312zm-5.304 2.652a14.04 14.04 0 0 1-9.308-3.276.52.52 0 0 1 .676-.728 13.52 13.52 0 0 0 10.764 2.86.52.52 0 1 1 0 .988 16.432 16.432 0 0 1-2.132.156zm-5.408 2.392a14.248 14.248 0 0 1-9.984-3.796.52.52 0 1 1 .728-.728 13.52 13.52 0 0 0 10.4 3.432.52.52 0 0 1 .52.468.52.52 0 0 1-.468.52h-1.196zm-5.564 2.08a14.456 14.456 0 0 1-10.4-4.316.52.52 0 1 1 .728-.676 13.572 13.572 0 0 0 10.4 4.004.52.52 0 0 1 .52.468.52.52 0 0 1-.468.52h-.78zm-5.928 1.82a14.56 14.56 0 0 1-10.972-4.888.52.52 0 0 1 .78-.624 13.52 13.52 0 0 0 10.4 4.524.52.52 0 0 1-.208.988zm-6.552 1.456a14.56 14.56 0 0 1-10.66-5.46.52.52 0 1 1 .832-.572 13.52 13.52 0 0 0 9.932 5.2.52.52 0 0 1-.104.832zm-6.656 1.092a14.56 14.56 0 0 1-10.4-6.032.52.52 0 1 1 .832-.572 13.52 13.52 0 0 0 9.672 5.564.523.523 0 0 1-.104 1.04zm-6.708.78a14.56 14.56 0 0 1-10.14-6.5.52.52 0 0 1 .884-.52 13.52 13.52 0 0 0 9.36 6.084.52.52 0 0 1-.104.936zm-6.708.416a14.56 14.56 0 0 1-9.828-6.916.52.52 0 1 1 .884-.468 13.52 13.52 0 0 0 9.048 6.552.52.52 0 0 1-.104.832zm-6.968.104a14.56 14.56 0 0 1-9.308-7.54.52.52 0 0 1 .936-.416 13.52 13.52 0 0 0 8.684 7.02.52.52 0 0 1-.312.936zm-6.5-.312a14.56 14.56 0 0 1-9.1-8.06.52.52 0 0 1 .936-.364 13.52 13.52 0 0 0 8.32 7.436.52.52 0 0 1-.156.988zm-6.708-.624a14.56 14.56 0 0 1-8.476-8.476.52.52 0 1 1 .936-.312 13.52 13.52 0 0 0 7.748 7.904.52.52 0 0 1-.208.884zm-6.656-.884a14.56 14.56 0 0 1-8.008-8.944.52.52 0 0 1 .988-.26 13.52 13.52 0 0 0 7.488 8.268.523.523 0 0 1-.468.936zm-6.604-1.456a14.56 14.56 0 0 1-7.54-9.36.52.52 0 1 1 .988 0 13.52 13.52 0 0 0 7.02 8.424.523.523 0 0 1-.468.936zm-6.5-1.664a14.56 14.56 0 0 1-7.02-9.724.52.52 0 0 1 .988 0 13.52 13.52 0 0 0 6.552 8.996.52.52 0 0 1-.52.728zm-6.448-2.08h-.26a14.56 14.56 0 0 1-6.5-10.088.52.52 0 1 1 .988 0 13.52 13.52 0 0 0 6.084 9.36.52.52 0 0 1-.312.728zm-6.292-2.288h-.312a14.56 14.56 0 0 1-5.98-10.4.52.52 0 0 1 .988 0 13.52 13.52 0 0 0 5.564 9.672.52.52 0 0 1-.26.728zm-6.292-2.912a14.56 14.56 0 0 1-5.2-10.712.52.52 0 0 1 .52-.52.52.52 0 0 1 .52.52 13.52 13.52 0 0 0 5.2 9.932.65.65 0 0 1-1.04.78zm-5.928-2.756a.52.52 0 0 1-.364 0 14.56 14.56 0 0 1-4.888-10.972.52.52 0 1 1 .988 0 13.52 13.52 0 0 0 4.524 10.4.52.52 0 0 1-.26.572zm-5.876-3.276a.52.52 0 0 1-.364 0 14.56 14.56 0 0 1-4.264-11.232.52.52 0 0 1 .572-.468.52.52 0 0 1 .468.572 13.52 13.52 0 0 0 4.004 10.4.52.52 0 0 1-.416.728zm-5.668-3.64a.52.52 0 0 1-.364 0 14.56 14.56 0 0 1-3.692-11.44.52.52 0 0 1 .572-.416.52.52 0 0 1 .416.572 13.52 13.52 0 0 0 3.432 10.4.52.52 0 0 1 0 .728zm-5.46-3.9a.52.52 0 0 1-.416 0 14.56 14.56 0 0 1-3.068-11.596.52.52 0 1 1 .988 0 13.52 13.52 0 0 0 2.912 10.764.52.52 0 0 1 0 .728zm-5.304-4.16a.52.52 0 0 1-.416 0 14.56 14.56 0 0 1-2.496-11.752.52.52 0 0 1 .988 0 13.52 13.52 0 0 0 2.34 10.92.52.52 0 0 1 0 .676zm-5.044-4.472a.52.52 0 0 1-.416 0 14.56 14.56 0 0 1-1.872-11.856.52.52 0 1 1 .936.312 13.52 13.52 0 0 0 1.768 11.024.52.52 0 0 1 0 .676h-.416zm-4.784-4.732a.52.52 0 0 1-.416-.26 14.56 14.56 0 0 1-1.248-11.96.52.52 0 0 1 .936.364 13.52 13.52 0 0 0 1.196 11.076.52.52 0 0 1 0 .676zm-4.576-4.94a.52.52 0 0 1-.468-.26 14.56 14.56 0 0 1-.624-11.96.52.52 0 0 1 .936.416 13.52 13.52 0 0 0 .572 11.128.52.52 0 0 1 0 .676zm-4.16-5.2a.52.52 0 0 1-.468-.312 14.56 14.56 0 0 1 0-12.012.52.52 0 1 1 .884.468 13.52 13.52 0 0 0 0 11.18.52.52 0 0 1-.26.676zm-4.16-5.408a.52.52 0 0 1-.468-.312 14.56 14.56 0 0 1 .624-11.96.52.52 0 0 1 .884.52 13.52 13.52 0 0 0-.572 11.128.52.52 0 0 1-.312.624zm-3.692-5.564a.52.52 0 0 1-.468-.364 14.56 14.56 0 0 1 1.248-11.908.52.52 0 0 1 .832.52 13.52 13.52 0 0 0-1.144 11.076.52.52 0 0 1-.312.624zm-3.432-5.824a.52.52 0 0 1-.468-.364 14.56 14.56 0 0 1 1.872-11.856.52.52 0 1 1 .832.572 13.52 13.52 0 0 0-1.716 11.024.52.52 0 0 1-.364.624zm-3.12-5.98a.52.52 0 0 1-.468-.416 14.56 14.56 0 0 1 2.496-11.752.52.52 0 0 1 .78.624 13.52 13.52 0 0 0-2.288 10.92.52.52 0 0 1-.416.572zm-2.808-6.084a.52.52 0 0 1-.52-.416 14.56 14.56 0 0 1 3.12-11.596.52.52 0 0 1 .728.676 13.52 13.52 0 0 0-2.86 10.764.52.52 0 0 1-.416.572zm-2.496-6.292a.52.52 0 0 1-.52-.468 14.56 14.56 0 0 1 3.744-11.388.625.625 0 1 1 .884.884 13.52 13.52 0 0 0-3.432 10.4.52.52 0 0 1-.468.52zm-2.132-6.396a.52.52 0 0 1-.52-.468 14.56 14.56 0 0 1 4.316-11.18.52.52 0 0 1 .676.728 13.52 13.52 0 0 0-4.004 10.4.52.52 0 0 1-.468.52zm-1.82-6.448a.52.52 0 0 1-.468-.52 14.56 14.56 0 0 1 4.888-10.972.52.52 0 1 1 .624.78 13.52 13.52 0 0 0-4.524 10.4.52.52 0 0 1-.52.312zm-1.456-6.604a.52.52 0 0 1-.468-.52 14.56 14.56 0 0 1 5.46-10.66.52.52 0 0 1 .572.832 13.52 13.52 0 0 0-5.2 9.932.52.52 0 0 1-.364.416zm-.884-6.604a.52.52 0 0 1-.416-.572 14.56 14.56 0 0 1 5.616-10.348.52.52 0 1 1 .572.832 13.52 13.52 0 0 0-5.512 9.568.52.52 0 0 1-.26.52zm-.988-6.708a.52.52 0 0 1-.416-.572 14.56 14.56 0 0 1 6.604-10.088.52.52 0 0 1 .52.884 13.52 13.52 0 0 0-6.084 9.36.52.52 0 0 1-.624.416zm-.416-6.708a.52.52 0 0 1-.364-.624 14.56 14.56 0 0 1 6.968-9.672.52.52 0 1 1 .468.884 13.52 13.52 0 0 0-6.552 9.048.52.52 0 0 1-.52.364zm-.104-6.76a.52.52 0 0 1-.364-.624 14.56 14.56 0 0 1 7.54-9.308.52.52 0 0 1 .416.936 13.572 13.572 0 0 0-7.02 8.684.52.52 0 0 1-.572.312zm.312-6.708a.52.52 0 0 1-.312-.624 14.56 14.56 0 0 1 8.06-8.892.52.52 0 0 1 .364.936 13.52 13.52 0 0 0-7.436 8.32.52.52 0 0 1-.676.26zm.624-6.708a.52.52 0 0 1-.26-.676 14.56 14.56 0 0 1 8.476-8.476.52.52 0 0 1 .312.936 13.52 13.52 0 0 0-7.956 7.904.52.52 0 0 1-.572.312zm.988-6.656a.52.52 0 0 1 0-.676 14.56 14.56 0 0 1 8.944-8.008.52.52 0 1 1 .26.988 13.52 13.52 0 0 0-8.268 7.488.52.52 0 0 1-.936.208zm1.3-6.604a.52.52 0 0 1 0-.676 14.56 14.56 0 0 1 8.684-7.592.52.52 0 1 1 0 .988 13.52 13.52 0 0 0-8.216 6.812.52.52 0 0 1-.468.468zm1.716-6.5a.52.52 0 0 1 0-.676 14.56 14.56 0 0 1 9.724-7.02.52.52 0 1 1 0 .988 13.52 13.52 0 0 0-8.996 6.552.52.52 0 0 1-.728.156zM7.159 87.9h-.26a.52.52 0 0 1 0-.676 14.56 14.56 0 0 1 10.088-6.5.52.52 0 0 1 0 .988 13.52 13.52 0 0 0-9.36 6.084.52.52 0 0 1-.468.104zm2.6-6.292h-.312a.52.52 0 0 1 0-.728 14.56 14.56 0 0 1 10.4-5.98.468.468 0 0 1 .52.468.52.52 0 0 1-.468.52 13.52 13.52 0 0 0-9.672 5.564.52.52 0 0 1-.468.156zm2.6-6.188h-.312a.52.52 0 0 1 0-.728 14.56 14.56 0 0 1 10.712-5.512.52.52 0 0 1 0 .988 13.52 13.52 0 0 0-9.932 5.2.52.52 0 0 1-.468.052zm3.068-6.24a.52.52 0 0 1-.364-.832 14.508 14.508 0 0 1 10.972-4.888.52.52 0 0 1 0 .988 13.52 13.52 0 0 0-10.4 4.524.52.52 0 0 1-.208.208zm3.276-5.668a.52.52 0 0 1-.364-.884 14.56 14.56 0 0 1 11.232-4.264.52.52 0 1 1 0 .988 13.572 13.572 0 0 0-10.4 4.004.52.52 0 0 1-.468.156zm3.64-5.668a.52.52 0 0 1-.312-.884 14.56 14.56 0 0 1 11.44-3.692.52.52 0 1 1 0 .988 13.52 13.52 0 0 0-10.4 3.432zm3.9-5.512a.52.52 0 0 1-.312-.884 14.56 14.56 0 0 1 11.596-3.068.52.52 0 0 1 .416.572.52.52 0 0 1-.572.416 13.52 13.52 0 0 0-10.764 2.912zm4.16-5.252a.52.52 0 0 1-.312-.936 14.56 14.56 0 0 1 11.752-2.496.52.52 0 0 1 0 .988 13.52 13.52 0 0 0-10.92 2.34zm4.472-5.044a.52.52 0 0 1-.26-.936 14.56 14.56 0 0 1 11.856-1.872.52.52 0 0 1-.312.936 13.572 13.572 0 0 0-11.024 1.768h-.26zm4.68-4.836a.52.52 0 0 1 0-.936 14.56 14.56 0 0 1 11.96-1.248.52.52 0 0 1-.364.936 13.52 13.52 0 0 0-11.076 1.196zm4.992-4.42a.52.52 0 0 1 0-.936 14.56 14.56 0 0 1 11.96-.624.52.52 0 1 1-.416.936 13.52 13.52 0 0 0-11.128.572zm16.744-4.42a13.52 13.52 0 0 0-11.18 0 .52.52 0 0 1-.416-.936 14.56 14.56 0 0 1 12.012 0 .52.52 0 0 1-.416.936zm5.408-3.38a13.572 13.572 0 0 0-11.128-.572.52.52 0 0 1-.364-.936 14.56 14.56 0 0 1 11.96.624.52.52 0 0 1-.468.884zm5.564-3.12h-.26a13.52 13.52 0 0 0-11.076-1.144.52.52 0 1 1-.312-.936 14.56 14.56 0 0 1 11.908 1.248.52.52 0 0 1-.26.832zm5.72-2.808h-.312a13.52 13.52 0 0 0-11.024-1.716.52.52 0 0 1-.624-.364.52.52 0 0 1 .364-.624 14.56 14.56 0 0 1 11.856 1.872.52.52 0 0 1-.26.832zm5.824-2.548h-.312a13.52 13.52 0 0 0-10.92-2.288.52.52 0 0 1 0-.988 14.56 14.56 0 0 1 11.752 2.496.52.52 0 0 1-.52.78zm5.98-2.184h-.312a13.52 13.52 0 0 0-10.764-2.86.52.52 0 0 1 0-.988 14.56 14.56 0 0 1 11.596 3.12.52.52 0 0 1-.52.728zm6.084-1.924a.52.52 0 0 1-.364 0 13.52 13.52 0 0 0-10.4-3.432.52.52 0 1 1 0-.988 14.56 14.56 0 0 1 11.388 3.744.52.52 0 0 1-.624.676zm6.188-1.56a.52.52 0 0 1-.364 0 13.572 13.572 0 0 0-10.4-4.004.52.52 0 0 1 0-.988 14.56 14.56 0 0 1 11.18 4.316.52.52 0 0 1 0 .728zm6.24-1.248a.52.52 0 0 1-.364 0 13.52 13.52 0 0 0-10.4-4.524.52.52 0 0 1-.468-.52.52.52 0 0 1 .52-.468 14.56 14.56 0 0 1 10.972 4.888.52.52 0 0 1 0 .728zm6.344-.936a.52.52 0 0 1-.416 0 13.52 13.52 0 0 0-9.932-5.2.52.52 0 0 1-.468-.52.52.52 0 0 1 .52-.468 14.56 14.56 0 0 1 10.66 5.46.52.52 0 0 1 0 .728zm6.344-.572a.52.52 0 0 1-.416 0 13.52 13.52 0 0 0-9.672-5.564.52.52 0 0 1 0-.988 14.56 14.56 0 0 1 10.4 6.032.52.52 0 0 1 0 .676zm6.344-.26a.52.52 0 0 1-.416 0 13.52 13.52 0 0 0-9.36-6.084.52.52 0 0 1-.416-.572.52.52 0 0 1 .572-.416A14.56 14.56 0 0 1 127.747 7.3a.52.52 0 0 1 0 .676zm6.396.052a.52.52 0 0 1-.468-.26 13.52 13.52 0 0 0-9.048-6.552.52.52 0 1 1 0-.988 14.56 14.56 0 0 1 9.672 7.072.52.52 0 0 1 0 .676z"/><path d="M129.047 245.356a116.272 116.272 0 1 1 116.272-116.272 116.376 116.376 0 0 1-116.272 116.272zm0-231.712a115.44 115.44 0 1 0 115.44 115.44 115.544 115.544 0 0 0-115.44-115.44z"/><path d="M129.047 241.612a112.528 112.528 0 1 1 112.528-112.528 112.632 112.632 0 0 1-112.528 112.528zm0-221.676a109.2 109.2 0 1 0 109.2 109.2 109.2 109.2 0 0 0-109.2-109.2z"/></g></svg>