<svg xmlns="http://www.w3.org/2000/svg" height="127.344" width="258.66"><path d="M20.16 124.124c-1.12 0 .45-4.12.45-6.54 0-3.14-1.39-5.15-3.81-6.54-.63-.36-.58-.59-.09-.94 2.24-1.57 3.76-3.81 3.76-6.86 0-5.87-5.28-9.18-11.33-9.18H1.39c-.76 0-1.39.63-1.39 1.79v29.92c0 .36.63.99 1.39.99h.13c.76 0 1.39-.54 1.39-.99v-12.81c0-.4.14-.49.54-.49h6.99c5.19 0 7.21 1.48 7.21 5.11 0 3.09-1.03 6.63.22 8.28.5.68 1.48 1.17 2.29 1.17 2.73 0 2.46-2.91 0-2.91zm-11.02-14.56H3.4c-.4 0-.49-.14-.49-.54v-11.6c0-.36.14-.49.54-.49h5.69c4.43 0 8.46 2.01 8.46 6.31 0 4.21-3.89 6.32-8.46 6.32zm38.17 4.21c-.32-2.24-1.26-4.17-2.83-5.74-2.24-2.23-4.88-3.27-8.02-3.27-3.13 0-5.77 1.04-8.01 3.27-2.2 2.2-3.32 4.84-3.32 7.98 0 3.13 1.12 5.78 3.32 8.02 2.24 2.19 4.88 3.31 8.01 3.31 3.14 0 5.78-1.12 8.02-3.36.18-.18.36-.36.54-.58.67-.72.63-1.75-.18-2.28-1.03-.63-1.66-.18-2.69 1.07-1.03 1.26-3.4 2.46-5.69 2.46-2.33 0-4.3-1.12-5.91-2.73-1.48-1.43-2.28-3.27-2.46-5.51-.05-.67.09-.85.71-.85h17.16c1.26 0 1.43-1.12 1.35-1.79zm-3.95-1.08H29.57c-.72 0-.95-.04-.63-.62.36-.59.85-1.26 1.57-1.97 1.65-1.66 3.62-2.65 5.95-2.65 2.29 0 4.26.99 5.92 2.65.62.58 1.07 1.16 1.39 1.74.26.45.53.85-.41.85zm9.01-18.63h-.09a1.4 1.4 0 0 0-1.39 1.39v29.92c0 .76.63 1.39 1.39 1.39h.09a1.4 1.4 0 0 0 1.39-1.39v-29.92a1.4 1.4 0 0 0-1.39-1.39zm7.34 11.24h-.09c-.76 0-1.38.63-1.38 1.39v18.68c0 .76.62 1.39 1.38 1.39h.09c.77 0 1.39-.63 1.39-1.39v-18.68c0-.76-.62-1.39-1.39-1.39zm23.43 0h-.27c-1.12 0-1.47.18-1.97 1.26 0 0-5.51 12.9-5.96 13.84-.13.27-.4 1.03-.44 1.25-.18.68-.32.63-.5 0-.04-.22-.4-1.07-.53-1.34-.45-.9-5.87-13.75-5.87-13.75-.45-.9-.76-1.26-1.97-1.26h-.27c-1.03 0-1.3.76-.94 1.57.31.63 9.23 19.93 9.23 19.93.31.72.85.72 1.16 0 0 0 8.91-19.26 9.32-20.11.4-.81-.36-1.39-.99-1.39zm25.63 8.47c-.32-2.24-1.26-4.17-2.83-5.74-2.24-2.23-4.88-3.27-8.01-3.27-3.14 0-5.78 1.04-8.02 3.27-2.2 2.2-3.32 4.84-3.32 7.98 0 3.13 1.12 5.78 3.32 8.02 2.24 2.19 4.88 3.31 8.02 3.31 3.13 0 5.77-1.12 8.01-3.36.18-.18.36-.36.54-.58.67-.72.63-1.75-.18-2.28-1.03-.63-1.66-.18-2.69 1.07-1.03 1.26-3.4 2.46-5.68 2.46-2.33 0-4.31-1.12-5.92-2.73-1.48-1.43-2.28-3.27-2.46-5.51-.05-.67.09-.85.72-.85h17.15c1.26 0 1.44-1.12 1.35-1.79zm-3.95-1.08H91.03c-.72 0-.94-.04-.63-.62.36-.59.85-1.26 1.57-1.97 1.65-1.66 3.63-2.65 5.96-2.65 2.28 0 4.25.99 5.91 2.65.63.58 1.07 1.16 1.39 1.74.27.45.53.85-.41.85zm41.67 11.16h-12.82c-.4 0-.49-.14-.49-.54v-27.86a1.4 1.4 0 0 0-1.39-1.39h-.13a1.4 1.4 0 0 0-1.39 1.39v29.92c0 .76.63 1.39 1.39 1.39h14.83c.76 0 1.38-.63 1.38-1.39v-.13c0-.76-.62-1.39-1.38-1.39zm5.55-18.55h-.09a1.4 1.4 0 0 0-1.39 1.39v18.68c0 .76.63 1.39 1.39 1.39h.09a1.4 1.4 0 0 0 1.39-1.39v-18.68a1.4 1.4 0 0 0-1.39-1.39zm26.39-.54c-2.83 0-4.66 1.17-5.74 2.83-.45.76-.54.71-1.03-.05-1.61-2.37-4.43-2.78-6.05-2.78-1.79 0-2.95.63-4.48 2.42-.13.14-.31.09-.31-.13v-.67c0-.63-.72-1.08-1.39-1.08h-.13a1.4 1.4 0 0 0-1.39 1.39v18.73c0 .76.63 1.34 1.39 1.34h.13c.76 0 1.39-.58 1.39-1.34v-12.37c0-3.36 1.39-5.6 4.79-5.6 1.48 0 5.11 1.17 5.15 5.65v12.32c0 .76.63 1.34 1.39 1.34h.14c.76 0 1.39-.58 1.39-1.34v-12.37c0-3.36 1.39-5.6 4.75-5.6 1.52 0 5.19 1.17 5.19 5.74v12.23c0 .76.63 1.34 1.39 1.34h.09c.76 0 1.39-.58 1.39-1.34v-12.41c0-7.08-5.56-8.25-8.06-8.25zm14.02.54h-.09a1.4 1.4 0 0 0-1.39 1.39v18.68c0 .76.63 1.39 1.39 1.39h.09a1.4 1.4 0 0 0 1.39-1.39v-18.68a1.4 1.4 0 0 0-1.39-1.39zm14.6 0h-2.11c-.35 0-.53-.22-.53-.58v-9.27a1.4 1.4 0 0 0-1.39-1.39h-.09a1.4 1.4 0 0 0-1.39 1.39v9.14c0 .44-.18.71-.54.71h-2.1a1.4 1.4 0 0 0-1.39 1.39v.09c0 .76.63 1.39 1.39 1.39h2.15c.36 0 .49.18.49.54v16.66c0 .76.63 1.39 1.39 1.39h.09a1.4 1.4 0 0 0 1.39-1.39v-16.71c0-.4.13-.49.58-.49h2.06a1.4 1.4 0 0 0 1.39-1.39v-.09a1.4 1.4 0 0 0-1.39-1.39zm26.43 8.47c-.31-2.24-1.25-4.17-2.82-5.74-2.24-2.23-4.88-3.27-8.02-3.27-3.14 0-5.78 1.04-8.02 3.27-2.19 2.2-3.31 4.84-3.31 7.98 0 3.13 1.12 5.78 3.31 8.02 2.24 2.19 4.88 3.31 8.02 3.31 3.14 0 5.78-1.12 8.02-3.36.18-.18.36-.36.54-.58.67-.72.62-1.75-.18-2.28-1.03-.63-1.66-.18-2.69 1.07-1.03 1.26-3.41 2.46-5.69 2.46-2.33 0-4.3-1.12-5.91-2.73-1.48-1.43-2.29-3.27-2.47-5.51-.04-.67.09-.85.72-.85h17.16c1.25 0 1.43-1.12 1.34-1.79zm-3.94-1.08h-13.8c-.72 0-.94-.04-.63-.62.36-.59.85-1.26 1.57-1.97 1.66-1.66 3.63-2.65 5.96-2.65 2.28 0 4.26.99 5.91 2.65.63.58 1.08 1.16 1.39 1.74.27.45.54.85-.4.85zm29.12-17.29c0-.71-.63-1.34-1.35-1.34h-.18c-.76 0-1.39.63-1.39 1.34v12.86c0 .36-.35.36-.49.13-2.15-2.59-4.7-3.63-7.7-3.63-3.09 0-5.78 1.04-7.98 3.27-2.24 2.2-3.31 4.84-3.31 7.98 0 3.13 1.07 5.78 3.31 8.02 2.2 2.19 4.89 3.31 7.98 3.31 3 0 5.82-1.43 7.88-3.81.22-.26.31.05.31.18v1.71c0 .76.63 1.34 1.39 1.34h.18c.72 0 1.35-.58 1.35-1.34zm-2.69 20.61c0 4.66-3.76 8.64-8.42 8.64s-8.43-3.98-8.43-8.64 3.77-8.56 8.43-8.56 8.42 3.9 8.42 8.56z" xmlns:name="main_text"/><path d="M129.6 0l-7.459 11.85c2.922-.448 6.601-1.14 10.519-1.907.425-.718.811-1.376 1.022-1.727.18-.3.326-.517.499-.8L129.6 0zm7.356 11.91c-1.01.205-1.637.307-2.56.49-.09.152-.284.487-.327.56-3.27 5.45-6.014 11.16-8.396 17.247 4.95-2.46 9.963-5.37 15.426-8.929.22-.143.877-.595 1.16-.782a7183.43 7183.43 0 0 0-5.303-8.585zm-6.118 1.178c-3.877.737-7.594 1.412-10.63 1.83-2.558 4.063-3.323 5.284-5.93 9.428.721.905 1.334 1.62 2.028 2.38a498.828 498.828 0 0 0 5.096 5.483c.234-.104.47-.195.704-.3 2.45-6.692 5.337-12.939 8.732-18.82zm12.865 9.746c-.268.176-.89.61-1.1.747-6.521 4.248-12.429 7.637-18.348 10.399-.108.303-.203.622-.31.928a480.02 480.02 0 0 0 5.303 5.465c4.599-1.415 9.369-2.907 14.575-4.589a478.11 478.11 0 0 1 3.661-6.84 3860.29 3860.29 0 0 1-3.781-6.11zm-30.93 3.91l-6.883 10.94a102.726 102.726 0 0 0 12.83-4.323c-1.488-1.59-2.98-3.173-4.451-4.787-.367-.402-.969-1.182-1.495-1.83zm36.387 4.898c-.505.933-1.135 2.072-1.599 2.94 1.003-.328 1.804-.579 2.845-.92l-1.246-2.02zm-28.42 3.884a106.136 106.136 0 0 1-15.847 5.286c-.396.099-.81.245-1.203.37l-.043.068c.27 1.786.623 3.988 1.006 6.213 1.476-.365 2.8-.72 5.32-1.426.205-.058 1.39-.395 1.64-.464 2.275-.633 4.518-1.293 6.764-1.943.225-.818.426-1.667.662-2.475.553-1.894 1.174-3.71 1.787-5.534-.03-.03-.057-.064-.086-.095zm31.153.533c-2.255.742-4.04 1.3-6.128 1.977-2.527 4.846-4.426 8.788-6.067 12.59.152.144.304.285.456.43a185.743 185.743 0 0 1 13.612-11.972c-.666-1.077-1.21-1.952-1.873-3.025zm-28.936 1.77a155.911 155.911 0 0 0-1.495 4.916c1.54-.453 3.228-.984 4.83-1.47a479.606 479.606 0 0 1-3.335-3.445zm19.07 1.41a1177.69 1177.69 0 0 1-10.588 3.343 446.417 446.417 0 0 0 6.12 6.024 184.215 184.215 0 0 1 4.133-8.731c.105-.21.23-.429.335-.636zm13.2 2.2a183.107 183.107 0 0 0-13.071 11.507c.614.582 1.228 1.18 1.839 1.745 1.812 1.672 6.744 5.833 6.746 5.835.724.606 1.084.92 1.684 1.426 1.624-1.971 3.088-3.747 3.593-4.365-.318.39 2.643-3.444 5.138-6.583-2.082-3.361-3.768-6.07-5.93-9.565zm-26.778 2.045c-2.648.81-5.287 1.62-7.777 2.346-1.916 7.214-3.51 15.041-4.865 23.72 1.956.691 3.845 1.422 5.68 2.19 4.095-5.167 8.327-10.098 12.728-14.73.073-.204.132-.405.207-.61.61-1.674 1.283-3.373 1.993-5.087a447.412 447.412 0 0 1-7.966-7.829zm-27.045 1.332c-.75 1.193-1.676 2.668-2.372 3.773.918-.137 1.945-.38 2.922-.576-.17-.99-.407-2.324-.55-3.197zm16.14 1.917c-1.724.494-3.445 1.01-5.191 1.495l-1.633.456c-2.633.737-4.022 1.108-5.595 1.495.264 1.493.443 2.565.782 4.443 1.038 5.736 1.439 7.996 1.934 11.034.057.35.11 1.034.163 1.435a142.78 142.78 0 0 1 5.148 1.599c1.257-8.045 2.674-15.242 4.391-21.957zm-15.109 4.022c-1.87.38-3.646.69-5.293.842-1.097 1.744-2.28 3.619-3.764 5.981.267 1.594.327 3.34.206 5.345-.016.274-.049.555-.069.817.86.038 1.652.102 2.269.24 3.348.752 6.414 1.526 9.367 2.32-.008-.05-.018-.157-.026-.206-.491-3.017-.89-5.263-1.925-10.982-.333-1.84-.505-2.886-.765-4.357zm60.26 2.724c-2.341 2.966-4.81 6.167-4.546 5.844-.51.626-1.994 2.418-3.635 4.408 1.771 1.526 3.24 2.834 4.632 4.185a36.174 36.174 0 0 1 2.157 2.303c.035-.039.13-.15.163-.189 1.115-1.24 2.19-2.419 3.231-3.549a265.263 265.263 0 0 1 3.67-3.893c-1.917-3.077-3.514-5.63-5.672-9.109zm-22.524 1.384a198.842 198.842 0 0 0-3.55 3.643c-2.174 6.194-3.66 12.283-4.477 18.494 1.057.605 2.11 1.27 3.162 1.925 1.047-.004 2.11-.004 3.318-.009a705.725 705.725 0 0 1 10.046-12.4l2.002-2.432a953.663 953.663 0 0 1-1.693-1.453c-3.464-2.898-4.993-4.208-6.849-5.92-.65-.601-1.306-1.228-1.96-1.848zm-49.277 6.66l-1.452 2.311c.444-.03.868-.051 1.289-.068.068-.783.145-1.597.163-2.243zm41.328 1.736c-2.782 3.099-5.482 6.342-8.139 9.659a94.81 94.81 0 0 1 5.466 2.69 92.707 92.707 0 0 1 2.673-12.35zm37.649 1.744c-1.03 1.081-2.04 2.133-3.154 3.343a393.435 393.435 0 0 0-3.206 3.523c-.088.1-.338.387-.438.499.203.252.35.423.567.696.207.26 1.236 1.564 1.392 1.762a88.47 88.47 0 0 0 3.343 4.013c4.894-.004 10.404-.011 10.33.026-.114.057-4.011-6.132-8.834-13.862zm-17.128.877c-.693.84-1.851 2.25-1.959 2.38a768.684 768.684 0 0 0-8.654 10.648c4.118-.015 7.592-.03 11.55-.043 2.468-2.818 3.986-4.532 5.784-6.566a35.719 35.719 0 0 0-2.235-2.415c-.988-.96-2.825-2.563-4.486-4.004zm-59.512.593a180.71 180.71 0 0 1-.463 3.42c-.281 1.953-.42 2.988-.55 4.15-.2 1.783-.31 3.321-.31 4.762 0 .092.016.166.017.258 3.552.006 9.27-.016 14.541-.035-.024-.205-.054-.366-.077-.576a183.767 183.767 0 0 1-.379-3.781c-.063-.7-.267-3.104-.309-3.566-.078-.87-.145-1.19-.215-1.848a218.01 218.01 0 0 0-10.304-2.587c-.51-.114-1.197-.168-1.95-.197zm-2.8.068c-.903.047-1.807.094-2.82.198-3.398 5.398-7.65 12.148-7.657 12.177-.022.085 3.929.119 9.221.138 0-.087-.017-.161-.017-.25 0-1.554.116-3.192.327-5.07.134-1.2.274-2.248.558-4.228.167-1.158.27-2.026.387-2.965zm17.908 3.507c.032.334.06.431.095.807.042.467.255 2.873.318 3.567.13 1.429.244 2.603.37 3.73.035.316.083.562.12.867l2.793-.008a48.84 48.84 0 0 1 .515-6.454c.056-.382.116-.73.172-1.109a132.538 132.538 0 0 0-4.383-1.4zm7.03 2.286c-.03.208-.064.4-.094.61-.306 2.114-.477 4.14-.499 6.058h1.152a246.043 246.043 0 0 1 3.781-5.001 105.39 105.39 0 0 0-4.34-1.667zm45.865 2.122c-1.243 1.409-2.24 2.534-3.876 4.4l7.39-.026c-.587-.712-1.128-1.359-1.873-2.303l-1.383-1.753c-.1-.125-.162-.198-.258-.318zm-38.895.688c-1 1.28-2.02 2.527-3 3.841l9.78-.034c.015-.141.036-.28.052-.421a92.656 92.656 0 0 0-6.832-3.386z" xmlns:name="symbol_mainfill"/></svg>