<svg xmlns="http://www.w3.org/2000/svg" height="347.701" width="243.95"><path d="M93.8 284.221q.71-.72.53-2.14-.17-1.43-.53-3.21-1.78-.36-1.61 1.42.18 1.79-.89 2.5-.71-1.07-.35-2.5.35-1.42-2.14-1.42 0-1.07.71-1.61.71-.53.36-1.6-1.07 0-1.97-1.61-.89-1.6-1.6-3.92-.71-2.32-.54-4.28.18-1.96 1.25-2.68-2.85.36-2.67-1.42.18-1.79-2.68-2.5 0-3.21-.71-4.99-.71-1.79-1.43-3.39-.71-1.61-1.6-3.39-.89-1.78-.89-4.64-.36-1.42-.89-1.24-.54.17-1.25.53-1.79-6.06-3.21-9.45-1.43-3.39-4.28-8.03 1.78 0 .53-2.67-1.25-2.68-3.03-3.03-.71-5.71-2.67-11.41-1.97-5.71-4.11-11.24-2.14-5.53-3.92-10.7-1.78-5.17-2.14-10.16-.36-.72-2.14-1.43-1.07 3.92-2.32 9.99-1.25 6.06.54 11.05-2.5 2.86-1.43 6.6 1.07 3.75-1.07 5.53.36 5.71-.36 12.66-.71 6.95-1.96 14.09-1.25 7.13-2.32 13.91-1.07 6.77-1.07 11.41-1.78 3.21-2.31 6.42-.54 3.21-.9 6.42-.35 3.21-1.07 6.42-.71 3.21-2.85 6.06-.71 7.85-2.85 14.8-2.14 6.96-4.99 13.38-2.86 6.42-5.89 12.84t-5.53 13.19q-2.85.72-4.28 0-1.42-.71-2.32-2.31-.89-1.61-1.42-3.39-.54-1.79-1.61-2.86.72-4.63-.53-9.09t-1.61-8.74q0-.36.72-1.07.35-.36.71-.36-.36-.71-.89-1.24-.54-.54-.89-1.25-1.43-3.57-.54-7.85.89-4.28.89-7.13 0-1.07-.89-2.14t-.89-2.5q0-.71.53-.89.54-.18.9-1.6.35-2.14-.54-5-.89-2.85-.89-5.35 0-6.42.71-12.66.72-6.24 0-12.3-.35-1.43.54-2.5t1.25-2.85q.35-2.86-.54-6.24-.89-3.39 1.96-5.89-.71-1.43-.53-1.96.18-.54-.89-2.32 1.78-7.85 2.85-14.44 1.07-6.6 1.96-12.66.89-6.07 2.14-12.13 1.25-6.06 4.1-13.2 0-.71-.71-.53-.71.18-1.43-.18 2.5-3.92 4.1-9.27 1.61-5.35 3.04-10.88 1.42-5.53 3.03-10.52 1.6-5 4.81-8.92 1.79-8.91 5.89-16.05 4.1-7.13 8.73-14.26 2.5.35 3.21 1.42.72 1.07.36 2.5t-.71 3.39q-.36 1.96 0 3.74 1.78 0 2.49-1.07.72-1.07 2.5-1.07.71-2.85-.36-3.39-1.07-.53-1.42-2.31 1.78-2.86 4.99-1.61 3.21 1.25 2.5 5.53 4.28 2.5 7.31 6.24 3.03 3.75 5.17 8.38 2.14 4.64 3.92 9.27 1.79 4.64 3.93 8.92 0 .71.53.54.54-.18.89.17 0 2.14.72 3.75.71 1.6 1.78 3.03 1.07 1.43 1.78 2.85.72 1.43.36 3.21 12.48 23.54 21.04 46.73 8.56 23.18 17.48 49.21 2.14-.71 2.67-2.67.54-1.96.18-3.75 6.78-16.05 11.95-33.34 5.17-17.3 11.59-31.57.71-1.78 2.14-3.21 1.43-1.42.71-4.28 9.63-16.05 19.26-34.77 9.63-18.72 19.98-32.63h2.49q1.43 0 2.14-.72 1.43-5.7 8.21-7.49 1.78 0 1.96 1.61.18 1.6 1.96 2.32.71 1.78-.54 1.42-1.24-.35-.89 1.43.36 1.43 1.96.89 1.61-.53 2.68-.18 3.21 11.77 5.7 25.15 2.5 13.37 4.46 27.28 1.96 13.91 3.39 27.46 1.43 13.56 3.21 25.33.36 2.14.89 4.63.54 2.5 2.32 4.28 0 1.07-2.14 1.07 1.78 1.07 2.14 3.03.36 1.96.71 4.1.36 2.14.9 3.93.53 1.78 2.31 2.49-1.07 1.07-.89 2.32.18 1.25.54 2.86.35 1.6.53 2.85.18 1.25-.89 2.32 0 .71.71.71h1.07q2.14 10.7 3.39 19.62 1.25 8.91 2.32 17.12l2.14 16.4q1.07 8.2 3.21 17.12-1.78-.71-1.25.54.54 1.24-1.25.53-1.42-.36-1.24-1.96.17-1.61-1.25-1.96-1.43 4.28-2.5 8.38-1.07 4.1-3.92 6.6-2.14.71-2.14-2.14-1.43 2.85-1.25 5.17.18 2.32.89 4.64.71 2.31 1.07 4.45.36 2.14-.71 4.64-.36-.36-1.07-.53-.72-.18-1.07.53-1.79-6.78-3.39-13.73-1.61-6.96-3.39-14.09h-3.21q-2.85-3.92-4.28-8.2-1.43-4.28-4.64-8.56.72-.71.9-1.25.17-.53.89-1.25-2.5-1.42-3.39-4.1-.89-2.67-1.6-5.53-.72-2.85-1.79-5.17t-3.56-3.03q-1.07-4.99-2.14-8.38-1.07-3.39-.72-8.38-.35-.72-2.14-.72-.71-2.14 2.14-2.14-1.78-.35-2.14-1.96-.35-1.6-.35-3.56 0-1.97-.18-3.57-.18-1.61-1.96-2.32.71-3.92-.18-8.02-.89-4.11-1.96-8.21-1.07-4.1-1.79-8.2-.71-4.1.36-8.38-1.78-.72-2.68-2.85-.89-2.14.9-2.86-2.14-1.42-2.5-4.1-.36-2.67-.18-5.35.18-2.67 0-4.64-.18-1.96-1.6-1.96 1.42-1.42.89-2.85-.54-1.43-.18-3.92-1.43 0-1.96 1.07-.54 1.07-.89 2.31-.36 1.25-.72 2.32-.35 1.07-1.78 1.07.36 5-1.61 10.35-1.96 5.35-4.45 9.63-4.28 17.83-11.59 35.13-7.32 17.29-15.88 32.99v3.56q-3.21 5-5.7 11.06-2.5 6.06-5.17 11.77-2.68 5.7-6.25 10.52-3.56 4.81-8.91 8.02-1.78-2.49-2.85-4.99t-.36-6.42q-3.92-1.78-5.89-6.24-1.96-4.46-.17-10.52-.72-.71-3.04-.71-2.31 0-3.03.71-1.42-.71-1.42-2.32 0-1.6-.72-2.67-1.78-.72-1.42 1.07.35 1.78-1.43 1.78-1.78-.71-2.32-2.32-.53-1.6-.89-3.39-.36-1.78-1.07-3.39-.71-1.6-2.14-2.31.36-1.07 1.07-1.43.71-.36 1.43-1.07-.72-1.78-2.14-1.25-1.43.54-1.79-1.25 1.43-.35 1.79-.71.35-.36.71 1.43m-24.25-104.15q1.78-1.78-.18-3.03-1.96-1.25-1.96-3.03.71 0 .71-.36 0-.35.71-.35 1.79 0 1.43 1.96-.36 1.96 1.43 1.6 0-1.07-.18-2.67-.18-1.61.53-2.32-1.42-.71-1.78-1.07.36-9.27-3.21-19.08-3.57-9.81-9.63-16.94 0 6.06 1.25 11.95 1.25 5.88 4.81 9.8.36 2.86 1.25 5.89t2.68 4.46q-.72.71-.18 1.78.53 1.07.89 2.14-.71.36-1.6.54-.9.17-.9 1.24.36 1.79.9.18.53-1.6.89-.18-.36 1.07-1.43 1.07-1.07 0-.36 1.79 2.86 7.13 6.6 14.44 3.75 7.31 4.82 14.8 2.49-.35 2.31 1.07-.17 1.43 1.61.72-2.85-6.42-4.64-13.56-1.78-7.13-6.77-12.84m144.8-8.91q.35 6.06 1.07 9.98.71 3.93 2.85 9.99v4.64q1.07-.36.71-1.97-.35-1.6 0-2.67-1.78-9.27-2.31-18.9-.54-9.63-1.61-21.05-2.5-2.49-3.03-6.24-.54-3.74-.71-7.84-.18-4.11-.9-8.03-.71-3.92-3.2-6.77-.36 5.35.53 11.23.89 5.88 1.96 11.95 1.07 6.06 1.78 11.95.72 5.88.36 10.52 2.14.35 1.43 1.42-.72 1.07 1.07 1.79m-169.06-42.44q1.43.71 1.79-1.79.35-2.49-1.43-2.14 0 3.21-.36 3.93m122.69 52.07q1.43 6.77-1.25 11.94-2.67 5.18-3.38 11.95 2.85-.35 2.85-2.67t.71-4.46q1.79-4.99 4.1-9.45 2.32-4.46 4.11-9.1.71-6.42 2.85-11.59t2.5-12.3q-.36-.72-1.43-.72-3.92 6.07-5.53 13.74-1.6 7.66-5.53 12.66m-88.09-18.19q-.36-2.86-3.57-4.64.72 1.43 1.25 3.03.54 1.61 2.32 1.61m-22.47 9.98q1.78 0 2.5-2.49-.72 0-.89-.54-.18-.53-.9-.18.36 1.43-.35 1.79-.72.35-.36 1.42m130.54 5.71q-.72-1.78-.18-3.39.53-1.6-.54-.89-.35 1.07-.71 2.5-.36 1.42 1.43 1.78m16.05.71q-.36-1.42.71-2.85 1.07-1.43-1.43-1.43.36.72 0 2.32-.35 1.61.72 1.96m-143.38.72q1.07-1.07.36-2.5-.72-1.43-1.79-1.78 0 2.85 1.43 4.28m18.55 15.33q8.91 17.12 14.62 36.02 2.5 2.14 4.1 5.35 1.61 3.21 1.25 6.42 1.07 0 1.6.72.54.71 1.07 1.6.54.89 1.07 1.43.54.53 1.25-.18-1.78-5.35-3.74-9.45-1.96-4.1-1.96-10.17-1.79.72-1.79-.89 0-1.6-1.42-1.96-.72-4.99-2.68-9.98-1.96-5-4.28-9.99-2.32-4.99-4.46-9.99-2.14-4.99-2.85-10.34-2.14-1.43-2.5-4.28-.35-2.85-2.49-3.92-.36 2.85.35 5.7.72 2.86 1.43 5.17.71 2.32 1.25 4.64.53 2.32.18 4.1m7.13-15.33q-.36.71-1.07.71-.71 0-.36 1.07 2.86.71 2.14 3.03-.71 2.32 2.14 4.1 0 3.21 1.25 6.6 1.25 3.39 2.85 6.6 1.61 3.21 3.04 6.42 1.42 3.21 1.07 6.78 1.42 0 1.78.71.36 4.28 1.96 8.91 1.61 4.64 3.21 9.63 1.61 5 3.03 9.99 1.43 4.99 1.43 9.63 2.85 2.14 3.92 6.78 1.07 4.63 0 8.56 1.07.71 1.43.35.36-.35 1.07 1.07.36-7.84-.89-15.15-1.25-7.32-3.39-14.45-2.14-7.13-4.64-14.44-2.49-7.32-4.28-14.8-2.85.35-2.85-1.25 0-1.61.71-3.39-2.14-.71-2.49-3.39-.36-2.67-2.14-1.96.71-3.21-.9-6.78-1.6-3.56-4.45-5.35 0-2.85-1.43-7.13-1.43-4.28-3.92-7.13-1.07 2.49 1.78 4.28m114.49 41.72q1.42 0 1.78-1.24.36-1.25.36-2.86 0-1.6-.18-3.21-.18-1.6.53-2.31-2.85-8.21-3.03-17.84-.18-9.63-3.03-17.83-1.43 11.41.36 22.65 1.78 11.23 3.21 22.64m-12.84-31.02q-.36-2.86-.18-5.18.18-2.31.89-6.24h-2.14q.71 2.86-.18 6.42-.89 3.57 1.61 5m-144.81-6.78q2.5 0 2.5-3.92-.71.35-1.6.17-.9-.17-.9.18 1.79.72.72 1.25-1.07.54-.72 2.32m21.76 8.92q.71-2.86-.18-5.89-.89-3.03-2.32-5.17-1.07 2.85.54 5.88 1.6 3.04 1.96 5.18m139.1-8.21q.35.72 0 1.96-.36 1.25.71 1.25 0-1.07.71-3.03.72-1.96 0-.89 0 .71-1.42.71m-161.57 1.79q.71 3.21.36 6.42-.36 3.21 2.49 5.7.36-.71 0-2.85-.35-2.14.36-3.57-.36-.71-1.43-1.07-1.07-.35-1.07-1.42 1.43-.72 1.61-1.97.18-1.24.89-1.96-1.43-.71-1.6.18-.18.89-1.61.54m-13.55 8.2q-.71-1.43.18-3.57.89-2.14-.89-1.42-.72.71-.72 2.85t1.43 2.14m-7.85 70.26q.36-.71 1.07-.71.72 0 1.07-.72 1.79-18.9 5.53-35.84 3.75-16.94 3.03-32.99-.71 2.14-1.07 2.5-.35.35 1.07 2.14-2.14 3.21-2.85 6.95-.71 3.75-1.25 7.85-.53 4.1-1.43 7.66-.89 3.57-2.67 6.07 1.78 2.14.89 6.06-.89 3.92-2.67 6.06 1.78 2.86.35 6.25-1.42 3.38.36 7.31-1.43.71-1.78 2.32-.36 1.6-.18 3.38.18 1.79.53 3.39.36 1.61 0 2.32m45.3-67.05q.71.36 1.07 1.07.35.71 1.42-.36.36-1.78-1.07-1.96-1.42-.18-1.42 1.25m3.21 5.35v-3.21h-2.5q.36.71.71 1.78.36 1.07 1.79 1.43m-25.68 4.99q-1.79-2.49.71-4.99-.71-.36-1.25-.71-.53-.36-1.6 0 .35.71.35 1.96v2.32q0 1.07.36 1.6.36.54 1.43-.18m-3.93 11.06q1.07 2.14.9 4.46-.18 2.31-1.07 4.81-.9 2.5-1.43 4.99-.54 2.5.18 5 1.78-.36 2.32-3.39.53-3.03-.9-3.75 1.79-2.14 2.14-4.1.36-1.96.36-4.1 0-2.14.18-4.46.18-2.31 1.25-5.17-1.07 0-1.25-1.07-.18-1.07-1.61-.35-.71.35-.35 1.42.35 1.07.53 2.32.18 1.25 0 2.32-.18 1.07-1.25 1.07m94.52 43.15q4.99-10.34 9.09-21.57 4.1-11.24 5.89-23.01-4.64 10.34-8.74 22.11-4.1 11.77-6.24 22.47m34.95-40.66q.71-.71 1.25-1.6.53-.89-1.25-1.61-.71.72-1.07 1.97-.36 1.24 1.07 1.24m-132.68 29.61q.36-1.43 1.25-5.17.89-3.75-.89-4.82.36 1.78 0 3.21t-.89 2.68q-.54 1.24-.54 2.31t1.07 1.79m63.85 20.68q1.78-.35 1.96-1.42.18-1.07-.54-2.68-.71-1.6-1.42-3.21-.72-1.6-.72-3.03h-2.49q-.36 3.57 1.96 5.53 2.32 1.96 1.25 4.81m42.79-3.92q1.07-.71 1.79-1.43.71-.71 2.14-1.78-2.14-.71-2.86.53-.71 1.25-1.07 2.68m-119.12 28.53q1.43.36 1.43.89 0 .54-.36 1.25-.35.72-.71 1.43t.36 1.43q2.85-1.79 3.21-5.53.35-3.75 1.42-7.31 1.79-6.07 3.93-11.95 2.13-5.89.35-9.81-3.92 6.78-4.81 14.62-.89 7.85-4.82 14.98m94.16-14.98q1.43-.35 1.6-3.03.18-2.67-.53-3.39 0 1.79-.54 3.21-.53 1.43-.53 3.21m7.13-5.35q-.36 1.43.36 1.61.71.18.35 1.96 1.79.36 2.14-1.43.36-1.78-.35-2.49-1.79 0-2.5.35m-109.49 11.06q-.71-1.78-.18-3.57.54-1.78-.89-3.21-.36 1.79-.54 3.93-.17 2.14 1.61 2.85m-6.42 23.89q-.36-4.99.18-8.91.53-3.92-2.32-8.56 0 6.06.71 10.52.72 4.46 1.43 6.95m120.19-4.63q1.78-.36 1.61 1.07-.18 1.42-.18 2.49.35-1.07 1.96-3.21 1.6-2.14 2.85-4.27 1.25-2.14 1.79-4.28.53-2.14-.9-3.21-2.14 2.49-3.74 5.35-1.61 2.85-3.39 6.06m-8.2-1.07q.35-1.78 1.6-1.96 1.25-.18 1.61-1.96-1.43-3.21-3.21-4.28-.71 1.07-.18 4.1.53 3.03.18 4.1m-5.35-2.85q-.36-1.07.89-2.86 1.25-1.78-1.25-1.78-.71.71-.53 2.32.18 1.6.89 2.32m-102.72 2.85q1.43-1.78 2.5-4.64h-2.5q0 1.07-.71 2.5-.71 1.42.71 2.14m112.7 5.35q-1.07 1.78-2.85 2.85t-1.07 4.64q-.71.35-1.25.71-.53.36-1.6 0 1.07 1.78.36 3.75-.72 1.96 1.78 2.67 1.07-1.07 2.85-3.21 1.78-2.14 3.03-4.28 1.25-2.14 1.25-4.1 0-1.96-2.5-3.03m-109.49 4.28q-.71 2.49-2.49 3.21-1.79.71-3.93 1.42 1.07 2.5 3.93 4.28.35-2.14 1.96-5.52 1.6-3.39.53-3.39m-6.42 19.97q1.79 0 1.96-1.78.18-1.79 1.25-2.86-2.14.72-2.49-.71-.36-1.43-2.14-1.43 0 2.5.53 3.75.54 1.25.89 3.03m-.71-8.2q-1.07-.36-1.43-1.61-.35-1.25-.53-2.67-.18-1.43-.54-2.5-.35-1.07-1.78-1.07 1.07 5.35 2.85 10.7 0-1.07.54-1.6.53-.54.89-1.25z" xmlns:name="main_text" fill="#52eac8"/><path d="M122.27 0l-8.137 12.928c3.187-.49 7.2-1.245 11.475-2.081.464-.783.885-1.5 1.115-1.884.196-.328.356-.564.544-.872L122.27 0zm8.025 12.994c-1.102.223-1.786.334-2.794.534-.098.165-.309.53-.356.61-3.568 5.945-6.56 12.174-9.16 18.815 5.4-2.683 10.869-5.858 16.829-9.74.24-.157.957-.65 1.265-.854-2.22-3.598-3.786-6.132-5.784-9.365zm-6.675 1.284c-4.23.804-8.285 1.54-11.597 1.997-2.79 4.432-3.624 5.763-6.469 10.284a49.106 49.106 0 0 0 2.213 2.597c1.838 2.016 3.697 4 5.56 5.982.255-.114.512-.213.768-.329 2.672-7.3 5.822-14.114 9.525-20.531zm14.034 10.631c-.292.193-.97.666-1.2.816-7.113 4.634-13.558 8.331-20.015 11.344-.118.331-.222.678-.338 1.012 1.92 2.013 3.852 4 5.784 5.963a1190.99 1190.99 0 0 0 15.9-5.006 519.222 519.222 0 0 1 3.994-7.463c-1.394-2.25-2.832-4.57-4.125-6.666zm-33.74 4.266l-7.51 11.934a112.065 112.065 0 0 0 13.997-4.715c-1.623-1.735-3.251-3.462-4.856-5.222-.4-.44-1.057-1.29-1.631-1.997zm39.694 5.344c-.55 1.017-1.239 2.26-1.744 3.206 1.094-.357 1.967-.63 3.103-1.003-.465-.752-.894-1.452-1.36-2.203zm-31.004 4.237a115.784 115.784 0 0 1-17.287 5.766c-.432.108-.885.267-1.313.403l-.046.075c.293 1.948.68 4.35 1.096 6.778 1.611-.398 3.055-.786 5.804-1.556l1.79-.506c2.481-.69 4.928-1.41 7.378-2.12.246-.892.465-1.818.722-2.7.604-2.066 1.281-4.046 1.95-6.037-.032-.033-.062-.07-.094-.103zm33.985.582c-2.46.808-4.408 1.418-6.685 2.156-2.756 5.287-4.828 9.587-6.619 13.734.166.157.332.311.498.469a202.628 202.628 0 0 1 14.85-13.06c-.727-1.175-1.321-2.13-2.044-3.3zm-31.566 1.93c-.565 1.757-1.11 3.54-1.631 5.363 1.68-.494 3.522-1.073 5.268-1.603a523.206 523.206 0 0 1-3.637-3.76zm20.803 1.538a1254.81 1254.81 0 0 1-11.55 3.647 487 487 0 0 0 6.675 6.572 200.962 200.962 0 0 1 4.51-9.525c.115-.23.25-.468.365-.694zm14.4 2.4a199.753 199.753 0 0 0-14.26 12.553c.67.635 1.34 1.288 2.007 1.904 1.977 1.824 7.358 6.364 7.36 6.365.79.661 1.182 1.004 1.837 1.556 1.771-2.15 3.369-4.087 3.919-4.762-.347.425 2.883-3.756 5.606-7.181-2.272-3.667-4.11-6.622-6.469-10.435zm-29.212 2.232c-2.889.883-5.768 1.766-8.485 2.559-2.09 7.87-3.829 16.408-5.306 25.875a117.29 117.29 0 0 1 6.197 2.39c4.466-5.636 9.083-11.016 13.884-16.068.08-.223.144-.443.225-.666.665-1.826 1.4-3.68 2.175-5.55a488.086 488.086 0 0 1-8.69-8.54zM91.51 48.89l-2.587 4.115c1.001-.15 2.122-.415 3.187-.628-.185-1.08-.444-2.536-.6-3.487zm17.607 2.09c-1.88.539-3.758 1.101-5.663 1.632l-1.781.496c-2.872.805-4.388 1.21-6.103 1.632.287 1.628.482 2.798.853 4.847 1.132 6.257 1.569 8.722 2.11 12.037.062.382.12 1.128.177 1.566 1.94.557 3.804 1.147 5.616 1.743 1.372-8.775 2.918-16.627 4.79-23.953zm-16.482 4.39c-2.04.415-3.977.752-5.775.919-1.196 1.902-2.486 3.948-4.106 6.525.292 1.738.357 3.643.225 5.83-.018.299-.053.606-.075.891.938.042 1.802.112 2.475.263a248.23 248.23 0 0 1 10.219 2.53c-.008-.053-.02-.17-.028-.224-.537-3.291-.971-5.742-2.1-11.981-.363-2.006-.551-3.148-.835-4.753zm65.738 2.972c-2.554 3.235-5.246 6.727-4.96 6.375-.556.683-2.175 2.638-3.965 4.809 1.933 1.664 3.536 3.092 5.053 4.566a39.462 39.462 0 0 1 2.353 2.512c.04-.043.142-.165.179-.206a421 421 0 0 1 3.525-3.872 289.377 289.377 0 0 1 4.002-4.247c-2.09-3.357-3.832-6.141-6.187-9.937zm-24.572 1.509a216.919 216.919 0 0 0-3.872 3.975c-2.372 6.757-3.993 13.4-4.884 20.175 1.153.66 2.303 1.386 3.45 2.1 1.142-.004 2.302-.004 3.619-.01a769.881 769.881 0 0 1 10.959-13.527l2.185-2.654c-.686-.585-1.847-1.584-1.848-1.584-3.779-3.161-5.447-4.59-7.471-6.46-.71-.654-1.425-1.338-2.138-2.015zm-53.756 7.266c-.545.867-.935 1.49-1.585 2.522a51.9 51.9 0 0 1 1.407-.075c.075-.854.158-1.742.178-2.447zm45.084 1.893c-3.034 3.381-5.98 6.92-8.878 10.538a104.26 104.26 0 0 1 5.963 2.934 101.135 101.135 0 0 1 2.915-13.472zm41.072 1.904c-1.124 1.18-2.225 2.327-3.44 3.646a429.202 429.202 0 0 0-3.497 3.844c-.097.108-.37.421-.479.544.222.274.382.46.62.76l1.518 1.92a96.513 96.513 0 0 0 3.647 4.38c5.339-.006 11.35-.013 11.269.027-.125.063-4.376-6.69-9.638-15.121zm-18.684.956c-.757.917-2.02 2.455-2.138 2.597a838.564 838.564 0 0 0-9.44 11.615l12.6-.047c2.692-3.073 4.348-4.943 6.309-7.162a38.966 38.966 0 0 0-2.438-2.634c-1.077-1.047-3.082-2.796-4.893-4.37zm-64.922.647a198.841 198.841 0 0 1-.506 3.73c-.307 2.131-.458 3.26-.6 4.529-.219 1.945-.338 3.622-.338 5.194 0 .1.018.182.019.281 3.875.007 10.112-.017 15.863-.037-.027-.225-.06-.4-.085-.629a200.34 200.34 0 0 1-.413-4.125c-.069-.763-.291-3.386-.337-3.89-.086-.948-.158-1.298-.234-2.016a237.829 237.829 0 0 0-11.241-2.822c-.557-.125-1.307-.183-2.128-.215zm-3.056.075c-.985.05-1.971.102-3.075.215-3.708 5.889-8.345 13.253-8.353 13.285-.024.092 4.285.129 10.059.15-.001-.095-.019-.176-.019-.272 0-1.696.126-3.484.357-5.531.146-1.31.298-2.453.609-4.613.182-1.264.294-2.21.422-3.234zm19.537 3.825c.035.365.066.47.103.88.046.51.278 3.134.347 3.892.142 1.558.266 2.839.403 4.068.039.345.092.613.131.947l3.048-.01a53.18 53.18 0 0 1 .562-7.04c.06-.417.126-.797.188-1.21a144.587 144.587 0 0 0-4.782-1.527zm7.669 2.493c-.033.227-.07.438-.103.666-.333 2.306-.52 4.517-.544 6.61.422-.002.838 0 1.256 0a268.41 268.41 0 0 1 4.125-5.457 114.97 114.97 0 0 0-4.734-1.819zm50.034 2.316c-1.356 1.537-2.443 2.764-4.228 4.8 2.618-.009 5.895-.023 8.063-.028-.641-.777-1.232-1.483-2.044-2.513-.172-.217-1.287-1.632-1.51-1.912-.108-.137-.176-.216-.28-.347zm-42.431.75c-1.09 1.397-2.202 2.757-3.272 4.19l10.669-.037c.016-.154.04-.306.056-.46a101.079 101.079 0 0 0-7.453-3.693z" xmlns:name="symbol_mainfill" fill="#52eac8"/></svg>