<svg xmlns="http://www.w3.org/2000/svg" height="128.391" width="257.62"><path d="M17.66 128.39H0V99.68h16.52v8.9h-5.86v-4.19h-4.8v19.29h6.57l5.23 4.71zm18.24 0H19.38V99.68H35.9v28.71m-5.86-4.67v-19.33h-4.81v19.33h4.81zm24.76 4.67H38.28V99.68h5.85v24.04h4.81v-4.19h5.86v8.86zm18.47 0H56.75V99.68h5.86v24.04h4.81v-4.19h5.85v8.86zm18.48 0h-8.34l-5.28-4.71h7.76v-18.9l-5 18.18h-4.38l4.24 4.05v1.38h-5.53v-6.52l4.77-17.48h-3.62v-4.71h15.38v28.71zm29.28 0h-6.19v-24h-5.67l-3.9-4.71h15.76v28.71m-10.67 0h-5.9v-24h-5.62l-3.91-4.71h9.53l5.85 7.29.05 21.42m-10.38 0h-5.85V99.68l5.85 7.29v21.42zm37.19 0h-13.76V99.68h5.85v24.04h7.91v4.67zm16.33 0h-13.95v-4.71h4.04v-19.29h-4.04v-4.71h13.95v4.71h-4.05v19.29h4.05v4.71zm29.28 0h-6.19v-24h-5.67l-3.9-4.71h15.76v28.71m-10.67 0h-5.9v-24h-5.62l-3.9-4.71h9.52l5.85 7.29.05 21.42m-10.38 0h-5.85V99.68l5.85 7.29v21.42zm37.38 0h-13.95v-4.71h4.04v-19.29h-4.04v-4.71h13.95v4.71h-4.05v19.29h4.05v4.71zm20.71-24h-6.24v24h-5.86v-24h-6.23v-4.71h18.33v4.71zm19.66 24h-17.66l-.05-28.71h17.28l-5.24 4.71h-6.19v7.29h7.86l-5.24 4.71h-2.62v7.29h6.62l5.24 4.71zm18.14 0H241.1V99.68l5.85 7.29v17.04h4.53l.05-12.66-9.62-11.67h7.14l8.57 11.24v17.47z" xmlns:name="main_text" fill="#fff"/><g xmlns:name="symbol_mainfill" fill="#fff"><path d="M177.051 81.606L130.501.978a1.959 1.959 0 0 0-3.39 0l-46.63 80.766a1.958 1.958 0 0 0 1.693 2.936h93.27a1.957 1.957 0 0 0 1.607-3.074zm-91.488-.837L128.808 5.87l43.243 74.898H85.563z"/><path d="M127.112 15.066L92.68 74.7a1.958 1.958 0 0 0 1.695 2.936h68.871a1.957 1.957 0 0 0 1.607-3.075l-34.351-59.496a1.959 1.959 0 0 0-3.39 0zm32.738 58.657H97.764l31.044-53.766 31.042 53.766z"/><path d="M127.112 29.153l-22.23 38.504a1.956 1.956 0 0 0 1.693 2.936h44.47a1.957 1.957 0 0 0 1.607-3.075l-22.15-38.365a1.959 1.959 0 0 0-3.39 0zm20.536 37.527h-37.683l18.841-32.635 18.842 32.635z"/><path d="M127.112 43.241l-10.03 17.373a1.954 1.954 0 0 0 1.694 2.934h20.06c.7 0 1.346-.374 1.696-.978a1.964 1.964 0 0 0 0-1.956l-10.03-17.373a1.959 1.959 0 0 0-3.39 0z"/></g></svg>