<svg xmlns="http://www.w3.org/2000/svg" height="140.597" width="259.31"><path d="M16.21 132.667v7.24h-5v-7.24L0 115.767h5.52l8.1 12.24h.17l8.11-12.24h5.51l-11.2 16.9zm18.62 7.24H30v-17.59h4.83v17.59m.17-22.24q0 1.03-.71 1.81-.7.77-1.88.77-1.17 0-1.88-.77-.7-.78-.7-1.81 0-1.04.7-1.81.71-.78 1.88-.78 1.14 0 1.87.78.72.77.72 1.81zm9.66 22.24h-4.83v-24.14h4.83v24.14zm6.37-15.52h-3.27v-2.41h3.27v-5.52h4.83v5.52h5.35v2.41h-5.35v8.97q0 1.31.3 2.22.29.92.79 1.49.5.56 1.15.84.66.28 1.38.28 1.04 0 2-.33.97-.33 1.62-.71l1.04 2.24q-1.04.52-2.36.86-1.33.35-2.64.35-3.9 0-6-1.93-2.11-1.93-2.11-5.31v-8.97zm19.83 9.83q0 3.28 3.97 3.28h4.83v-6.56h-4.83q-3.97 0-3.97 3.28m8.8-5.69q0-2.48-1.3-3.65-1.29-1.18-3.36-1.18-1.55 0-3.03.47-1.49.46-2.66 1.26l-1.21-2.07q.76-.52 1.68-.9.91-.38 1.88-.64.96-.25 1.91-.39t1.77-.14q2.21 0 3.9.52 1.69.51 2.86 1.48 1.18.96 1.78 2.29.6 1.33.6 2.95v11.38h-9.65q-4.69 0-6.92-1.41-2.22-1.42-2.22-4.28 0-2.86 2.22-4.28 2.23-1.41 6.92-1.41h4.83zm23.44 8.97v-13.11h-4.31q-1.17 0-2.15.36-.98.37-1.69 1.16-.71.79-1.11 2.03-.39 1.25-.39 3 0 1.76.39 3 .4 1.25 1.11 2.04.71.79 1.69 1.15.98.37 2.15.37h4.31m-4.31 2.41q-2.38 0-4.32-.62-1.95-.62-3.33-1.79-1.38-1.18-2.12-2.83-.74-1.66-.74-3.73 0-2.06.74-3.72.74-1.65 2.12-2.83 1.38-1.17 3.33-1.79 1.94-.62 4.32-.62h4.31v-6.21h4.83v24.14h-9.14zm45.87-2.59v2.59h-19.83v-24.14h5v21.55h14.83zm8.1 2.59h-4.83v-17.59h4.83v17.59m.17-22.24q0 1.03-.71 1.81-.7.77-1.88.77-1.17 0-1.87-.77-.71-.78-.71-1.81 0-1.04.71-1.81.7-.78 1.87-.78 1.14 0 1.87.78.72.77.72 1.81zm4.83 4.31h17.93q4.93 0 7.29 1.77 2.36 1.78 2.36 5.3v10.86h-4.82v-10.86q0-2.48-1.24-3.57-1.25-1.09-3.59-1.09h-1.72v15.52h-4.83v-15.52h-6.55v15.52h-4.83v-17.93zm37.24 17.93h-4.83v-17.59H195v17.59m.17-22.24q0 1.03-.7 1.81-.71.77-1.88.77-1.18 0-1.88-.77-.71-.78-.71-1.81 0-1.04.71-1.81.7-.78 1.88-.78 1.13 0 1.86.78.72.77.72 1.81zm6.38 6.72h-3.27v-2.41h3.27v-5.52h4.83v5.52h5.34v2.41h-5.34v8.97q0 1.31.29 2.22.3.92.8 1.49.5.56 1.15.84.66.28 1.38.28 1.03 0 2-.33t1.62-.71l1.04 2.24q-1.04.52-2.37.86-1.32.35-2.63.35-3.9 0-6-1.93-2.11-1.93-2.11-5.31v-8.97zm26.21 13.8q1.69 0 3.15-.59 1.47-.59 2.88-1.66l1.38 2.07q-.65.59-1.53 1.07-.88.49-1.9.81-1.02.33-2.12.52t-2.21.19q-2.44 0-4.46-.64t-3.43-1.86q-1.42-1.22-2.19-3.02-.78-1.79-.78-4.14 0-2.31.74-4.12t2.07-3.03q1.33-1.22 3.16-1.86 1.82-.64 4.03-.64 2.07 0 3.9.62t3.17 1.81q1.35 1.19 2.14 2.88t.79 3.83v2.41h-14.72q.41 2.86 1.98 4.1 1.57 1.25 3.95 1.25m-1.21-14.66q-1 0-1.86.38-.86.38-1.5 1.21-.64.82-1.03 2.13-.4 1.32-.44 3.18h9.66q0-1.8-.41-3.11-.42-1.31-1.09-2.15-.67-.85-1.55-1.24-.88-.4-1.78-.4zm27.93 13.97v-13.11h-4.31q-1.17 0-2.15.36-.99.37-1.69 1.16-.71.79-1.11 2.03-.39 1.25-.39 3 0 1.76.39 3 .4 1.25 1.11 2.04.7.79 1.69 1.15.98.37 2.15.37h4.31m-4.31 2.41q-2.38 0-4.33-.62-1.94-.62-3.32-1.79-1.38-1.18-2.12-2.83-.74-1.66-.74-3.73 0-2.06.74-3.72.74-1.65 2.12-2.83 1.38-1.17 3.32-1.79 1.95-.62 4.33-.62h4.31v-6.21h4.83v24.14h-9.14z" xmlns:name="main_text" fill="#fff"/><g xmlns:name="symbol_mainfill" fill="#fff"><path d="M186.667 96.443L131.654 1.156a2.315 2.315 0 0 0-4.007 0l-55.11 95.45a2.314 2.314 0 0 0 2.003 3.47h110.22c.004.002.008 0 .008 0a2.313 2.313 0 0 0 1.9-3.633zm-108.122-.99l51.107-88.515 51.106 88.516H78.545z"/><path d="M127.649 17.805L86.956 88.283a2.314 2.314 0 0 0 2.003 3.47h81.394a2.312 2.312 0 0 0 1.899-3.634l-40.598-70.314a2.315 2.315 0 0 0-4.005 0zm38.69 69.322H92.964l36.687-63.541 36.686 63.541z"/><path d="M127.649 34.454l-26.273 45.504a2.311 2.311 0 0 0 2.002 3.47h52.555a2.312 2.312 0 0 0 1.9-3.634l-26.179-45.34a2.315 2.315 0 0 0-4.005 0zm24.27 44.35h-44.536l22.268-38.569 22.267 38.568z"/><path d="M127.649 51.103l-11.855 20.532a2.309 2.309 0 0 0 2.002 3.467h23.708a2.32 2.32 0 0 0 2.005-1.155c.41-.715.41-1.598 0-2.312l-11.855-20.532a2.315 2.315 0 0 0-4.005 0z"/></g></svg>