<svg xmlns="http://www.w3.org/2000/svg" viewBox="0 0 512 512"><path fill="#a4c2f7" d="M448 128L328.533 8.533h-93.866v494.934H448z"/><path fill="#fff" d="M277.333 128L157.867 8.533H64v494.934h213.333z"/><linearGradient id="a" gradientUnits="userSpaceOnUse" x1="-49.051" y1="652.586" x2="-47.808" y2="651.749" gradientTransform="matrix(332.8 0 0 -494.9333 16347.798 323061.031)"><stop offset="0" stop-color="#d4e1f4"/><stop offset=".172" stop-color="#d4e1f4"/><stop offset=".2" stop-color="#d4e1f4"/><stop offset=".2" stop-color="#dae4f4"/><stop offset=".201" stop-color="#ebebf4"/><stop offset=".201" stop-color="#f6f1f4"/><stop offset=".202" stop-color="#fdf4f4"/><stop offset=".205" stop-color="#fff5f4"/><stop offset=".252" stop-color="#fff5f4"/><stop offset=".26" stop-color="#fff5f4"/><stop offset=".26" stop-color="#d4e1f4"/><stop offset=".397" stop-color="#d4e1f4"/><stop offset=".42" stop-color="#d4e1f4"/><stop offset=".42" stop-color="#dae4f4"/><stop offset=".421" stop-color="#ebebf4"/><stop offset=".421" stop-color="#f6f1f4"/><stop offset=".422" stop-color="#fdf4f4"/><stop offset=".425" stop-color="#fff5f4"/><stop offset=".489" stop-color="#fff5f4"/><stop offset=".5" stop-color="#fff5f4"/><stop offset=".5" stop-color="#f9f2f4"/><stop offset=".5" stop-color="#e8ebf4"/><stop offset=".5" stop-color="#dde5f4"/><stop offset=".5" stop-color="#d6e2f4"/><stop offset=".501" stop-color="#d4e1f4"/><stop offset=".706" stop-color="#d4e1f4"/><stop offset=".74" stop-color="#d4e1f4"/><stop offset=".741" stop-color="#fff5f4"/><stop offset=".835" stop-color="#fff5f4"/><stop offset=".85" stop-color="#fff5f4"/><stop offset=".851" stop-color="#d4e1f4"/></linearGradient><path fill="url(#a)" d="M422.4 128L320 8.533H89.6v494.934h332.8z"/><path fill="#a4c2f7" d="M328.533 8.533V128H448z"/><g fill="#428dff"><path d="M448 512H64a8.53 8.53 0 0 1-8.534-8.534V8.533A8.53 8.53 0 0 1 64 0h264.533c2.263.001 4.433.9 6.033 2.5l119.467 119.467a8.529 8.529 0 0 1 2.5 6.033v375.467A8.53 8.53 0 0 1 448 512zM72.533 494.933h366.933v-363.4L325 17.067H72.533v477.866z"/><path d="M448 136.533H328.533a8.53 8.53 0 0 1-8.534-8.534V8.533a8.534 8.534 0 0 1 17.067 0v110.933H448a8.533 8.533 0 0 1 8.533 8.533 8.533 8.533 0 0 1-8.533 8.534zm-230.4 8.534h-76.8a8.534 8.534 0 0 1 0-17.067h76.8a8.534 8.534 0 0 1 0 17.067zM285.867 332.8H140.8c-4.713 0-8.533-3.82-8.533-8.533s3.82-8.533 8.533-8.533h145.067a8.533 8.533 0 0 1 0 17.066zm85.333-59.733h-59.733c-4.713 0-8.533-3.82-8.533-8.533s3.82-8.533 8.533-8.533H371.2a8.533 8.533 0 0 1 0 17.066zm-187.733-59.734H140.8a8.533 8.533 0 0 1 0-17.066h42.667a8.533 8.533 0 0 1 0 17.066zm145.066 0H268.8a8.533 8.533 0 0 1 0-17.066h59.733a8.533 8.533 0 0 1 8.533 8.533 8.532 8.532 0 0 1-8.533 8.533zm-102.4 0a8.528 8.528 0 0 1-3.246-.683 9.842 9.842 0 0 1-2.813-1.792 8.443 8.443 0 0 1-2.475-6.058 7.184 7.184 0 0 1 .679-3.242 9.783 9.783 0 0 1 1.796-2.817 8.533 8.533 0 0 1 14.592 6.059 8.46 8.46 0 0 1-2.475 6.059 9.862 9.862 0 0 1-2.817 1.792 8.513 8.513 0 0 1-3.241.682zm42.667 59.734h-85.333c-4.713 0-8.533-3.82-8.533-8.533s3.82-8.533 8.533-8.533H268.8a8.533 8.533 0 0 1 0 17.066zm-128 0a7.218 7.218 0 0 1-3.246-.683 8.578 8.578 0 0 1-2.813-1.875 10.426 10.426 0 0 1-1.879-2.733 8.421 8.421 0 0 1-.595-3.242 8.945 8.945 0 0 1 2.475-6.059 9.842 9.842 0 0 1 2.813-1.792 8.55 8.55 0 0 1 9.304 1.792 9.862 9.862 0 0 1 1.792 2.817 7.132 7.132 0 0 1 .683 3.242 8.367 8.367 0 0 1-.6 3.242 10.477 10.477 0 0 1-1.875 2.733 8.217 8.217 0 0 1-6.059 2.558zm230.4 119.466h-59.733c-4.713 0-8.533-3.82-8.533-8.533s3.82-8.533 8.533-8.533H371.2a8.533 8.533 0 0 1 0 17.066zm-102.4 0h-85.333c-4.713 0-8.533-3.82-8.533-8.533s3.82-8.533 8.533-8.533H268.8a8.533 8.533 0 0 1 0 17.066zm-128 0a8.216 8.216 0 0 1-6.059-2.558 8.325 8.325 0 0 1-1.796-9.217 9.783 9.783 0 0 1 1.796-2.817 8.59 8.59 0 0 1 7.679-2.308 5.03 5.03 0 0 1 1.621.517 6.302 6.302 0 0 1 1.538.767c.446.317.873.659 1.28 1.025a9.862 9.862 0 0 1 1.792 2.817 8.565 8.565 0 0 1-1.792 9.217 8.215 8.215 0 0 1-6.059 2.557zm230.4-179.2a8.528 8.528 0 0 1-3.246-.683 9.842 9.842 0 0 1-2.813-1.792 8.458 8.458 0 0 1-1.796-9.3 9.797 9.797 0 0 1 1.796-2.817c.405-.368.832-.71 1.279-1.025a6.34 6.34 0 0 1 1.533-.767 5.053 5.053 0 0 1 1.625-.517 7.239 7.239 0 0 1 3.325 0 5.32 5.32 0 0 1 1.537.517 6.302 6.302 0 0 1 1.538.767c.446.317.873.659 1.28 1.025a8.964 8.964 0 0 1 2.475 6.059 8.46 8.46 0 0 1-2.475 6.059 8.823 8.823 0 0 1-2.817 1.792 8.517 8.517 0 0 1-3.241.682zM328.533 332.8a8.528 8.528 0 0 1-3.246-.683 8.77 8.77 0 0 1-2.813-1.792 8.458 8.458 0 0 1-1.796-9.3 9.797 9.797 0 0 1 1.796-2.817c.405-.368.832-.71 1.279-1.025a6.34 6.34 0 0 1 1.533-.767 5.053 5.053 0 0 1 1.625-.517 7.946 7.946 0 0 1 4.862.517 7.69 7.69 0 0 1 4.608 4.608 8.44 8.44 0 0 1-1.791 9.301 9.862 9.862 0 0 1-2.817 1.792 8.486 8.486 0 0 1-3.24.683zm42.667 0a8.451 8.451 0 0 1-7.854-11.775 8.7 8.7 0 0 1 1.796-2.817 8.823 8.823 0 0 1 12.117 0 8.76 8.76 0 0 1 1.792 2.817 8.442 8.442 0 0 1-1.791 9.301 9.862 9.862 0 0 1-2.817 1.792 8.535 8.535 0 0 1-3.243.682z"/></g></svg>