<svg xmlns="http://www.w3.org/2000/svg" version="1.1" xmlns:xlink="http://www.w3.org/1999/xlink" xmlns:svgjs="http://svgjs.com/svgjs" height="219.06999130249022" width="219.83002319335935"><defs id="SvgjsDefs1689"></defs><g id="SvgjsG1690" rel="mainfill" name="main_text" xmlns:name="main_text" transform="translate(34.91501350402831,-53.01499977111817)" fill="#303030"><path d="M75.11 187.40C79.79 187.40 82.91 184.06 85.36 179.38L112.33 127.89C114.12 124.55 116.12 119.42 118.13 114.29L118.13 233.76C118.13 240.22 122.59 242.01 127.27 242.01C131.95 242.01 135.51 240.22 135.51 233.54L135.51 91.56C135.51 85.54 131.28 83.09 125.93 83.09C119.47 83.09 116.57 85.77 113.45 91.56L75.11 165.56L36.55 91.56C33.43 85.77 30.53 83.09 24.07 83.09C18.72 83.09 14.49 85.54 14.49 91.56L14.49 233.54C14.49 240.22 18.05 242.01 22.73 242.01C27.41 242.01 31.87 240.22 31.87 233.76L31.87 114.29C33.88 119.42 35.88 124.55 37.67 127.89L64.64 179.38C67.09 184.06 70.21 187.40 75.11 187.40Z" fill="#51AF8A"></path></g><g id="SvgjsG1691" transform="translate(0,0) scale(1.9)" rel="mainfill" name="outline_container" xmlns:name="outlineContainer_mainfill" fill="#303030"><path d="M114.5 62.9l-1.2-1.5-2.5-3.1 3.6-4 1.2-1.4-1.5-1.3-1.5-1.2c-1.5-1.2-3.1-2.5-4.3-3.6a73.6 73.6 0 0 0-7.9-6.2c-3.8-2.8-7-4.6-10.9-7.3l-1.3-.9c-1.6-2.6-3.3-5.4-5.4-8.4s-6.2-8-9.4-12l-1.2-1.4L66 3.9l-1.8-2L62.6 0l-1.8 1.6-3.6 3.2-2.1-1.5-2.2-1.7-2-1.5L49.5 2C45.1 7.8 40.8 13.7 36 19.4L34 22l-6.6 8.5c-2.6 2.3-5 4.5-7.2 6.7A155.5 155.5 0 0 1 5.3 50L.9 53.1l-.9.6.7 1.1L2 56.7l2.6 3.4-.2.2c-1.1 1.5-2.3 2.7-3.6 4l-.7.7.9 1 1.7 1.6 6.6 5.7.3.3a81.9 81.9 0 0 0 6.8 5.7l3.7 2.9c3.2 2.8 6.4 5 9.5 7.2l1.7 1.2 1.1 1.1a26.1 26.1 0 0 1 2.1 2.3 84 84 0 0 1 5.2 7.4l1.9 3c2.3 3.5 5.2 6.3 7.8 9.2a5.6 5.6 0 0 0 1.9 1.5l1-.2c.2.2.8.1 1.7-.3a32.7 32.7 0 0 0 4-1.9l2.1 1.5a5.6 5.6 0 0 0 2.1 1.1l1-.4c.2.1.8-.1 1.6-.6a36.1 36.1 0 0 0 8.9-8.4c1.9-1.5 3.6-3.9 5.4-6.3l4.7-5.7 1.3-1.9 1.4-2.1 2.2-3a24.4 24.4 0 0 0 3.3-3.5l.9-.9c4.2-3.7 8.2-7.3 12.8-10.7 2.8-2 5.5-3.9 8.5-6.2l1.5-1.1zm-3.3-9.5l-2.1 2.7a82.8 82.8 0 0 0-5.9-6.7c-3.2-3.4-6-5.8-9.2-9.3l5 3.9c4 3.3 8.1 6.3 12.1 9.4zm-23 27.7L84 86.2l-.6.5-12.2 9.9-4.6 3.8c-1.4 1.1-2.9 2.5-4.3 3.7l-4 3.6-2.6-2.3a58.3 58.3 0 0 1-5-4.7l-1.3-1a85.8 85.8 0 0 1-8.7-6.9l-2.2-1.7-3.3-2.5-3.3-2.6-2-2.3-4.3-5c-3.2-3.8-6.7-7.4-9.5-11.5-1.5-1.4-2.4-3.4-4-4.8a21.4 21.4 0 0 1-1.5-1.8l-.8-.9c3.3-4.2 6.6-8.5 10-12.6l7.9-10 2.8-3.6 2.1-1.8c4-3.4 7.9-7 12.1-10.2 1-.8 2.1-1.8 3.2-2.7s3.1-2.9 4.6-4l4.9-3.9 3.5 2.7c5.4 4.3 10.8 8.5 16.1 13l1.9 1.4a29.1 29.1 0 0 1 3.7 2.7l.2.2a16.7 16.7 0 0 0 1.8 1.9 39.8 39.8 0 0 1 3.7 4.2c1.8 2.1 2.9 3.8 4.5 5.8s5.6 6.4 8.3 9.6l5.7 6.6a28.8 28.8 0 0 1-3.3 4.1l-1 1.4c-.7 1-1.5 2-2.2 2.9l-8.5 9.9c-1.2 1.3-2.4 2.4-3.6 3.8zM62.1 6.6l5.7 6.4-3.9-3.2-1.4-1.1-1.6-1.1zm-10.3.1L53.6 8c-2.9 2.5-5.8 5-8.8 7.5 2.5-2.9 4.7-5.9 7-8.9zM5.6 54.5l1.3-.9 1.4-1.2 7.9-6.8c-2.7 3.9-5.6 7.6-8.6 11.3zm.1 10.2l1.1-1.2.3-.4.4.5.3.4a82.2 82.2 0 0 0 5.5 6.9h.1l-1.6-1.3zm48.6 47l-1.6 1.8c-.4-1.9-3.2-5.7-6-9.3a60.4 60.4 0 0 1-3.8-5.4 65.2 65.2 0 0 1 5.4 5.1l2.5 2.5a39.4 39.4 0 0 0 4.7 4.1zm10.3-.4a17.3 17.3 0 0 0-1.2 2.1 12.7 12.7 0 0 0-2.3-2.9l3.3-2.6a32.8 32.8 0 0 0 5.5-4.2c-1.9 2.6-3.8 5.3-5.3 7.6zM101.9 72l-1.2 1.2-2.7 2.4-2.6 2.1.8-1.5.8-1.1c3.4-4.4 6.6-8.7 10.5-13l1.2-1.2 2.8 3.1-4.1 3.6a50 50 0 0 1-5.5 4.4z" fill="#303030"></path></g></svg>