<svg xmlns="http://www.w3.org/2000/svg" height="271.444" width="277.174"><path d="M51.417 135.877q0-2.66.67-5 .66-2.34 2.27-4.08 1.6-1.74 4.33-2.76 2.74-1.01 6.88-1.01h1.41q2.66 0 5.16.33t4.92.95v6.37q-1.37-.39-2.75-.66-1.39-.27-2.74-.45-1.35-.17-2.58-.25-1.23-.08-2.21-.08-3.05 0-4.71.57-1.66.56-2.42 1.58-.76 1.01-.9 2.42-.13 1.41-.13 3.09t.13 3.09q.14 1.4.9 2.44.76 1.03 2.42 1.6 1.66.57 4.71.57.98 0 2.21-.08t2.58-.26q1.35-.17 2.74-.46 1.38-.3 2.75-.69v6.41q-2.42.59-4.92.92-2.5.33-5.16.33h-1.41q-4.14 0-6.88-1.01-2.73-1.02-4.33-2.76-1.61-1.74-2.27-4.08-.67-2.35-.67-5.01v-2.03zm29.55 3.56q0-2.03.51-3.81.5-1.78 1.79-3.11 1.29-1.33 3.44-2.09 2.15-.76 5.44-.76h1.09q3.28 0 5.43.76t3.44 2.09q1.29 1.33 1.8 3.11.51 1.78.51 3.81v1.56q0 2.03-.51 3.81-.51 1.78-1.8 3.11-1.29 1.33-3.44 2.09-2.15.76-5.43.76h-1.09q-3.29 0-5.44-.76-2.15-.76-3.44-2.09-1.29-1.33-1.79-3.11-.51-1.78-.51-3.81v-1.56m6.25.78q0 .94.08 1.84.08.9.61 1.56.52.66 1.62 1.07 1.09.42 3.16.42 2.03 0 3.15-.42 1.11-.41 1.64-1.07.53-.66.61-1.56.07-.9.07-1.84 0-.94-.07-1.84-.08-.9-.61-1.56t-1.64-1.07q-1.12-.41-3.15-.41-2.07 0-3.16.41-1.1.41-1.62 1.07-.53.66-.61 1.56-.08.9-.08 1.84zm23.64-9.77l2.11 1.25q1.88-1.02 3.99-1.52 2.11-.51 4.69-.51 3.28 0 5.43.76t3.44 2.09q1.29 1.33 1.8 3.11.51 1.78.51 3.81v10.55h-6.26v-9.77q0-.94-.07-1.84-.08-.9-.59-1.56t-1.56-1.07q-1.06-.41-3.05-.41-1.64 0-3.05.21-1.41.22-2.7.64v13.8h-6.25v-19.54h1.56zm32.91 0h6.02v5.47h-6.02v6.25q0 .67.08 1.18.08.5.43.86.35.35 1.09.52.74.18 2.07.18.9 0 1.88-.1.98-.1 1.76-.33v5.71q-.78.19-1.8.29-1.02.1-2.11.1-2.66 0-4.49-.51-1.84-.51-2.97-1.47-1.14-.95-1.67-2.38-.52-1.43-.52-3.26v-20.33h1.56l4.69 2.74v5.08zm27.24 5.39q-1.8-.31-3.64-.31-3.16 0-5.74.82v13.64h-6.25v-19.54h1.56l2.11 1.25q1.88-1.02 3.99-1.52 2.11-.51 4.69-.51.89 0 1.71.08.83.07 1.57.19v5.9zm14.69 14.93q-3.28 0-5.43-.76t-3.44-2.09q-1.29-1.33-1.8-3.11-.5-1.78-.5-3.81v-1.56q0-2.03.5-3.81.51-1.78 1.8-3.11 1.29-1.33 3.44-2.09 2.15-.76 5.43-.76h1.1q3.32 0 5.43.49t3.28 1.35q1.17.86 1.6 1.99.43 1.13.43 2.42v.39q0 1.17-.29 2.23-.29 1.05-1.39 1.88-1.09.82-3.22 1.29-2.13.46-5.8.46-1.76 0-3.25-.15-1.48-.16-2.81-.55.04.82.27 1.51.24.68.88 1.15.65.47 1.82.72 1.17.26 3.12.26.94 0 2.09-.08 1.16-.08 2.39-.22 1.23-.13 2.42-.35 1.19-.21 2.21-.53v5.86q-1.02.24-2.21.41-1.19.18-2.46.32-1.27.13-2.52.19t-2.35.06h-.74m1.14-16.22q-1.57 0-2.62.18-1.06.18-1.72.53-.67.35-1.02.86-.35.5-.51 1.17 1.14.31 2.45.45 1.3.14 3.02.14t2.7-.14q.98-.14 1.45-.35.47-.22.58-.47.12-.26.12-.53t-.1-.61q-.1-.33-.54-.6-.45-.27-1.35-.45-.9-.18-2.46-.18zm38.92 15.44h-1.56l-2.12-1.21q-1.87 1.01-3.98 1.5t-4.69.49q-3.28 0-5.43-.76t-3.44-2.09q-1.29-1.33-1.8-3.11-.51-1.78-.51-3.81v-1.56q0-2.03.51-3.81.51-1.78 1.8-3.11 1.29-1.33 3.44-2.09 2.15-.76 5.43-.76 1.72 0 3.22.23 1.51.24 2.88.67v-9.89h1.56l4.69 2.74v26.57m-12-4.88q3.09 0 5.75-.83v-8.09q-1.33-.42-2.74-.64-1.41-.21-3.01-.21-1.99 0-3.05.41-1.05.41-1.56 1.07-.51.66-.59 1.56-.07.9-.07 1.84 0 .94.07 1.84.08.9.59 1.56t1.56 1.07q1.06.42 3.05.42z" xmlns:name="main_text" fill="#fff"/><g transform="matrix(2.5 0 0 2.5 .065 -.238)" xmlns:name="outlineContainer_mainfill" fill="#fff"><path fill-rule="evenodd" d="M.3 40.4zM3.1 49c.1-.2 0-.3 0-.5s-.1-.2-.2-.1-.5.7-.2 1.1a.2.2 0 0 1 0 .3h-.1c-.1.3.3.7-.2 1a2.7 2.7 0 0 1 .2 1c.1.1.1-.1.2-.1s0-.4 0-.6a.9.9 0 0 1 .3-.7.3.3 0 0 0-.1-.4v-.2c.4-.3-.1-.6.1-.8zM3 33.7zm-2.4 15H.4c.1.4-.4.5-.4.8s-.2.4.1.5h.5c-.1-.3.1-.5.1-.8-.1-.2.1-.5-.1-.5zm.4-2.3c-.1-.2-.3 0-.4 0s-.1.5.1.7.4 0 .2-.2-.1-.4.1-.5zm1.3 4.5H2a.3.3 0 0 0-.2.4H2a.4.4 0 0 0 .3-.3.7.7 0 0 0 0-.1zm34.8 52.4h-.6c-.2.3.1.2.2.4s.2.2.4.2.3-.5 0-.6zm-4.7.6c-.2-.1-.4 0-.5.2a.2.2 0 0 0 .1.2h.5c-.2 0 0-.2-.1-.4z"/><path d="M35.3 103.1c.2-.1.4-.1.2-.4h-.1a4.3 4.3 0 0 0-1.4-.7c-.1-.1-.2-.1-.2-.3s-.3-.2-.5 0a.9.9 0 0 1-.7-.5h-.1c0-.2-.2-.3-.3-.4s-.8-.2-1.2-.2-.1-.4-.4-.3h-.1c-.2.1-.4-.1-.6 0-.2-.2-.1-.5-.5-.5h-.2a4.1 4.1 0 0 0-1.5-.7h-.1a.4.4 0 0 0-.4-.1c-.1 0-.3 0-.4-.1l-.2-.2a.5.5 0 0 0-.4-.3H26V98l-.4-.2c-.2 0-.3.1-.1.3l.2.2h.4a.2.2 0 0 0 0 .2h.2c0 .4.3.7.3 1.1s.1.2.3.1l.2-.3c0-.1-.2-.3.1-.3a.2.2 0 0 1 .2.3c-.1.3.1.2.3.2h.4c.2.2.5.2.7.4-.1.1-.3.1-.2.4h.4c.2.2.3.2.4 0s.6.1.8.4h.4c-.2.5.4.6.4 1h.3c.1 0 .3.1.3-.1s-.2-.4-.2-.6.3.3.6.2.2-.3.1-.4h.2a.2.2 0 0 0 0 .1c.1.3.6.3.5.7s-.1.2 0 .3c.1.1.1.1.1.2v-.2h-1a.5.5 0 0 0-.6.1c0 .1 0 .3-.1.4a.4.4 0 0 0-.1.5c.1.3-.1.4-.4.4s-.1.3 0 .5a4.5 4.5 0 0 1 .4.9H31a.2.2 0 0 0-.2-.2 2 2 0 0 1-1-.3h-.1c-.3 0-.4-.2-.6-.4H29a.3.3 0 0 0 0 .4c0 .2 0 .4.3.4s.5 0 .6.3h.1c.2.2.5.1.7.2h.1c.2.3.6.2.8.5a2 2 0 0 1 1 .3l.4.2a.5.5 0 0 0 .1-.4c-.1-.2-.2-.5-.5-.4s-.3-.1-.2-.3-.1-.2-.2-.3-.1-.2-.2-.2-.4.1-.6.2h-.2a1.2 1.2 0 0 0 0-.8c-.1-.3.1-.3.3-.2v-.2a5.1 5.1 0 0 1 .1-.7c0-.1 0-.2.1-.3h.6c.1.3 0 .8.6.9h.2c0-.2-.3-.3-.1-.5s.3.3.5.2 0-.4-.1-.5.1-.4.1-.6.3.6.7.7v-.3l.3-.3c.3 0 .5.3.8.4-.1.5 0 .6 0 .5zm-1.8-.8z" fill-rule="evenodd"/><path d="M31.8 104.4c0-.1-.1-.2-.2-.1s-.1.2-.1.2.2 0 .3-.1zm78.9-46.5c0-.2-.3-.2-.4-.3l-.2-.3a2.2 2.2 0 0 0-1.1-.6.4.4 0 0 1-.2-.6 2.8 2.8 0 0 1 .4-.9V55l-.3-.5c-.1-.1 0-.3-.1-.5v-.2c-.1-.1-.1-.2-.2-.3h-.1a14.1 14.1 0 0 1-.1-2.3 2.6 2.6 0 0 0-.2-1.8 4.6 4.6 0 0 1-.2-1.4c0-.4-.3-.6-.3-.9s-.1-1.8 0-2.8V44l-.2-1.2a.6.6 0 0 0 .1-.8l-.2-.3h-.1l-.2-.4c-.8-.9-.8-1-.1-1.9h.3c.2 0 .3-.1.3-.3s.4-.5.8-.4.2.1.3 0 0-.2-.1-.3-.2-.3-.2-.4-.1-.4-.4-.4h-.7c-.1-.1-.3-.1-.1-.3s.2-.3 0-.4l-.2-.2a1 1 0 0 1 0-1h-.1c-.4-.6-.5 0-.6.2-.2.2-.3.5-.7.5l-.5.2c-.3 0-.5-.2-.5-.4v-1.8a3.4 3.4 0 0 1-.1-.9v-.2c-.1-.6-.1-.6-.7-.6h-.1c-.1-.1 0-.2 0-.3a.8.8 0 0 0-.3-.8c-.1-.5-.6-.8-.6-1.3h-.1l-.2-.3a.8.8 0 0 1 0-.8.3.3 0 0 0 0-.4.5.5 0 0 0-.2-.4c-.2 0-.3-.1-.5-.2-.3-.2-.2-.6-.3-.8h-.2c-.1-.3-.6-.4-.6-.8a12.6 12.6 0 0 1-.9-1.4c-.1-.3-.1-.7-.4-1-.1-.1-.1-.3-.2-.4a.2.2 0 0 1-.1-.2 8.9 8.9 0 0 0-.4-1.5c-.1-.2-.1-.5-.5-.3s-.9 0-1.2-.5a2.6 2.6 0 0 1-.6-.8.6.6 0 0 0-.6-.4 4.6 4.6 0 0 1-.8-1c-.1-.1-.1-.3-.2-.3 0-.3-.3-.5-.5-.7 0-.2-.2-.3-.4-.4-.3-.2-.3-.7-.6-1a.8.8 0 0 0-.2-.6 6 6 0 0 1-.7-1.6l-.3-.2a.8.8 0 0 1-.8-.4h-.2a.3.3 0 0 0-.3-.1 1.4 1.4 0 0 1-1.1-.2c-.4 0-.5-.5-.9-.5a.6.6 0 0 1-.5-.2h-.1c0-.2.1-.4-.2-.4s-.5-.2-.7-.4-.5-.6-.4-1.1-.1-.2-.3-.1a.5.5 0 0 0-.4-.2c-.6-.1-1.1-.2-1.3-.9h-.3c-.4 0-.4-.4-.6-.7s0-.4-.3-.5a.7.7 0 0 0-.8.1c-.3.1-.6.1-.7-.2-.1-.3-.4-.3-.6-.6-.2-.3-.8-.2-1.2.1s-.4-.2-.6.1a.9.9 0 0 1-.8.3l-.9.2h-.6a14.6 14.6 0 0 1-1-1.6.8.8 0 0 0-.7-.2c-.4.1-.4-.4-.4-.7s-.3-.1-.4.1c-.3.1-.5-.1-.7-.3h-.1a1.9 1.9 0 0 0-1 0h-.5a3.7 3.7 0 0 0-1.7 0h-.1c-.3-.4-.8-.4-1.2-.8-.4 0-.6-.3-.6-.7s-.8-.2-1.2-.4a1.5 1.5 0 0 0-.9-.3h-.1c-.2-.4-.4-.4-.8-.1l-1.7.3h-.2c-.3.1-.4-.2-.7-.2h-.1c-.1-.1-.3 0-.4-.1s-.3-.1-.5 0-.5-.4-.6-.7l-.2-.3c0-.2-.1-.4-.1-.6s0-.4-.3-.5h-.1c-.4-.3-.7 0-1.1.1v.3a.5.5 0 0 0-.1.4c.1.4-.2.5-.5.4a8.6 8.6 0 0 1-1.7-.1c-.2 0-.3-.1-.5.1h-.4a.7.7 0 0 1-.9-.2.5.5 0 0 0-.6-.2.5.5 0 0 0-.4.2c-.2.1-.3.1-.4-.1s-.3-.4-.6-.1a.8.8 0 0 1-1.2.1h-.2c-.6-.1-1.2-.6-1.9-.3h-.4l-.5.2a1.5 1.5 0 0 1-1 .4h-.2c-.1 0-.2-.1-.3 0a.8.8 0 0 1-1 .4h-.1c-.3.2-.5 0-.6-.2s-.6 0-.6.1-.5.3-.8.3h-.3a4.4 4.4 0 0 1-2 .3h-.2a.6.6 0 0 0-.6.2c-.3.4-.6.1-.8 0s-.2-.3-.1-.5a1.7 1.7 0 0 0 0-.3c0-.3.5-.7-.1-1s-.4-.4-.3-.7.1-.6-.5-.7c-.3-.1-.6-.3-.9 0S39 0 38.9.3l-.4.7c-.3.1-.6 0-.8.2a.8.8 0 0 1-.7.3h-.1c-.6.3-.7 1-1.1 1.4s-.2.5-.2.7c-.1.3.2.6.2.9s.3.7-.3.9l-.2.2h-.1l-.2.3h-.4a1.2 1.2 0 0 1-.8.4h-.1c-.1.1-.2.2-.2.4s-.3.2-.4.3l-1 .4H32c-.2.1-.5.1-.7.4-.1.3-.4.3-.6.4s-.9.2-1.2.7l-.3.2h-.8c-.1 0-.2 0-.3.2s-.3 0-.4.2h-.1c-.1.2-.2.2-.4.2a.3.3 0 0 0 0 .1l-.2.2h-.3c-.3.1-.4.4-.6.6-.2.2-.5.2-.5.5l-.3.2c-.6-.1-1 .3-1.5.4l-.5.3h-.1c-.2-.1-.4.2-.6.2l-.5.5c0 .2-.2.3-.4.5h-.1a1.6 1.6 0 0 0-.1.6h-1l-.4.3-.3.3c-.2 0-.1.2-.2.3l-.2.2c-.2-.1-.2.1-.3.2l-.4.4h-.1c-.1.2-.3.3-.5.4v.2l-.5.2c-.1.1-.2 0-.2.2h-.2v.3h.2c.1.2.3.2.5.2a1.1 1.1 0 0 0 .5-.4.4.4 0 0 1 .7 0c.2.4.4.1.6 0s.1-.2 0-.3l-.3-.4c.2-.1.4 0 .6 0s.3 0 .2-.2-.1-.2.1-.2.2 0 .2.2 0 .3.2.2l.2.3a.2.2 0 0 0-.2.3c-.3.1-.4.3-.3.6s0 .1 0 .2h-.2c-.1-.1-.3-.2-.2-.4s0-.2-.1-.2-.3 0-.3.2a3.9 3.9 0 0 0 0 .4h.1a1.1 1.1 0 0 1-.9 1.1c0 .2.1.4.3.2l.2-.2a.8.8 0 0 0 0 .3c-.5 0-.7.2-.6.7a.4.4 0 0 1-.2.5c-.2.1-.4 0-.5-.1s-.2-.3-.4-.3h.2c.5 0 .5-.4.5-.8s-.1-.3-.3-.1-.1.3-.2.2 0-.2 0-.2-.3-.1-.4.1a1.4 1.4 0 0 0-.4.6 1.2 1.2 0 0 1 0 .2c0 .1 0 .1.1.2h-.2c-.1.1-.1.3-.3.2s-.2.2-.1.3.2.5.3.7c-.1.1 0 .2-.2.2s-.2-.3-.4-.3a.3.3 0 0 1 .1-.2c.1-.1.3-.1.2-.3s-.2-.1-.3-.1H16c-.4 0-.3.4-.6.5s.1.3.2.4a1.1 1.1 0 0 0 1 .6.3.3 0 0 1-.4 0l-.5-.5c-.1-.1-.2-.2-.3-.1a1.2 1.2 0 0 0-.3.8c.1.3.4.1.5.1h.1a.9.9 0 0 1 0 .3c0-.2-.1-.3-.2-.3s-.4-.2-.6-.3h-.1c-.1.1-.1.3-.2.4h-.1c-.1.1-.2.3-.1.5a.3.3 0 0 0 .5.1c.2-.1.4.1.6.1-.1 0-.2-.2-.4-.1s-.1.3 0 .4a.5.5 0 0 1-.1.5h-.1a1.6 1.6 0 0 0-.1-.4.4.4 0 0 0-.3-.3c-.1 0-.2.1-.2.2s-.3.2-.5.2h-.3v.2H13c-.1 0-.2-.1-.3 0s0 .2.1.3l.3.2c.3.1.4-.3.6-.2s-.4.1-.3.4-.1.3-.3.2H13c-.2.1-.4 0-.6-.2a.7.7 0 0 0 .3.7.2.2 0 0 0-.1.2c-.2.1-.4.1-.5-.2s-.5.3-.5-.1c.1-.2.4-.1.3-.4s-.3.2-.3.4h-.1c-.6.4-.5.7.2 1.2l-.4-.3-.2-.2c-.1-.1-.2-.3-.3-.2s-.2.2-.1.4l.2.3a.6.6 0 0 0 .5.5l.4.2-.8.9h.1c.3-.6-.6-.3-.5-.8h-.3l-.2.2v.2a1.5 1.5 0 0 1 .4-1 .8.8 0 0 0 0-.1c-.2-.1-.3-.3-.5-.1l.3-.3c.1-.1 0 .3.2.3 0-.3.5-.4.3-.8s-.1.3-.4.3.2-.2 0-.3.3-.7.2-1.1.1.4.5.3.2.2.1.3-.3.2-.2.3.3-.1.4-.2.1-.2.1-.4 0-.4.2-.5h.2c.2-.2.1-.6.3-.8s.3-.9.2-1.4.5-.4.7-.6c.1 0 .3 0 .4.1s-.2.2-.2.4h-.1c0 .2 0 .4.3.4h.2c.1-.1 0-.3.1-.4s.2-.5 0-.6h.3c.1.2.2.2.4.1s.2-.3.1-.4h.1c.2 0 .3.3.5 0s-.1-.4-.2-.5c.1-.3.2-.7.7-.3h.1c-.2-.1-.5-.2-.5-.5h.5c.4-.1.4-.1.6.2h.1c.1-.4.2-.8.6-1s.1.3.3.1l.5-.4.2.2c.2 0 .1-.1.1-.2a.6.6 0 0 1-.1-.4.7.7 0 0 1-.7-.1h-.2l-.2.2c-.4.5-1.1.4-1.5.8v.2c-.3 0-.4.3-.6.5a.4.4 0 0 0-.2.3l-.7.2-.5.4h-.3l-.2.2c-.2 0-.2.2-.3.3l-.3.3h-.1l-.3.4c-.2.1-.2.2-.3.4a.7.7 0 0 0-.2.4l-.5.3c-.2.1-.2.3-.3.5s-.2.1-.2.2v.2l-.2.3h-.5c-.1.1-.1.2-.1.3l-.4.2c-.1.1-.2 0-.2.2H9l-.2.2-.3.6c-.1.1 0 .3-.1.5l-.2.4c-.2.2-.5.1-.7.4s-.2.2-.2.4h-.1v.2h-.4c-.2 0-.2.1-.3.2-.1.2-.3.4-.1.6s-.1.2-.1.3l-.2.4H6c-.1.2-.3.2-.4.4l-.2.2c-.3.2-.2.5-.4.8s-.1.2-.1.3-.2.4-.3.6-.3.2-.3.4h-.1l-.2.4a1.7 1.7 0 0 0-.7.8.2.2 0 0 0 0 .3c-.2 0-.2.2-.3.3l-.2.5-.4.9c-.2.1-.1.5-.3.6s-.3.3-.3.6l-.2.5h-.1c-.1.1-.3.2-.4.4s-.1.3-.2.5l-.2.2a.5.5 0 0 0-.1.3c-.1.1 0 .2 0 .3a2.7 2.7 0 0 1-.1.8v.2c-.1.3 0 .6-.2.9s0 .6-.1.9v.4c-.1.2.1.3.1.5s-.2.2-.2.4a1.5 1.5 0 0 0 0 .8l.2.5a1.7 1.7 0 0 1 .5.9 1.2 1.2 0 0 0-.2.6H.5a1.6 1.6 0 0 0 .1.7c.3-.3.1-.5 0-.7l.4-.2c0-.5.1-1-.2-1.4.1-.1.1-.2 0-.3a.5.5 0 0 1 .1-.6c0-.1-.1-.2-.1-.3s.2-.4-.1-.6-.2-.1-.1-.3H1c.2 0 .3.1.5 0l.2-.3c.2.1.5.6.5-.2s.1.2.2.2.1.2.2.2-.1-.1 0-.2-.3-.4-.3-.7-.2-.2-.4-.4.2-.4 0-.6l-.2-.3H2c.1-.2.1-.6.5-.3s.2.1.2 0-.1-.1-.1-.2-.4-.4-.4-.7a4.1 4.1 0 0 0 0-1.2v-.2l.2-.4a.3.3 0 0 1 .1.2c.2.3.4.7.9.7s.2 0 .1.1 0 .4-.1.6-.1.3.1.3.2-.1.2-.3a.3.3 0 0 1 0-.3c.1-.1.1 0 .2.1a2.8 2.8 0 0 0 .4.9 1.3 1.3 0 0 1 .2 1h.2a.6.6 0 0 1 .1-.4c.1-.1.2-.1 0-.3s.3-.6.1-.9H5c.4-.1.5 0 .4.4s0 .3.2.3.3 0 .3-.3-.4-.7-.5-1.1h.1l-.2.2c.1-.4-.4-.3-.5-.5a.2.2 0 0 1 .1-.2h.3c.2-.3.4-.5 0-.8s0-.4-.3-.3-.1.3 0 .4a.6.6 0 0 1 0 .2c-.3 0-.7-.2-1 .2s.2-.3 0-.5a.6.6 0 0 0-.3.5.3.3 0 0 1-.1-.4c.2-.2-.1-.3-.1-.5v-.2h.1c.2-.3-.1-.5-.2-.7s.4.1.4-.3a.7.7 0 0 1 .1-.4c.1-.2.1-.4-.2-.4.4 0 .7-.1.6-.6s0-.1.1-.1.6-.2.9-.1-.2.4-.1.7.1-.7.5-.8-.8-.4-.8-.6v-.4a.3.3 0 0 0 .4.2c.1 0 .1-.1.1-.2s-.2-.3.1-.3a.5.5 0 0 1 .5.2 1.1 1.1 0 0 1 .1.8c-.1.2-.1.5.2.6s.8-.3.7-.5 0-.8-.4-1-.2-.6-.4-.8a.6.6 0 0 1-.3-.5l.4-.3c.2 0 .2.1.3-.1s-.1-.1-.2-.1h-.1v-.2h.3c0-.1 0-.2.2-.2l.2.2a1.9 1.9 0 0 0 0 .3c0 .1.1.3.3.3s.3-.1.2-.3a1.4 1.4 0 0 0-.1-1.1h.1c.6 0 .3-.6.5-.8s.4.6.1 1a.2.2 0 0 0 .1.3c.2.1.2 0 .3-.1l.2-.3h.2c.1 0 .2-.1.1-.2h-.3a1 1 0 0 1 0-1h.1a.5.5 0 0 0 .3-.5l.4.2c-.1 0-.1.1.1.1s.3.2.1.3-.2.4-.3.6h-.1c-.1.1-.2.2 0 .2a.3.3 0 0 0 .3-.3.2.2 0 0 1 .1-.2c.1.1.1.2.3.2h.1c0 .3.4.2.4.5s-.3-.4-.5 0a1.4 1.4 0 0 0 0 .3c0 .3.2.3.4.3h.2c.3 0 .4.1.3.4s-.4.3-.4.5-.1.3-.2.2 0-.2 0-.4l.2-.3c.1-.2.2-.4 0-.5-.3 0-.4.3-.6.5l-.4.9-.2-.5H9c-.2-.1-.2.2-.3.3.1.1.5.1.2.4s-.3.3-.1.4.2-.1.3-.2v-.2a1.9 1.9 0 0 1 .1.9 1.2 1.2 0 0 0-.1.4.3.3 0 0 0 .2.3c.2 0 .2-.1.2-.2a1.2 1.2 0 0 0 .1-.7h.1l.4.2c-.5.3-.5.8-.6 1.2s-.2 0-.2-.2a.3.3 0 0 0-.3-.2c.1.2-.1.2-.2.2v.2c.1.2.2.5.4.7s.1.1 0 .2a2.4 2.4 0 0 1-.8 1c-.3.2-.4.4-.1.8s.2.2.1.3l-.2.3a1.7 1.7 0 0 0-.2 1h-.1l-.4.5-.3-.2c-.3.1-.3-.2-.5-.3s-.7.1-.6.4a2.1 2.1 0 0 0 .9 1v.4a1.2 1.2 0 0 0-.1.9.5.5 0 0 0-.4.5c-.2-.1-.3.2-.5.1s-.4-.1-.4.2a6.4 6.4 0 0 1 0 .7h-.2c-.1.1-.1.2 0 .3v.2H5l-.3.5-.4.2c-.1.1-.1.3-.2.3-.3-.1-.6 0-.7.1-.2 0-.3.4-.5.4s-.2.2-.2.3-.2-.2-.3-.1c-.1.1-.2.2-.2.3v.7c0 .2.5-.1.4-.7s.4 0 .4.3-.1.4.2.5 0-.6.4-.6.1-.2.3-.2 0 .1 0 .2h-.3a.4.4 0 0 0-.1.3h.1c.2.2.1.5.3.8h-.7c-.2 0-.3.1-.3.3s0 .3.2.3.4.2.3.5l-.2.3a.5.5 0 0 0-.2.6h.1c.1 0 .2.1.3.2s.1-.3.2-.4a.8.8 0 0 0 .3-.6c.1-.1.1-.2.1-.3a.2.2 0 0 0 0-.2.3.3 0 0 0 .1-.2h.1c.1-.1 0-.3.1-.4a1.3 1.3 0 0 1 .2-.5h.1a1.8 1.8 0 0 1 .3-.7.4.4 0 0 0 .1-.4c0-.1 0-.2.1-.2V43c.1-.2.1-.4.3-.6v-.3l.2-.3c.1-.2.1-.4.2-.6V41h.1l.3-.3a.8.8 0 0 0 .1-.5l.2-.3.3-.2c.2 0 0-.2.1-.3s.1-.2.1-.3a.2.2 0 0 0 0-.2.7.7 0 0 0 .2-.5c.1-.1 0-.3.1-.5s0-.1 0-.2a2.9 2.9 0 0 1 .9-1.2c.3-.1.1-.3.2-.5v-.2a.3.3 0 0 0 0-.4c-.1-.3.1-.5.3-.8a1 1 0 0 0 .4-.4c.2-.1.2-.2.2-.3h.1c0-.1 0-.1.1-.2s.3-.4.3-.7h.2v-.3c.2-.3.5-.4.6-.7h.1c.2-.1.3-.2.4-.4.1-.1 0-.2 0-.4.1-.1 0-.2.1-.3s0-.2-.1-.3v-.4c.1-.2 0-.4 0-.6H11c0-.3.4-.3.5-.6s0-.1 0-.2h.3c.3-.2.1-.4.1-.6h.1a1.4 1.4 0 0 1 .4-.8h.1a1.1 1.1 0 0 0 .5-.4v-.3l.4-.3c.4-.3.9-.2 1.3-.4l.2-.2h.1c.1-.2 0-.5.3-.6s.1-.1.1-.2a1 1 0 0 0 .9-.7.1.1 0 0 1 0-.1c.2-.3.6-.4.7-.8.2-.1.2-.3.4-.4l.3-.2a.5.5 0 0 0 .3-.4h.1c.3-.3.5-.7 1-.8.2 0 .2-.1.3-.2V21h.2a.5.5 0 0 0 .3-.6c.3 0 .1-.3.3-.4h.1l.7-.3h.2l.4-.2v-.2h.3l.3-.3c.4-.2.5-.7.9-.9h.5a.7.7 0 0 0 .4-.4l.2-.3.2-.3h.6c.1-.1.2 0 .2-.2h.2l.6-.9h.1a.3.3 0 0 0 .4-.3c.1-.3 0-.9.7-.8h1.1c.3.2.6-.1.9.1s.3 0 .4-.1l.3.2h.1c.1.2.2.5.5.4a.7.7 0 0 0 .4-.7v-.3h.1a.3.3 0 0 0 .2-.3h.2c.2-.1.2-.3.3-.4v-.2h.1a.7.7 0 0 1 .4-.4l1.9-.8.4-.2c.2-.4.5-.4.9-.2s.7-.4 1.1 0l.4.4c.3.3.2.8.6 1.1v.7h.4a.3.3 0 0 1 .4.1c.1.2-.1.2-.2.2s-.2.2-.2.3-.2.6.3.8c.3.1.4 0 .5-.3a2.4 2.4 0 0 0 .8-.6l.5-.9c.1-.2.2-.5.5-.3s.3.1.4.3h.2c.2.1.2 0 .3-.1.2-.2.3-.5.5-.7a1.3 1.3 0 0 1 .5-.7 1.1 1.1 0 0 0 .7-.6c.4-.3.7.1 1 .1a.5.5 0 0 0-.1.6c.1.2.3.1.5.1h.5c.2 0 .3.1.3.3s.4.2.5.4h-.1a.3.3 0 0 0-.2.3h-.1c0 .2-.1.3.1.5h.1a.1.1 0 0 0 0 .1c.2.1.3.3.4.4v.2c.1.1.2.1.4.1s.2-.2.3-.3h.4c.1-.2.3-.1.5-.3h.4c0 .1 0 .2.1.3s-.3-.1-.4.2-.4 0-.4.2h-.1c-.2 0-.2.1-.2.3h-.1v.4h-.1a1 1 0 0 0-.2.8v.8h.1a.3.3 0 0 1 0-.1c0 .3.3.1.5.3a3.2 3.2 0 0 0 1-.5.7.7 0 0 0 .1-.4c.4 0 .2-.4.4-.5s.4.4.6.1-.3-.4-.6-.6 0-.6-.1-.9.2-.2.2-.1.5.3.5.6-.2.3.1.3.3-.1.3-.3.2-.2.3-.2v.2c-.4.1.1.3 0 .4.1.3.3.1.5.2l.4.2c.3.1 0 .4.2.6s-.2.1-.3.1v.2h-.1c-.4.3-.2.5.1.8a.9.9 0 0 1 .1.6h.4c.2-.1.5-.4.7.2a.8.8 0 0 1 .3-.5.1.1 0 0 0 0-.1l.2-.2a.7.7 0 0 0 .7-.4v-.3h-.1c0-.2.1-.3.4-.2s.1.4.3.5h.2c.2.1.4.5.8.2v-.2c.2-.2 0-.5.2-.7h.2v-.2c0-.1 0-.2-.1-.3v-.4c0-.2-.1-.4 0-.6l.2-.4a.3.3 0 0 0 .4-.2h.1c.1-.3.2-.5.5-.3a.3.3 0 0 0 .4-.1c.1-.2.3-.2.4 0a.7.7 0 0 0 .7.1h1.1c.1.2.4.2.4.5l.5.2c0 .2.1.1.3.2a1.1 1.1 0 0 1 1.2-.2l.2.2h.1c.3.2.7.3.9.7 0 .1 0 .3.1.4s.3.2.5.3.5 0 .6.3l.2.2h.1l.2.2a.8.8 0 0 0 .9.1l.7-.2v.3c.3.2.5.4.2.7a1 1 0 0 0-.1.4h.1c.1.1.1.3.3.3s.6-.2.8.3a1.8 1.8 0 0 0 1.2.4h.1c.1.4.5.1.7.3h.3c.4 0 .5.3.5.6a1.6 1.6 0 0 0 .2.8h.1l-.2.3c-.3.4-.2.8.2.9.3.2.8.1 1.1.5s.4.1.5.3c.1.1.3.1.4 0l.4-.3h-.1a.3.3 0 0 1 .2-.3c.5-.3.9-.2 1.5.4.2.3.3.6.6.7v.2h.1c0 .2.2.2.3.4h.1a1.2 1.2 0 0 0 .2.8h.1a.4.4 0 0 0 0 .1c-.1.4.2.9 0 1.3a.5.5 0 0 0 .1.4c.1.2.2.4-.2.4s-1.2.6-1.9.6a.3.3 0 0 0-.3.2c-.1.2 0 .4 0 .6H73a1.7 1.7 0 0 0 .3.6v.8c0 .4 0 .7.5.4h.3c.1.2.3.1.4.1.2-.1.2-.4.3-.6.2 0 .4 0 .5-.1s.3-.2.5-.1-.2.3-.1.5h-.1c-.2.2 0 .3 0 .5a.5.5 0 0 1 .2.4.6.6 0 0 0 .1.5c.2.2.4 0 .6.1h.1c.3.1.4-.3.7-.3.2.3.5.1.8.3.3 0 .4.2.4.4.1.2 0 .4-.1.6v.2a7.6 7.6 0 0 1-.4 1.3h.1c0 .1-.2.1-.1.3s.2.4.4.5v.2c.2.1.5 0 .7.1.1.1 0 .3.2.4s0 .3.2.4.2.3.3.5h.2c.1.1.2.1.3.1h1a.1.1 0 0 0 0 .1 1.1 1.1 0 0 1 .2.5 6.8 6.8 0 0 0 .1.9c.3.1.3.3.4.5v.2h.4c0 .2.2.2.2.1s.5-.5.4-.9v-1c0-.3 0-.3.2-.3s1-.1 1.4.4h.2a.8.8 0 0 1 .2.9c-.1.1-.2.2-.2.4s-.2 1.3 0 2.1.1.6.6.3h.3c.3-.2.6-.6 1-.3l.3.4c.2-.2.5-.3.5-.5s.3-.2.4-.2l.4.3h.1c.1.3.5.2.6.5s.1.3.3.3l.2.2.3.2h.1c0 .2.3.3.3.5a2.6 2.6 0 0 0 .3 1.4c.2.3.3.8.5 1.1s.6-.2.8.1a.4.4 0 0 1 0 .5l-.3.3c-.1.1-.2.1-.2.3-.2.2.1.6-.3.7s-.2.3-.1.5v.2a2.3 2.3 0 0 1 .9.7h.2c.2 0 .4 0 .5-.3h.1c0-.1 0-.2.1-.3l.4-.3h.3c.3 0 .4.1.3.4a4.8 4.8 0 0 0 0 .8h-.4c-.2.5-.3 1-.7 1.4h-.1a.6.6 0 0 0 .1.9v.2c.3.2.4.4.1.6s0 .1 0 .1a3.6 3.6 0 0 0 .2 1.1c-.1.2.2.5-.1.7h-.3c0 .3.1.6-.1.9s0 .2.1.3a.4.4 0 0 1 .2.3h.3v.2a1.2 1.2 0 0 0 1.5-.2c.2-.2.2.2.3.2 0 .2.1.4.1.7a.3.3 0 0 0 0 .5v.2c.1.2.6.5-.1.6s-.4.8-.2 1.1a1.3 1.3 0 0 0 .4.7v.6c-.1.2-.3.3-.3.6v.6c.3.3.5.6.1 1s0 .1 0 .2h.2v.2c-.2.5 0 1.1-.2 1.6-.1.2-.4.5-.1.8a1.2 1.2 0 0 1 .4 1.4 4.1 4.1 0 0 0 0 .9H95V68c-.1.4-.7.5-.6 1.1-.2.3-.1.7-.3 1.1s-.1.1 0 .2v1c0 .3 0 .3-.3.2h-.3v.3a.5.5 0 0 1-.5.2c-.4-.3-.4 0-.5.3h.1c.1.1.3.2.3.4a.5.5 0 0 1 .3.4.6.6 0 0 0 0 .5c-.2.2-.1.5-.2.7-.1.2-.2.5-.6.2h-.2c-.2 0-.2.1-.1.3s0 .4.1.6-.2.4-.5.4a.2.2 0 0 0-.2.2c-.2 0-.3.1-.2.3v.6a.9.9 0 0 1 0 .8v.2a4.6 4.6 0 0 1-.4.8h.1v.3l-.2.2v.2c-.2.4-.5.2-.8.2h-.4a.8.8 0 0 0-.2.6c.1.3-.1.5 0 .8-.1.3 0 .8-.5.9s-.1-.8-.4-1.1-.2-.7-.7-.4c-.1.3-.1.6-.4.7-.1.1-.4-.1-.5.2-.2 0-.2.2-.3.3h-.2v.7c0 .3.2.2.4.3s.4 0 .6.2v.2l.2.3a.7.7 0 0 1-.1.7c-.2.1-.2.3-.2.5l-.2.6H87v.6c-.1.1-.1.4-.3.4a.7.7 0 0 0-.4-.6c-.2-.5-.4 0-.6-.1a.4.4 0 0 0 .1.5v.2c.1.2.4.3.3.6a.7.7 0 0 0-.2.6c.2.7-.1 1-.6 1.3-.3 0-.4.2-.5.4H84c-.1.1-.3.3-.5.2s0-.3-.1-.5.2-.7-.1-1.1-.3.1-.4.1v.2c-.2 0-.2.4-.5.4a.3.3 0 0 0-.1.3c-.1.4-.3.7-.1 1.2-.1.3.1.7-.1 1-.1.1-.1.2-.3.2s-.5.3-.8.3h-.1c-.1.2-.4.3-.4.6l-.3.3v.3c-.1.1-.3.2-.3.4s-.7.2-1.1.4l-.2.2h-.1a1 1 0 0 1-.5.6c-.2 0-.3 0-.4.2h-.5c-.3-.2-.2.1-.3.2s-.2.3-.3 0H76c-.3 0-.2.3-.4.5s-.2-.1-.3 0 .2.3.1.4a.2.2 0 0 1 0 .1v.8c0 .3-.4.1-.5.3h-.2v.2l-.3.3v.8l-.9.4H73c-.3.2-.7.2-.9.6H72c-.2 0-.4-.2-.6 0H71c-.2-.1-.3 0-.5 0a.2.2 0 0 1-.1.3l-.2.2c-.1 0-.3 0-.3.2l-.3.3a.5.5 0 0 0-.2.3l-.4.2c-.1.2-.4 0-.6.2a2.9 2.9 0 0 0-1.3.1h-.3c-.4.3-1 .1-1.3.6H65c-.2.1-.4.1-.5.3s-.4.2-.5.4-.2.2-.3.3h-.2l-.3.3c-.2.2-.5.2-.6.5-.1.1-.2.1-.3 0H62l-.2-.2c-.2-.1-.3 0-.4.1s-.2.2-.4.2a1.3 1.3 0 0 0-1 .2c-.3-.1-.5.1-.7.1a.4.4 0 0 0 0 .1l-.3.2-.2.2h-.2a.5.5 0 0 0-.5.1h-.3c-.1-.1-.1-.2-.2-.1a1.6 1.6 0 0 0-.6 1.1c-.1.2-.3-.1-.4.1s-.3.2-.4.4-.3.1-.3.3h.1c.5.2.3.6.3.9s-.1.3 0 .5h.1a.2.2 0 0 0 .1.2h.5c.2 0 .2.2.4.3s.3-.2.5-.4c.3.3.5.5.8.1h.1c.2-.2.4-.2.6-.3h.1l.6.2v.2h.8a1.3 1.3 0 0 1 1 .2h.1c.4.4.9.3 1.4.3.3.2.5.4.9.2a6.7 6.7 0 0 1 1.7-.5l.5-.2c.1.1.3.1.4.1.1 0 .2.1.3-.1H69a1.2 1.2 0 0 0 1.3-.8c.3-.1.5-.4.9-.2s.2-.1.3-.2h.3a.7.7 0 0 1 .6-.3h.1c.1 0 .3.1.4-.1a1.5 1.5 0 0 1 1.1-.3h.2c.2 0 .2-.2.3-.3s.6-.1.9-.2c.4-.2.9-.1 1.2-.4l.5-.3h.1c.2-.3.6-.2.8-.4.3-.3.6-.6 1.1-.5h.3l.5-.4a.8.8 0 0 1 .7-.3.3.3 0 0 0 .3.2c.1-.2.4-.1.4-.3a1.6 1.6 0 0 1 .5-.6h.6a1.5 1.5 0 0 0 1.1.3v-.3c.2 0 .2-.2.3-.3a.2.2 0 0 1 .1-.3.3.3 0 0 0 .1-.4v-.2h.4a.3.3 0 0 0 .3-.3h.3c.1-.9.1-.9 1.1-.8s.6.1.8-.2 0-.6.5-.6l.2-.2a1.4 1.4 0 0 1 .5-.9l.6-.6v-.2h.1c.1-.2.5 0 .5-.4h.1a1 1 0 0 0 .4-.5c.3-.1.6-.2.8-.6h.1c.1 0 .1-.1.1-.2h1.1l.3.3c.1.1.1.2.3.2s.2-.2.2-.3v-.2a.9.9 0 0 0 .1-.6.4.4 0 0 0-.1-.3 1.1 1.1 0 0 1 .3-1c.3-.2.5-.2.7.2h.4c.4-.3 0-.5-.1-.7s0-.5.2-.7h.7a.9.9 0 0 1 .9.2c.1.1.2.3.3.4a.2.2 0 0 0 .2-.2h.6c-.1-.1 0-.3-.3-.4l-.3-.3H96c0-.3 0-.7.2-.9h.6c.2-.2.5-.2.5-.6h.2v-.2c0-.4.2-.8.2-1.2.1-.1.2-.2.4-.2.1-.1.2-.1.1-.3s.6 0 .9-.3.3-.6.7-.5v-.2l.2-.2.2-.4a3.4 3.4 0 0 0 0-1.5l-.2-.2c-.2-.1-.2-.4-.2-.6l.2-.3c.1-.1.2-.1.2-.3s.2-.2.1-.3-.1-.5.3-.5v-.2a.7.7 0 0 0-.1-.4.2.2 0 0 0 0-.1c.1-.3.4-.5.3-.8s.3.1.4-.1a.8.8 0 0 1 .7 0l.3.2c.4 0 .3-.4.6-.5s.1-.5.4-.7.3-.2.2-.3-.1-.6-.2-.9-.2-.3-.4-.4c-.1-.3.1-.4.3-.6s0-.7.3-.9l.2-.4c.1-.2 0-.3-.1-.4-.2-.3.2-.5.2-.8.1-.2.2-.4.2-.6a1.9 1.9 0 0 1-.1-.9c.2-.3.2-.7.6-.9h.2c0-.6.1-1.2.7-1.4h.1c0-.2 0-.4.3-.5s.2-.2.2-.4a8.2 8.2 0 0 1 .1-1.4h-.1a2.1 2.1 0 0 1 .4-1.3c.2-.2 0-.7.5-.8h.4v-.2c.1-.3 0-.7.3-1a.1.1 0 0 0-.1-.2h-.1a.3.3 0 0 0-.2-.3c-.6-.3-.6-.4-.5-1 .1-.3.2-.6.7-.5a.3.3 0 0 0 .3-.5v-.5a.5.5 0 0 1 .6-.5c.3.1.7-.1.6-.4a1.5 1.5 0 0 1 .2-1.1 4.5 4.5 0 0 0 .1-.6c0-.2.1-.3.2-.3a10.5 10.5 0 0 0 1.2-.2c.1 0 .2 0 .2-.1a8.8 8.8 0 0 0 0-2.7zM.7 39.5zm.1.9zm.9-2.3a1.7 1.7 0 0 0 0 .6c-.1 0 0-.1 0-.1s0-.4-.1-.5.1-.1.1 0zm3.4-1.5zm-2-.4c0-.1 0-.2-.1-.2s-.1-.3-.2-.5a1.2 1.2 0 0 1 0-.2h.4c.2.4.1.9.2 1.3s-.6 0-.3-.3zM9.6 25zM5.3 42.5zM4.1 44zm0-.9H4zm.6 1.3zm7.2-16.7zm73.6 13.6zM68 19.1zm-48.2 0zm8.2-8.6zm22.4-8.4zm53.7 31.3zM26.9 11.6zM103 31.7zm-6.3 58.6zM70 20.3zm-19.9-6.2zm52.4 63.3zM64.2 107zm13.7-11.3zM48.4 13.6zm-9.8-.4zm-14.9.9c-.1-.1 0-.1 0-.2s0-.3.2-.2.5.1.7.4c-.2.3-.2.6-.5.8s.3-.3 0-.4-.4.1-.4.3l-.2.3c0-.1-.1-.2.1-.2a.4.4 0 0 0 .2-.4c0-.1 0-.2-.1-.3zm52.8 14zm19.6 41zM48.2 3.8zm53 26.5zm-27.5 72.5zm1.1-1.6c-.1-.2-.1-.3.1-.4a1.6 1.6 0 0 0-.1.4zM86 34.6zm-4.1-.1zM55.1 12.7zM39 11.6zm12.1-7zm47.4 20.8zm4 48.7zM96.1 54zm-4-12.3zM78.4 26.4zm1.3 1.9zM39.8 10.2zm-1.4-4.4zm.8 3.5zm0-1.1zm-.7-.6zm-.5 0zm3.6-.7zm-3.6.7zm2.6 1.9zm19.5-2.2zM56.4 9zm26 4.2zm6.1 3.4v-.1zm.1-.5zm10 11.8zm-18.2-1.7zm-7.6-14.1zm-1.1-.7zM106 57zm-.3.6zm-5 13zM77.6 23.8s.1 0 0 0zm15.2-2.5zm13.5 33.2zM96.1 77.9zm-.5-37.3a.2.2 0 0 1-.1.1zm2.8 16.1a.1.1 0 0 1 0 .1zM81.6 26.6zm22.6 26.3zm.6 1.6zm-.6-1.6zM91 25.6zm-.8-.1zm.1 1.1zm6.3 7.4zm5.7 23.9zm-.5-2.4zm-1-.7zM99 49.7zm-1.5-13.1zm3.2 17.3zm-1.3-14.3zm1.4 20.5zm0-12.3zm-.1-3.1zm.3-.2zm-3-9.7zM90 25zm-4.6 2.1zm-.2-6.9zM83 24.3zm2.1-3.1zm-.3 1.6zm.9 4zm0 0zm1.3-3.3zm0 0zm10.4 15.2zm-.3 5.4zM84.6 24.7zm8.5 5.6zm3.1 6.3zm3.7 17.2zM97 33.1zm-9.7-9zM81 19.9zm4.3 8.4zm14.5 28.8zm.1-20.3zM81.4 23.9zm2.6 1.7zm5 3.6zm7.3 12.4zm8.4 8.5zM92.8 26.8zm-8-6.8zm-4.7.8zm2.2 6.4zm6.1 2.2zm10.2 44.1zm6.2-23.1zm-3.3-6.8zm-.6-3.5zm-2.6-9.7zm-18-11.6zm-2.2.4zm.1 4zm4.5 4.2zm3.6.8zm7.5 9.1zM99 69.5zm4.6-10.3zm.6-10.1zM90.8 22.3v-.2zm-5.1-4.8zm-9.8.5zm1.6 5.4zm16.3 14zm1.8 3.3zm1.8 30.1zm-1.1 9.6zm-5.1-59zm-3.2-2zm-8.2-4.9zm-2.8 1zm-1-.8zm0 0zm1.1 7.9a.1.1 0 0 1-.2-.1zm4 6.3zm1.6-.3zm5.3 4l.2-.2zM96.5 47zm1.2 23zm5.3-32zM91.1 21.4zm-9.9-8zm-1.5 1.1zM67 8.2zm3.9 6.6zm9.6 11.4zm2.9 3.5zm14 34.5zm2.3 7.8zm2.6-3.3zM90.6 19.5zm-.3-.7zm-13-6zm3 13.9zm4.8 5.8zm3.5-.8zm5.9 8.5zm4 22.6zM96 75.1zm1.3 3.5zm9.2-20.6zm-2.2-15.3zm-1.1-4.1zM87.9 18zM61.4 9.1zm-7.7 1.2zm6.1-3.6zm10.6 10.8zm1.9-.7zm1.1.5zm4.6 7.8zm.7-.9zm17.5 47.7zm-.3 1.9zm-2.4 10zM92.3 81zm-4.5 8.3zm3.1.6zm3.7-3.3zm8.1-21.1zm4.1-17.1zm-1.3-3.4zm-7.9-18.4zm-6.6-9zm0-.9zm-8.7-3.5zm-9-2.2zm-3.8-2.8zm-.6-.1zM66.7 7zM45.8 8.1zm0 0zm7.4 6.5zM80 27.5zm0 0zm10.4 11.7zm4.7 35.4zm-5.2 13.6zm-3.3 6zm2.6-2.5zm1.4-.3zm.1-.2zm1.1-4zm14.9-37.8zm-3.2-4.4zm-7-21.5zm-1.8-.2zm-4.9-6.5zM84 13zM68 7zm-23.7-.8zm1.2 3.9zm7.7 3.9zm8.2-3.4zm.7.1zm5 3zm5.8 5.3zm14.7 16.3zM96 69.9zm-5.5 16.6zm-2.7 1.4zm-4.4 10.2zm7.7-5zm.4-4.7zm10.9-21.7zm5.2-10.7zm-.8-10.7zm-3.2-10zm-12-19zm-1.4-.9zm-1.4 0zm-32.7-10zm-9.1.2zm-.1.6zm7.3 8.2zm0-1.9zm.6-.1zm32.3 22.9zm.7.1zm3.4 7zM96.1 54zm-2.2 26.5zM78 99.2zm.6-2.3zm3.1 2.9zm14.9-15.3zm2.3-3zm4.3-13.9zm1.7-30.2zM66.4 5.3zM39.8 3.7zm21 9.1zm9.4 6.8zm2.3.7zM86 37.2zm-3 57.5zm-15 9.1zm.3-.3zm-.8-.8zm11.8-1.3zm5.3-3.4zm5.3-3.9a.1.1 0 0 1 0-.1zm12.9-21.3zm1.9-7.4zm.7-1.6zm1.6-3.2zM100.5 27zM92 17.9zM64 5.5zM40 2.2c-.1.1-.2.3-.4.2a.3.3 0 0 0 .1-.3h.2a.4.4 0 0 0 .1.1zm-3.2 5.1zM62 14.2zm.3.3zm.8.3zM86.9 38zm4.3 5.6zm3.1 8.3zm0 23.8zm-3.7 5.5zm-7.2 11.3zm-.3 1.8zM81.5 93zm-6.4 7.2zm-6.8 3.2zm19-6.2a.2.2 0 0 1 0 .2zm5.2-5.1zm2.2-2.1zM94 18.6zm-12-8.5zm-3.7-.8zm-4-.1zM52.7 5zm-5-1.5zM31.4 8.7zm-.6 3.2zm-1.7.6zm-1 0zM35 9.2h-.2zm-8.3 3.2zM24 15.2zm-1-.5zm63.8 24.7zm-9 57.3zm-3.4 2.9zm-15 6.8zm3.8-1.5v-.1zm1.1-1zm-.1 3zm11.4-2.2zM99.8 81zm0 0zm7.7-20.9zm-.1-11.8zm-.3-5.5zm-46-40.2zm-7 .9zM30.9 13.9zm17.5-.3zm25.3 8.7zm5.6 9.7zm6.1 8.1zm7 37.6zm-14.6 18zm-12.3 6.9zm-5.8 2.3zm12.1.2zm4.2-1.4zm21.4-14.6zm11.4-30.3zM75.7 9.1zm-5.3-2.9zM43 3.6zm-12.9 6.5zm-9.3 8zm0 0zm.1.2c.1.1.2.2.1.3h-.2a.4.4 0 0 1 .1-.3zm.5-.3zm4.2-2.3zm21.7.2zm26 6.7zm5.5 12.1zm5.4 1.8zm9.3 18zM94.8 69zM91 79.9zM75.7 96.6zm-7.4 10zm12.3-3.7zm5.7-3.1zm.3-.3zm1.9-2.2zm14.1-18.6zm1.6-8.3zm-8.6-50.2zm-2.3-2.8zm-.5-1.3zm-26-12zM32 8zm1.8 3.6zm13.4 2zm0 .1zm-.3 2.7zm29 13.6zm-3.6 69.3zm-3.5 1.8zm7.9 3.5zm32.2-47.4zm-.8-7.5zM94.9 19.4zm-74.7-.5l.3-.2a.5.5 0 0 1 .1.3h-.4zm-.1-.1H20a.7.7 0 0 0 0-.7c.3.1.1.4 0 .7zm-4.2 4.5zm0-.1zm1.5-.8a.8.8 0 0 1 0-.5c.2 0 .1-.3.3-.3a.5.5 0 0 1 .2.3c-.2.1-.3.2-.1.4zm20.5-8.7a.1.1 0 0 1-.1 0zm7.8-.9zm1.9 1.2zm-.7 2.2zm1.4.8zm4.6.2h-1c-.1-.1-.1-.2-.1-.3a.3.3 0 0 0 .1-.2.1.1 0 0 0 0-.1 1.2 1.2 0 0 1 0-.5c.2.1.3-.1.3-.3a.9.9 0 0 0 0-.4 1.7 1.7 0 0 1 .1.7.7.7 0 0 0 .2.6h.5a.9.9 0 0 1 0 .3zm4.9-2.7zm7.2 2.9zm28 38.3zm1.8 3.3zm-9 27.6zm-2.4 1.8zm0 .2zm3.8 10.8zm12-13.2l-.4.3h-.3c-.1-.3 0-.6-.3-.8h-.1c0-.1 0-.2.2-.1h.7c.2.1.3.1.4 0a.3.3 0 0 1-.2.5zm3.4-6.2zm3.9-16.4zm-60.8 44.5c-.2-.1-.1-.3-.1-.4.1-.5-.2-.9-.1-1.3h-.7l-1.1-.5H43s.1-.1 0-.1-.5 0-.7-.2h-.2a.6.6 0 0 0-.7 0h-.2c-.1-.2-.1-.3-.4-.2s-.3.3 0 .4l1.3.4c.4.1.6.5 1.1.4.1.1.2.1.3.1h.2c-.1.2.2.3.2.5s.2.9 0 1.4h-.1a.3.3 0 0 0-.3-.2c-.1 0-.2 0-.2-.2s0-.3-.2-.3-.2.1-.3.2l-.2.2c0-.3-.2-.4-.5-.3h-.4c0 .2-.1.4.2.4s.2.1.2.2h.6c.3 0 .6-.1.8.1h.2c.1.2.2.1.3 0h.7c.1.1.2.1.4 0a.5.5 0 0 1 .5 0c.2-.3.4-.4.1-.6zm-1.3-1.3zM27.9 104l-.6-.5c-.1-.1-.1-.1-.2.1s-.2.1-.3 0-.2-.1-.3.1a1.1 1.1 0 0 0 .7.3c.2 0 .4 0 .5.3h.1c.1-.1.3.2.4 0s-.2-.2-.3-.3zm7.5 3.5c-.3.1 0 .2 0 .3a.5.5 0 0 0 .6 0l.2-.2c-.2-.2-.5-.1-.8-.1zm-.8-.6c-.2 0-.2.2-.2.3h.1c.1 0 .3 0 .3-.2s-.1-.1-.2-.1zm73.7-72.3c.3 0 .4-.2.4-.5s-.2-.6-.5-.6-.5.2-.5.5a.7.7 0 0 0 .6.6zM1.9 54h-.2c.2.1-.2.4.1.5H2c0-.1-.1-.2 0-.4s0-.1-.1-.1zm38.6 50.6c.3.1.2-.1.2-.2v-.2l-.7-.3v-.2a1.8 1.8 0 0 0-1.4-.5.7.7 0 0 0-.8 0c-.2.3.1.3.3.3s.6.2.3.6a.3.3 0 0 0 0 .3c.3-.1.3-.1.6.1a.3.3 0 0 1 .2.3l.2-.2h.1c.3 0 .3.3.6.3s.1-.3.4-.3zm-1-.7zm.9 4.3c.1.2.3.2.5.1a.6.6 0 0 0-.1-.4c-.1.1-.7-.4-.4.3zm-1.1-.4h-.4c-.1.1-.3 0-.2.2v.2c.2.2.3.1.5-.1h.2c.2 0 .4.1.5-.1a.1.1 0 0 0 0-.1.5.5 0 0 0-.6-.1zm-.3-.4h.1a.2.2 0 0 0 .2-.2h.1a.2.2 0 0 1 .1-.2h.1c.1-.1.1-.3 0-.4a.4.4 0 0 0-.4 0c-.2.1-.1.3 0 .4v.2c-.2 0-.2.1-.2.2z" fill-rule="evenodd"/><path d="M2.9 46.2c-.3.1-.4-.4-.7-.4s.1.4 0 .5 0 .1.1.1.6.1.6-.2zm10.5-22.6c.1-.1 0-.2 0-.3-.2-.1-.2-.3-.3-.4H13c-.2.1-.4.2-.4.5s.1.3 0 .3-.2.3-.4.4.1.3 0 .4.3 0 .3-.1.3-.2.6 0v-.9c.1-.1.2.2.3.1zm24.3 84.3a.4.4 0 0 0 .4.3c0-.2-.1-.3-.4-.3zm-13.4-8.5c-.1 0-.1-.2-.1-.2h-.1c-.2.5 0 .9.4.9s-.2.5.1.7a1.3 1.3 0 0 1 0-.3c.2-.7.2-.8-.3-1.1zM3.4 40.5h.3c-.1-.4-.3-.6-.8-.3s.3.8.2 1.2.3-.6.3-.9zm-1.1 1.9h-.2v.2h.3v-.2c.2.1.1-.4.4-.1s.1-.1.2-.2-.6-.4-1-.5a.6.6 0 0 1 .3.8zm.2-3.2c-.1 0-.3.1-.2.2s0 .6.2.9h.1c0-.1-.1-.3.2-.4s.2-.2.1-.4-.3 0-.4-.3zm1.8 1.1h-.1c-.2.1-.1.2-.1.4.2-.2.2-.3.2-.4zm-.2.3zm14.5-21.4c.1 0 .1-.1.1-.2v-.2s-.2.1-.2.2 0 .2.1.2zM6.9 35.9c0 .1.2.1.3.2h.1c.1-.2-.2-.3 0-.5s-.2.2-.4.3zm.2-4.4c.2-.1.5-.3.3-.6s-.4.3-.7.3.3.4.4.3zm-.4-1.7h.2c-.1-.1.1-.4-.2-.5s.1.4 0 .5z" fill-rule="evenodd"/><circle cx="6.7" cy="29.4"/><path d="M8.1 30.4l-.2-.2a.6.6 0 0 0-.1.4c.2.1.4.2.3-.2zm-6.2 9.1a.5.5 0 0 0 .3-.3H2c0 .1-.2.2-.1.3zM63.4 3.6zM8.7 27.8a.5.5 0 0 0 .6-.3l-.3-.2c.1.3-.4.2-.3.5zM5.6 39.5c-.1 0-.2-.1-.2.1s0 .2.1.1.1-.2.1-.2zm1.8-6h.4a1 1 0 0 1 .2.5c.4 0 .5-.4 1-.5a.5.5 0 0 1-.5-.8c-.2-.1-.5-.3-.6 0a1.5 1.5 0 0 0-.1.7 4.6 4.6 0 0 1-.1-.8c.4 0 .5-.2.6-.5v-.4h.2c.2-.2-.1-.1-.1-.2l-1.4.4a.1.1 0 0 0 0 .3c.6.2.2.5.1.7s0 .5.3.6zm-.6.7c-.1 0-.1.2 0 .2s.3.4.6.5v-.2c-.1-.1-.1-.2-.1-.3s.3-.5 0-.7-.2.4-.5.5zm1.8-4.1c-.3 0-.1.4-.4.5a.4.4 0 0 0 0 .4c.3 0 .5-.6.4-.9zm-2 3.8c.1-.3.1-.3-.1-.7l-.4.4c.3 0 .3.3.5.3zM5.5 33c0 .1 0 .1.1.1h-.1zm76.8 57.2zm25.3-30.1zM14.9 22.2h.1c.1-.1 0-.2-.1-.3s-.1.1 0 .3zM2.7 42.7h-.2c0 .1.1.1.2.1z" fill-rule="evenodd"/><circle cx="64.2" cy="107" transform="rotate(-63.4 64.296 107.036)"/><circle cx="50.1" cy="14.1"/></g></svg>