<svg xmlns="http://www.w3.org/2000/svg" viewBox="0 0 53 53"><path d="M36.53 5.324c-7.098-7.098-18.607-7.098-25.706 0C4.428 11.72 3.708 23.763 9.136 31l14.541 21 14.541-21c5.428-7.237 4.708-19.28-1.688-25.676zM23.854 24a6 6 0 1 1 0-12 6 6 0 0 1 0 12z" fill="#0096e6"/><circle cx="35.5" cy="41" r="12" fill="#26b999"/><path d="M42.071 35.179a.999.999 0 0 0-1.392.25l-5.596 8.04-3.949-3.242a.999.999 0 1 0-1.268 1.546l4.786 3.929a1.003 1.003 0 0 0 1.455-.201l6.214-8.929a1.002 1.002 0 0 0-.25-1.393z" fill="#fff"/></svg>