<svg xmlns="http://www.w3.org/2000/svg" height="219.07" width="219.83"><path d="M110.025 134.385c4.68 0 7.8-3.34 10.25-8.02l26.97-51.49c1.79-3.34 3.79-8.47 5.8-13.6v119.47c0 6.46 4.46 8.25 9.14 8.25 4.68 0 8.24-1.79 8.24-8.47V38.545c0-6.02-4.23-8.47-9.58-8.47-6.46 0-9.36 2.68-12.48 8.47l-38.34 74-38.56-74c-3.12-5.79-6.02-8.47-12.48-8.47-5.35 0-9.58 2.45-9.58 8.47v141.98c0 6.68 3.56 8.47 8.24 8.47s9.14-1.79 9.14-8.25V61.275c2.01 5.13 4.01 10.26 5.8 13.6l26.97 51.49c2.45 4.68 5.57 8.02 10.47 8.02z" fill="#51AF8A" xmlns:name="main_text"/><path d="M217.55 119.51l-2.28-2.85-4.75-5.89 6.84-7.6 2.28-2.66-2.85-2.47-2.85-2.28c-2.85-2.28-5.89-4.75-8.17-6.84a139.84 139.84 0 0 0-15.01-11.78c-7.22-5.32-13.3-8.74-20.71-13.87l-2.47-1.71c-3.04-4.94-6.27-10.26-10.26-15.96s-11.78-15.2-17.86-22.8l-2.28-2.66L125.4 7.41l-3.42-3.8L118.94 0l-3.42 3.04-6.84 6.08-3.99-2.85-4.18-3.23-3.8-2.85-2.66 3.61C85.69 14.82 77.52 26.03 68.4 36.86l-3.8 4.94-12.54 16.15c-4.94 4.37-9.5 8.55-13.68 12.73A295.45 295.45 0 0 1 10.07 95l-8.36 5.89L0 102.03l1.33 2.09 2.47 3.61 4.94 6.46-.38.38c-2.09 2.85-4.37 5.13-6.84 7.6L.19 123.5l1.71 1.9 3.23 3.04 12.54 10.83.57.57a155.61 155.61 0 0 0 12.92 10.83l7.03 5.51c6.08 5.32 12.16 9.5 18.05 13.68l3.23 2.28 2.09 2.09a49.59 49.59 0 0 1 3.99 4.37 159.6 159.6 0 0 1 9.88 14.06l3.61 5.7c4.37 6.65 9.88 11.97 14.82 17.48a10.64 10.64 0 0 0 3.61 2.85l1.9-.38c.38.38 1.52.19 3.23-.57a62.13 62.13 0 0 0 7.6-3.61l3.99 2.85a10.64 10.64 0 0 0 3.99 2.09l1.9-.76c.38.19 1.52-.19 3.04-1.14a68.59 68.59 0 0 0 16.91-15.96c3.61-2.85 6.84-7.41 10.26-11.97l8.93-10.83 2.47-3.61 2.66-3.99 4.18-5.7a46.36 46.36 0 0 0 6.27-6.65l1.71-1.71c7.98-7.03 15.58-13.87 24.32-20.33 5.32-3.8 10.45-7.41 16.15-11.78l2.85-2.09zm-6.27-18.05l-3.99 5.13a157.32 157.32 0 0 0-11.21-12.73c-6.08-6.46-11.4-11.02-17.48-17.67l9.5 7.41c7.6 6.27 15.39 11.97 22.99 17.86zm-43.7 52.63l-7.98 9.69-1.14.95-23.18 18.81-8.74 7.22c-2.66 2.09-5.51 4.75-8.17 7.03l-7.6 6.84-4.94-4.37a110.77 110.77 0 0 1-9.5-8.93l-2.47-1.9a163.02 163.02 0 0 1-16.53-13.11l-4.18-3.23-6.27-4.75-6.27-4.94-3.8-4.37-8.17-9.5c-6.08-7.22-12.73-14.06-18.05-21.85-2.85-2.66-4.56-6.46-7.6-9.12a40.66 40.66 0 0 1-2.85-3.42l-1.52-1.71c6.27-7.98 12.54-16.15 19-23.94l15.01-19 5.32-6.84 3.99-3.42c7.6-6.46 15.01-13.3 22.99-19.38 1.9-1.52 3.99-3.42 6.08-5.13s5.89-5.51 8.74-7.6l9.31-7.41 6.65 5.13c10.26 8.17 20.52 16.15 30.59 24.7l3.61 2.66a55.29 55.29 0 0 1 7.03 5.13l.38.38a31.73 31.73 0 0 0 3.42 3.61 75.62 75.62 0 0 1 7.03 7.98c3.42 3.99 5.51 7.22 8.55 11.02s10.64 12.16 15.77 18.24l10.83 12.54a54.72 54.72 0 0 1-6.27 7.79l-1.9 2.66c-1.33 1.9-2.85 3.8-4.18 5.51l-16.15 18.81c-2.28 2.47-4.56 4.56-6.84 7.22zM117.99 12.54l10.83 12.16-7.41-6.08-2.66-2.09-3.04-2.09zm-19.57.19l3.42 2.47c-5.51 4.75-11.02 9.5-16.72 14.25 4.75-5.51 8.93-11.21 13.3-16.91zm-87.78 90.82l2.47-1.71 2.66-2.28 15.01-12.92c-5.13 7.41-10.64 14.44-16.34 21.47zm.19 19.38l2.09-2.28.57-.76.76.95.57.76a156.18 156.18 0 0 0 10.45 13.11h.19l-3.04-2.47zm92.34 89.3l-3.04 3.42c-.76-3.61-6.08-10.83-11.4-17.67a114.76 114.76 0 0 1-7.22-10.26 123.88 123.88 0 0 1 10.26 9.69l4.75 4.75a74.86 74.86 0 0 0 8.93 7.79zm19.57-.76a32.87 32.87 0 0 0-2.28 3.99 24.13 24.13 0 0 0-4.37-5.51l6.27-4.94a62.32 62.32 0 0 0 10.45-7.98c-3.61 4.94-7.22 10.07-10.07 14.44zm70.87-74.67l-2.28 2.28-5.13 4.56-4.94 3.99 1.52-2.85 1.52-2.09c6.46-8.36 12.54-16.53 19.95-24.7l2.28-2.28 5.32 5.89-7.79 6.84a95 95 0 0 1-10.45 8.36z" xmlns:name="outlineContainer_mainfill" fill="#303030"/></svg>