<svg xmlns="http://www.w3.org/2000/svg" height="70.866" width="347.802"><path d="M24.366 48.123s-5-16.64-6.5-20.88c-1.41-3.92-4.07-5.65-6.69-5.65-2.09 0-4.67 1.08-5.14 2.48-.29.83 1.65.9.18 4.68 0 .03-6.18 19.37-6.18 19.37-.11.18.07.18.07.18h7.51s.18 0 .25-.18c0 0 .36-1.55.79-3.81h6.37l.89 3.81c.04.18.22.18.22.18h8.12s.18 0 .11-.18zm-14.7-8.66c.68-3.27 1.44-7.8 2.08-10.43l2.13 10.43zm33.32 3.27c-.14-.11-.36-.07-.5.03-3.67 2.2-9.78 2.92-10.35-3.52-.26-2.66.68-5.71 2.62-5.71 1.01 0 1.73 1 1.73 2.48 0 .72-.15 1.15.03 1.47.15.22 1.33.61 2.52.61 2.12 0 3.52-1.87 3.48-3.59 0-3.42-4.02-5.04-8.05-5.04-5.5.26-9.52 4.53-9.52 9.78 0 5.43 4.35 9.81 9.81 9.81 5.25 0 7.91-4.24 8.34-5.75.07-.32 0-.46-.11-.57zm12.51-5c-2.48-.72-4.6-1.18-4.6-2.95 0-.68.57-1.65 1.69-1.69 1.22-.03 1.83.62 1.83 2.05 0 .72-.14 1.19.04 1.48.14.25 1.33.64 2.59.64 2.23 0 3.52-1.4 3.48-3.12 0-3.2-4.27-4.68-8.48-4.68-3.67 0-8.09 2.12-8.09 5.86v.11c.04 2.84 2.45 4.57 4.89 5.43 2.66.86 5.07 1.26 5.14 2.98-.03.97-.61 1.62-1.94 1.62-1.22 0-2.12-.75-2.12-2.19 0-.69.14-1.15-.07-1.48-.15-.28-1.51-.61-2.7-.61-2.08 0-3.49 1.51-3.49 3.27 0 3.56 5.25 4.68 8.45 4.68 4.1 0 9.28-1.51 9.28-5.86 0-3.27-3.02-4.71-5.9-5.54zm15.46 10.35v-13.19c0-3.38-2.09-5.46-5-5.46-2.01 0-3.95 1.4-4.35 2.55-.32.97 2.12-.25 2.12 5.46 0 2.48-.28 10.68-.28 10.68 0 .14.17.18.17.18h7.19s.15-.04.15-.22zm-.25-22.97c0-1.83-1.91-3.34-4.21-3.34s-4.17 1.51-4.17 3.34c0 1.87 1.87 3.35 4.17 3.35s4.21-1.48 4.21-3.35zm21.82 14.24c0-5.39-4.28-9.78-10.07-9.78s-10.06 4.39-10.06 9.78c0 5.43 4.27 9.78 10.06 9.78 5.9 0 10.07-4.35 10.07-9.78zm-13.05 0c0-3.09.86-5.72 2.98-5.72 2.09 0 2.98 2.63 2.98 5.72 0 3.16-.82 5.71-2.98 5.71-2.08 0-2.98-2.69-2.98-5.71zm43.92 1.62v-5.61c0-3.6-2.26-5.93-4.96-5.93-1.9 0-4.38 1.11-5.86 4.28-.57-2.66-2.51-4.28-4.78-4.28-1.87 0-4.31 1.11-5.78 4.13-.51-2.59-2.41-4.13-4.93-4.13-2.01 0-3.95 1.4-4.31 2.55-.36.97 2.08-.25 2.08 5.46 0 2.48-.25 10.68-.25 10.68 0 .14.14.18.14.18h7.19s.18-.04.18-.22v-9.63c0-4.24 3.38-5.5 3.38-1.9 0 .79.04 1.69 0 2.55-.03 2.33.04 9.02.04 9.02-.04.14.14.18.14.18h7.19s.18-.04.18-.22c0 0-.29-6.65-.29-8.98v-.65c0-4.24 3.38-5.5 3.38-1.9v6.97c0 3.38 2.41 5.46 5.29 5.46 2.01 0 3.95-1.4 4.35-2.51.36-1.01-2.38.21-2.38-5.5zm30.13 2.19c-.08-.65-.43-1.4-.9-1.76-.65-.5.21 1.29-7.34 1.29h-.61v-15.2c0-4.1-2.51-5.75-5.32-5.75-2.12 0-4.49 1.43-4.92 2.62-.32.93 1.87-.04 2.26 4.24 0 .04-.03 2.34 0 19.52-.03.18.15.18.15.18 3.66 0 6.4.47 8.66.75 4.1.58 8.63-.93 8.02-5.89zm9.27 4.92v-13.19c0-3.38-2.08-5.46-5-5.46-2.01 0-3.95 1.4-4.35 2.55-.32.97 2.13-.25 2.13 5.46 0 2.48-.29 10.68-.29 10.68 0 .14.18.18.18.18h7.19s.14-.04.14-.22zm-.25-22.97c0-1.83-1.91-3.34-4.21-3.34s-4.17 1.51-4.17 3.34c0 1.87 1.87 3.35 4.17 3.35s4.21-1.48 4.21-3.35zm31.85 15.86v-5.61c0-3.6-2.27-5.93-4.96-5.93-1.91 0-4.39 1.11-5.86 4.28-.58-2.66-2.52-4.28-4.78-4.28-1.87 0-4.32 1.11-5.79 4.13-.5-2.59-2.41-4.13-4.93-4.13-2.01 0-3.95 1.4-4.31 2.55-.36.97 2.09-.25 2.09 5.46 0 2.48-.26 10.68-.26 10.68 0 .14.15.18.15.18h7.19s.18-.04.18-.22v-9.63c0-4.24 3.38-5.5 3.38-1.9 0 .79.03 1.69 0 2.55-.04 2.33.03 9.02.03 9.02-.03.14.15.18.15.18h7.19s.18-.04.18-.22c0 0-.29-6.65-.29-8.98v-.65c0-4.24 3.38-5.5 3.38-1.9v6.97c0 3.38 2.4 5.46 5.28 5.46 2.01 0 3.95-1.4 4.35-2.51.36-1.01-2.37.21-2.37-5.5zm11.43 7.11v-13.19c0-3.38-2.09-5.46-5-5.46-2.01 0-3.95 1.4-4.35 2.55-.32.97 2.12-.25 2.12 5.46 0 2.48-.28 10.68-.28 10.68 0 .14.18.18.18.18h7.18s.15-.04.15-.22zm-.25-22.97c0-1.83-1.91-3.34-4.21-3.34s-4.17 1.51-4.17 3.34c0 1.87 1.87 3.35 4.17 3.35s4.21-1.48 4.21-3.35zm14.56 19.95c-1.41 0-3.64.65-4.1-2.26-.04-.36-.07-.72-.07-1.15v-8.05h4.34s.15 0 .15-.18v-3.02c0-.18-.11-.18-.11-.18h-4.38c0-3.06-.04-5.57-.04-5.57.04-.15-.14-.18-.14-.18l-6.91 2.84s-.18 0-.18.18v2.73h-1.83s-.14 0-.14.14v3.06c0 .18.14.18.14.18h1.83v10.03c0 2.26.97 3.92 2.45 4.81.93.54 2.05.79 3.2.83 2.59 0 5.28-1.33 6.25-3.27.25-.47.18-.94-.46-.94zm19.08-2.33c-.14-.11-.32-.07-.46.03-4.39 2.45-9.17 2.09-10.43-1.51 4.71.8 11.29.11 11.29-5.53 0-2.55-2.55-6.26-8.45-6.26-6.18 0-10.24 4.53-10.24 9.78 0 5.43 4.35 9.81 9.77 9.81 5.25 0 8.24-4.24 8.63-5.75.11-.32.04-.46-.11-.57zm-9.31-8.84c.29-.18.61-.29.87-.33h.1c.04 0 .04-.03.04-.03 1.11-.08 1.9.75 1.9 1.72 0 1.94-1.58 3.13-4.78 2.84.15-1.76.69-3.49 1.87-4.2zm30.16 7.15v-18.44c0-.15-.14-.15-.14-.15h-7.19s-.18 0-.18.18v10.28c-1.12-2.01-2.88-3.41-5.36-3.41-4.74 0-7.22 4.82-7.22 9.74 0 4.82 2.51 9.81 7.04 9.81 2.52 0 4.46-1.72 5.68-4.09.51 2.55 2.41 4.09 4.89 4.09 2.01 0 3.96-1.4 4.31-2.55.36-.97-1.83.25-1.83-5.46zm-9.99 3.05c-1.76 0-2.73-2.15-2.73-4.85 0-2.69.97-4.89 2.73-4.89s2.69 2.2 2.69 4.89c0 2.7-.93 4.85-2.69 4.85z" xmlns:name="main_text" fill="#9B2D30"/><g xmlns:name="symbol_mainfill"><path d="M338.943 35.36v.072c0 8.393-3.91 15.887-10.005 20.76 8.405-5.447 13.977-14.91 13.977-25.65 0-16.266-12.777-29.601-28.822-30.5A35.878 35.878 0 0 0 312.37 0c-12.166 0-22.917 6.163-29.3 15.53 5.774-7.094 14.57-11.634 24.41-11.634 17.35 0 31.464 14.115 31.464 31.465z" fill="#9B2D30"/><path d="M331.846 5.849c7.295 5.767 11.985 14.692 11.985 24.692 0 17.116-13.736 31.082-30.763 31.456-.233.006-.466.01-.7.01-8.21 0-15.561-3.743-20.44-9.611 5.495 8.13 14.798 13.486 25.329 13.486 16.55 0 30.065-13.227 30.535-29.665.005-.26.01-.522.01-.784 0-12.348-6.35-23.24-15.956-29.584z" fill="#E9F6FC"/><path d="M280.9 40.323c0-17.112 13.733-31.077 30.756-31.456.237-.006.474-.01.713-.01 8.535 0 16.141 4.046 21.007 10.318-5.407-8.62-14.993-14.363-25.898-14.363-16.046 0-29.242 12.435-30.457 28.176a35.736 35.736 0 0 0-.085 2.445c0 12.34 6.342 23.225 15.936 29.572-7.287-5.768-11.971-14.688-11.971-24.682z" fill="#E9F6FC"/><path d="M317.257 66.798c-17.35 0-31.465-14.115-31.465-31.465h.003c.03-8.364 3.946-15.829 10.031-20.683-8.423 5.445-14.009 14.919-14.009 25.673 0 16.281 12.801 29.626 28.867 30.502a35.8 35.8 0 0 0 1.685.041c12.614 0 23.707-6.627 29.987-16.58-5.749 7.595-14.86 12.512-25.1 12.512z" fill="#E9F6FC"/></g></svg>