<svg xmlns="http://www.w3.org/2000/svg" height="277.48" width="274.785"><path d="M134.968 19.705c-20.3 0-36.97 5.46-50 16.37-12.73 10.6-19.09 24.54-19.09 41.81 0 31.52 23.03 53.34 68.79 65.76 32.73 8.79 46.36 20.61 46.36 39.7 0 19.39-16.97 32.12-48.48 32.12-19.7 0-37.88-3.94-54.55-12.12-2.42 3.33-3.63 7.57-3.63 12.42 0 5.15 6.06 10.61 18.18 15.76 12.12 5.15 26.66 7.58 43.33 7.58 22.12 0 40-5.16 53.03-15.46 13.33-10.6 20-24.24 20-41.51 0-29.09-18.79-47.88-63.33-62.43-37.58-12.12-51.52-23.33-51.52-42.42 0-20.3 16.67-33.64 40.91-33.64 23.03 0 38.79 10.61 47.58 31.52 6.66-.31 12.72-2.12 18.48-5.15 7.58-4.55 6.37-9.4 3.64-14.25-12.43-21.82-38.18-36.06-69.7-36.06z" xmlns:name="main_text" fill="#9B2D30"/><path d="M55.648 248.545c-.9-.34-1.81-.47-2.78-.47-2.51 0-4.16 1.44-4.16 3.5 0 1.69.85 2.64 3.23 3.72 2.09.96 2.68 1.64 2.68 2.8 0 1.39-1.14 2.28-2.85 2.28-.88 0-1.77-.19-2.82-.7l-.17 1.54c.93.38 1.98.55 3.08.55 2.63 0 4.43-1.56 4.43-3.84 0-1.73-.99-2.82-3.27-3.84-2.11-.97-2.66-1.62-2.66-2.65 0-1.19 1.1-2.01 2.59-2.01.79 0 1.59.17 2.49.57zm11.1 8.5c.02-.21.04-.49.04-.66 0-3.18-1.54-4.72-4.03-4.72-2.68 0-4.51 1.96-4.51 4.98 0 3.18 1.79 5.12 4.96 5.12 1.09 0 2.02-.19 2.87-.57l-.05-1.43c-.86.46-1.7.71-2.74.71-2.07 0-3.42-1.3-3.46-3.43zm-6.88-1.19c.15-1.92 1.31-2.99 2.85-2.99s2.55.97 2.55 2.99zm11.02-2.23c0-.49-.01-1.23-.07-1.75h-1.52c.07.82.09 1.87.09 2.89v6.79h1.56v-4.68c0-2.32 1.01-3.78 2.66-3.78.36 0 .65.04.9.11v-1.42a2.88 2.88 0 0 0-.88-.12c-1.23 0-2.22.82-2.7 1.96zm9.36-.68c1.75 0 2.95 1.61 2.95 3.72 0 2.11-1.26 3.64-2.97 3.64-1.73 0-2.83-1.45-2.83-3.6 0-2.17 1.18-3.76 2.85-3.76zm3.02-1.07c0 .5 0 .97.04 1.58h-.04c-.59-1.05-1.63-1.79-3.17-1.79-2.61 0-4.34 2.08-4.34 5.08 0 2.87 1.68 4.81 4.22 4.81 1.58 0 2.65-.82 3.24-1.88h.03c-.03.38-.03.87-.03 1.21 0 2.15-.88 3.58-3.22 3.58-1.14 0-2.2-.27-3.33-.88l-.15 1.54c1.16.46 2.26.65 3.54.65 3.29 0 4.64-2.03 4.64-4.68v-9.22zm6.43-3.76h-1.75v1.78h1.75zm-.1 3.76h-1.56v9.68h1.56zm8.43-4.62c-.44-.11-.8-.15-1.24-.15-2.15 0-2.95 1.46-2.95 3.61v1.22h-2.22v1.24h2.22v8.38h1.52v-8.38h2.51v-1.24h-2.51v-1.26c0-1.52.42-2.28 1.62-2.28.29 0 .61.04.93.12zm9.26 1.03h-2.72v13.27h1.59v-8.96c0-.62 0-2.12-.03-3.13h.03c.23.78.75 2.2.97 2.79l3.69 9.3h1.52l3.73-9.49c.23-.59.67-1.73.97-2.6h.04c-.04 1.01-.04 2.51-.04 3.13v8.96h1.64v-13.27h-2.67l-3.36 8.84c-.23.59-.71 1.94-.95 2.76h-.04c-.25-.84-.7-2.17-.93-2.78zm22.66 8.76c.02-.21.04-.49.04-.66 0-3.18-1.54-4.72-4.03-4.72-2.68 0-4.51 1.96-4.51 4.98 0 3.18 1.79 5.12 4.96 5.12 1.09 0 2.02-.19 2.87-.57l-.05-1.43c-.86.46-1.69.71-2.74.71-2.07 0-3.42-1.3-3.46-3.43zm-6.88-1.19c.15-1.92 1.31-2.99 2.85-2.99s2.55.97 2.55 2.99zm17.79-8.67h-1.56v3.86c0 .95.02 1.86.06 2.41h-.04c-.57-1.1-1.78-1.79-3.21-1.79-2.6 0-4.24 2.13-4.24 5.14 0 2.91 1.58 4.96 4.22 4.96 1.5 0 2.63-.76 3.33-1.98h.04c0 .61.02 1.24.05 1.77h1.45c-.08-.82-.1-1.9-.1-2.93zm-4.5 5.76c1.75 0 2.96 1.63 2.96 3.82 0 2.13-1.29 3.73-2.96 3.73-1.75 0-2.85-1.64-2.85-3.73 0-2.24 1.16-3.82 2.85-3.82zm9.5-4.83h-1.74v1.78h1.74zm-.09 3.76h-1.56v9.68h1.56zm3.71 2c.83-.59 1.86-.93 2.83-.93 1.75 0 2.51.99 2.51 2.62v.17c-.42-.04-.95-.06-1.35-.06-3.29 0-5.11 1.11-5.11 3.14 0 1.75 1.31 2.87 3.32 2.87 1.52 0 2.65-.7 3.23-1.82h.04c-.02.26-.04.64-.04.89 0 .29.02.65.04.8h1.41c-.08-.68-.11-1.83-.11-2.89 0-.46.03-1.96.03-3.19 0-2.23-1.02-3.81-3.72-3.81-1.09 0-2.27.27-3.18.82zm5.36 2.96c0 2.51-.99 3.66-2.85 3.66-1.2 0-2-.65-2-1.68 0-1.4 1.29-2.01 3.78-2.01.46 0 .82.02 1.07.03zm11.01-8.55h-1.64v13.27h7.19v-1.39h-5.55zm9.22-.17h-1.75v1.78h1.75zm-.1 3.76h-1.56v9.68h1.56zm4.8 1.68c0-.5-.02-1.22-.06-1.68h-1.48c.07.82.09 1.87.09 2.89v6.79h1.56v-4.66c0-2.57 1.08-3.93 2.68-3.93 1.33 0 1.84.87 1.84 3.04v5.55h1.56v-4.58c0-2.74.95-4.01 2.57-4.01 1.69 0 1.96 1.33 1.96 3.49v5.1h1.56v-5.8c0-2.57-.91-4.09-3.16-4.09-1.48 0-2.6.78-3.25 2.11-.38-1.29-1.31-2.11-2.74-2.11-1.4 0-2.53.76-3.1 1.89zm17.16-5.44h-1.74v1.78h1.74zm-.09 3.76h-1.56v9.68h1.56zm5.53-2.7l-1.52.52v2.24h-2.15v1.24h2.15v5.15c0 1.99.59 3.34 2.87 3.34.5 0 .99-.09 1.41-.22l-.06-1.24c-.34.15-.66.23-1.02.23-1.34 0-1.68-.93-1.68-2.47v-4.79h2.59v-1.24h-2.59zm12.7 7.87c.02-.21.04-.49.04-.66 0-3.18-1.54-4.72-4.03-4.72-2.68 0-4.51 1.96-4.51 4.98 0 3.18 1.79 5.12 4.97 5.12 1.08 0 2.01-.19 2.87-.57l-.06-1.43c-.85.46-1.69.71-2.74.71-2.07 0-3.42-1.3-3.46-3.43zm-6.88-1.19c.15-1.92 1.31-2.99 2.85-2.99s2.55.97 2.55 2.99zm17.8-8.67h-1.56v3.86c0 .95.02 1.86.05 2.41h-.03c-.57-1.1-1.79-1.79-3.22-1.79-2.6 0-4.24 2.13-4.24 5.14 0 2.91 1.58 4.96 4.22 4.96 1.51 0 2.63-.76 3.33-1.98h.04c0 .61.02 1.24.06 1.77h1.44c-.07-.82-.09-1.9-.09-2.93zm-4.51 5.76c1.75 0 2.97 1.63 2.97 3.82 0 2.13-1.3 3.73-2.97 3.73-1.75 0-2.85-1.64-2.85-3.73 0-2.24 1.16-3.82 2.85-3.82z" xmlns:name="slogan_text" fill="#9B2D30"/><g transform="matrix(2.8 0 0 2.8 .022 .1)" xmlns:name="outlineContainer_mainfill" fill="#644D52"><path d="M39.1 98.3zm22.2.1zm-38.6.3zm46.8-.3zm13.2-.1zM54.6.6zM1.1 36.9zm1.8 60.2zm9.1 1.3zM.8 47.9zm1 16.4zm63.1 34.2zM98.1 2.2H98v-.8h-.1a.9.9 0 0 1-.1-.4V.9h-.1v.5-.3h-1.5c-.2 0-.3-.1-.2-.1s.3-.1.2-.2l-.6-.3h-6.7c-.1 0-.1.1 0 .1h.5v.1H77.6l-.5.2h-3.4c.1 0 0 .1-.2.1h-4.2l-.5-.3h-5.5c.1.1-.1.1-.3.2s-.5.2-.5.3h-2c-.4 0-.6-.1-.4-.2h.2c-.1-.1 0-.1.1-.2H59c-.5.1-1 .1-.8.2h-3.5l-.8-.2c-.1 0-.1-.1.1-.1h-3.4L49.4.6h.5c-.3.1-.9.2-.9.4h-9.5c-.4 0-.5-.1-.1-.2h-.9c-.3 0-.4.1-.3.1l.3.2h-4.4l.4.2h.3c-.2 0-.2-.1-.1-.1H33l.4.2H35l-.6.2h-2.5c-.3 0-.3-.1-.1-.2L30 1.3h1.1c.1 0 0-.1 0-.1h.9l.2-.2.3-.2.9-.2h4.4c-.2-.1-.4-.1-.3-.2h-.2L36.1.1h-7.3c-.2.1.2.1 0 .2h-.2V.2l.2-.2H25l.9.2h.6c.3 0 .1.1.1.1H22l-.3-.2h-1.4c-.1 0 0 .1.1.1s.1 0 0 .1h-5.6c-.1 0-.1-.1 0-.1h1.3c-.1 0 0-.1.1-.1s.2-.1 0-.1h-.6c.1 0 .1-.1 0-.1h-1.8c.1.1.2.1.1.2s.1.1.2.2.1.2-.2.3h-.2c-.2-.2 0-.3 0-.5h.2l-.9.3H7.8L7 .8H4.2l.3-.3h-.8L2.5.8h-.2L1.6.5h-.5l-.2.7a1.7 1.7 0 0 0 0 .3 1.8 1.8 0 0 0 .1.8c.1.1.1-.3.1-.5v-.3c0-.1 0-.1.1 0s.1.2.1.1.1.1.1.2a6.1 6.1 0 0 0 0 1c0 .2 0 .4-.1.3s-.1.1-.1.2a4.1 4.1 0 0 1 0 .4 5.5 5.5 0 0 0 .1 1v.4a2 2 0 0 1 0 .6 1.9 1.9 0 0 1-.1.3c-.1 0-.1.4-.2.3-.1 0-.2.4-.1 1a6.6 6.6 0 0 1 0 1.2c.1.3 0 .9.1 1.2s.2.3.3-.5a1.9 1.9 0 0 1 0 .3 2.2 2.2 0 0 0 .1.7c0 .2.1 0 .1-.1h.1s.1.2.1.3-.1 1-.1 1.6h.1a2 2 0 0 1 0 .4.9.9 0 0 1 0-.1V12h-.2v-.4c0-.3 0-.4-.1-.3s-.2 0-.3-.5v-.3c0-.1-.1-.1-.1.1v.5a2.3 2.3 0 0 0 0 .6 3 3 0 0 1 0 .8H.5v.2-.7a1.4 1.4 0 0 0 0 .2 1.6 1.6 0 0 0 .1.6c.1.1.2.3.3-.1s.1.1.1.3v.5a1.6 1.6 0 0 0 .1.6v-.5.4a.7.7 0 0 0 0 .3c0 .4 0 .9.1 1.3a1.8 1.8 0 0 1 0 .3v1.3c0 .2-.1.2-.1.1s-.2-.1-.3 0a1.6 1.6 0 0 0 0 .3c.1.1.1 0 .2.2s.1.1.2.1a2.3 2.3 0 0 1 0 .3v.3H.7a1.9 1.9 0 0 0 0 .3c0 .2.1.1.2.1s.1.1.1.2a5.5 5.5 0 0 1 0 1.3 3.9 3.9 0 0 0 0 .4v.5l-.2.2V21v1.3c0 .3.1.6.1.6v.6c0-.1.1-.1.1 0a.3.3 0 0 1 0 .2v.3c0 .1-.1 0-.1-.2v-.3c-.1 0-.1 0-.2.3H.6s-.1.1 0 .3a4.8 4.8 0 0 1 0 1.2c0 .2 0 .3.1.3s.3-.4.4-.6H1a3.5 3.5 0 0 1 .1.7H1s-.1.1-.1.3v.4a1.4 1.4 0 0 1 0 .4c0-.2-.1-.2-.2-.5v-.2c0-.1-.1 0-.1.1a9.6 9.6 0 0 1-.1 1.3c.1.2.1-.1.2.1h.2l.2.2c.1-.3.1 0 .2 0v-.6.7c-.1.1-.1.2-.1.5s.1.8.2.7l.2-.2c.1 0 .1.2.1.4a5.9 5.9 0 0 0 0 .9c.1.1.1.1.2-.1s.1-.2.1-.1v.2a2.7 2.7 0 0 1 0 .3c-.1 0-.1.1-.2.4s-.1 0-.1-.1v-.7.3a3.2 3.2 0 0 1-.2.7 3.4 3.4 0 0 0 .3 1.3.9.9 0 0 1 0 .2v.5c0 .2 0 .5-.1.7a.7.7 0 0 0 .1.3h.1v.4a2.2 2.2 0 0 0-.1.5s.1.2.1.4c.1 0 .1.1.1.4v-.6 1.7c0 .3-.1-.6-.2-.6v.2c0-.2 0-.2-.1 0s0-.3.1-.3a1.6 1.6 0 0 0 0-.2H1a2 2 0 0 0-.1.9v-.3H1a4.9 4.9 0 0 1 .1.8v.3c0 .1-.1.1-.1-.1a2.2 2.2 0 0 0-.1-.8 1 1 0 0 0 0 .5 1.5 1.5 0 0 1 0 .4H.8a7.2 7.2 0 0 0 0-.8c-.1-.1-.2.1-.3 0a1.6 1.6 0 0 0 0 .3v.2a1.6 1.6 0 0 1 .1.4 2.6 2.6 0 0 1-.1.7 2.1 2.1 0 0 0 0 .4c0 .4 0 .5-.1.5v.8c0-.1.1-.2.1-.2s.2.3.3.3v.2s.1 0 .1.2v-.2.4c0 .6.1.8.1 1.4a4 4 0 0 0 .1-.6c0-.2.1-.3.1-.2a1.1 1.1 0 0 1 0 .5c-.1.4-.1.9-.2 1.2s0 .3 0 .4a6.2 6.2 0 0 1 .1 1.4c0 .1 0 .2.1.1v-.2.1c.1-.2.2-.1.3.2a1.5 1.5 0 0 1 0 .4c-.1.4-.2.6-.4.2a7.3 7.3 0 0 1 0 1.1c0 .4-.1.2-.2.4s-.1.2-.2.2-.1.1-.1.3h.1c-.1-.1-.1 0-.1.4V50a.7.7 0 0 1 0 .1v-.9c-.1-.1-.1-.2-.1-.6v-.7.2a1 1 0 0 0 0 .2 2.8 2.8 0 0 1-.2.7 1.3 1.3 0 0 0 0 .4v.2a1.2 1.2 0 0 1 0 .5v.6h.3v.3c0 .1.1.1.1-.1a5.7 5.7 0 0 1 0-.7l.2-.2c.1-.1.1 0 .2-.2V49a1.1 1.1 0 0 1 .1.4 4.8 4.8 0 0 1 .1 1.4v.4a2 2 0 0 1 0 .7v.3-.5c0-.1 0-.3-.1-.2s-.1.1-.2.4a4.4 4.4 0 0 0-.1.7 2.4 2.4 0 0 1-.1.5v.6a5.2 5.2 0 0 0 .2.8 2.3 2.3 0 0 1 .1.8v.7H1a3.5 3.5 0 0 0 0-1.1.8.8 0 0 1 0-.2h.1a10.9 10.9 0 0 0 .1 1.7 4.9 4.9 0 0 1 0 1.1 4.1 4.1 0 0 1-.1.6.5.5 0 0 1 0-.3 2.5 2.5 0 0 0-.2-1.2v-.2.1a1.2 1.2 0 0 0 0 .3v.2a1.4 1.4 0 0 1 .1.7c0 .2 0 .2-.1.2s0-.2 0-.3H.7v.9a2 2 0 0 1 0 .3H.6v-1.3.3a1.1 1.1 0 0 0-.1.6v.9a2.5 2.5 0 0 1-.2.7 2.4 2.4 0 0 0-.1 1.3 2.1 2.1 0 0 0 .2.8 1.4 1.4 0 0 1 .1.5v.4l.2.2v1a1.2 1.2 0 0 1 0 .3H.6v-.6c0-.1-.1 0-.1.1s-.1-.1-.1-.3a1.6 1.6 0 0 1 0-.4V63c-.1.2-.1 0-.2.1v1a.9.9 0 0 0 0 .4 1.3 1.3 0 0 0 .1.5 7.2 7.2 0 0 0 0 1 3.6 3.6 0 0 1 0 .6c-.1.6-.1 1.3-.1 2v.2a1.1 1.1 0 0 1 0 .5 8.9 8.9 0 0 0 0 1.1c0 .3.1.6.1.6h.2v-.4a.8.8 0 0 0-.1-.4c-.1-.2 0-.5-.1-.7v-.3a1.7 1.7 0 0 1 0-.3 3.6 3.6 0 0 1 .4 1.8v.4H1a10.5 10.5 0 0 0-.1-1V70a1 1 0 0 1 .1.6v1.5a.9.9 0 0 1-.1.4c-.1.2-.1.3-.2 1.1a1.4 1.4 0 0 1 0 .3c-.1.1-.1.5-.2.7s-.1.2-.2 0-.1-.1-.2-.2h.2a3.4 3.4 0 0 1 0 .6c0 .3 0 .4.1.4l.2-.2c.1.3.1.7.2 1.1a1.1 1.1 0 0 1 0 .3c-.1 0-.2.1-.3-.2H.3c-.1.1-.1.2-.2.2s-.1.3-.1.4v1.7c0 .5 0 .2.1.2a.6.6 0 0 0 0-.4v-.4h.1c.1.1.1.5.1.6h.1v-.6 1c0 .2.1.2.1.1s.1-.3.1-.2a.3.3 0 0 0 .5.1c.1 0 .1.2.1.5a1.3 1.3 0 0 0 .1.6v.3c0 .3-.1.3-.1.3v.8a1.6 1.6 0 0 0 .1.9.6.6 0 0 1 0 .3h-.2v.4a5.7 5.7 0 0 0 0 .6h.1c.1 0 .1.2.1.4a1.2 1.2 0 0 1 0 .6c0 .2 0 .3.1.3h.2a.8.8 0 0 1 .1.3 4.1 4.1 0 0 1 0 .5v.8h-.3c-.1-.1-.1-.1-.2.3s0 .4 0 .6-.1.7-.2.6 0-.9-.1-1.4a10.3 10.3 0 0 0-.1 1.5v1.6a3.4 3.4 0 0 1-.1.8c0-.2-.1 0-.2-.1v.3a1.1 1.1 0 0 0 0 .4c0 .1 0 .3.1.2V91c0-.1.1 0 .1.2v.8a5.5 5.5 0 0 1 0 .6c-.1-.2-.1-.2-.2.1v.3H.2v-.4.1a21.7 21.7 0 0 0 0 2.2c0 .4 0 .9.1 1.3a3.4 3.4 0 0 1 0 .9v1.2H4l1.1-.2v.2h1.4c-.2-.1-.3-.1-.1-.2l.2-.2h1.2c0-.2.2-.2 1.2-.2h1.1l.3-.2h1.5c-.3.1-.4.1-.3.2H9.3l-.7.2h6c.1.1-.1.1-.3.2h-3.1v.2h.8l1.1-.2h.6l.8.2.7.2h2.6l.2.3h2l1.9-.2h2.9c.3-.1-.1-.1-.1-.2v-.3l.3-.1h3.6l-.7.2h1.6c-.1.1.2.1.1.2h4c.1 0 .1-.1 0-.1h-.5l-.5-.2H34l1 .2h3.4l.5.2h4.4c0-.1-.1-.2 0-.3h.9l-.3.3h1.4l.3-.4h1.1v.2c0 .1-.1.2-.5.2s0 0 0 .1h1l.5-.2c.4-.1 0-.2.2-.3 0-.1 0-.1.3-.1h2.6c.4 0 .7 0 .6-.1h.1a4.4 4.4 0 0 0 1.4-.1h1.5c.2 0 .2.1-.1.2s-.1 0 0 0h.7c.2 0 .2.1 0 .1-.1 0-.1 0 0 0h.8l1.4.3h1.4c-.4-.1-.3-.2-.3-.2h.3c-.3.1-.1.3 0 .4h2.1l.6-.3h.1c.4 0 .7-.1.7-.2h.5c.2.1.3.1-.2.2l-.6.3h.9v-.1H65c.1 0 .1.1 0 .1h-1l-.5-.2c.1.1-.2.1-.3.2H65l1-.2c.1 0 .1 0-.1-.1h-.6c-.1 0 0-.1.2-.1H65c-.1 0-.1-.1 0-.1h3.7l.2-.2h-1.2l.6-.2H71c.1 0 .1.1 0 .1h-2.4v.1h.3l.2.2c.1 0-.1.1.2.1h1.1c.2 0 .2.1.1.1l-1 .2h2.3c.3-.1.4-.1.2-.2h3.9v-.2h2.8c.2-.1 0-.2.1-.2h.7c.1.1 0 .1-.2.1h1.3v.1h10a3.2 3.2 0 0 1 1.9 0h.6c.1-.1-.3-.1-.3-.2a3.5 3.5 0 0 0 1.1-.1h.4l-.4.2h-.1c0 .1-.1.1.1.2h1.4c.2-.1.6-.2.6-.4h.9c.5-.1.6-.2.7-.3a.1.1 0 0 0 0-.1l-.2-.2h-.2l-.4-.2h-.1c-.4 0-.5-.1-.3-.2h-.2l-.9-.2-.9-.2h-.6l-1.1-.2H66.1c-.3.1-.5.1-.3.2h-.1l-1.1-.2H53.3l-1.1-.2H48c-.1-.1-.5-.2-1.1-.2h-1.4l-.4.2h-.9l-.9.2h-1c-.1 0-.1 0 0 0s.3-.1.1-.1h-.9c-.3 0-.2.1-.1.2h-1l-.2-.2h-2.4c-1.7 0-1.9-.1-1.7.3h-1l-.2-.2H32v.2h-2.8c0 .1 0 .1-.4.2h-18c.1.2.1.2-.4.3h-.5c0-.1-.3-.3-.5-.4H4.5c-.5 0-.8-.1-.7-.2h-.6v.7a1.2 1.2 0 0 0 0 .4v.2l-1.6-2.1h1.6a4.4 4.4 0 0 0 0-1v-7.6a6.6 6.6 0 0 0-.1-.9c-.1 0-.1 0-.1-.4-.1-.4-.1-.8-.1-1.2a4.4 4.4 0 0 1 0-.7h.2a2 2 0 0 0 .1-.9c0-.3-.1-.5-.1-.8a1.3 1.3 0 0 1 0-.3h.1a.9.9 0 0 0 .1-.5v-1.6c0-.6 0-1.1-.1-1.5a2.1 2.1 0 0 1 0-.7 2.2 2.2 0 0 0 0-.6 9.6 9.6 0 0 1 0-1.4c0-.5-.1-.9 0-1.4v-1.6a11.6 11.6 0 0 0-.1-1.8 2.4 2.4 0 0 1 0-.9 4 4 0 0 0 .1-.7 9 9 0 0 0 0-1.5V67a2.7 2.7 0 0 0 0-.4 3.1 3.1 0 0 1 0-.8 5.7 5.7 0 0 1-.2 1c0-.2-.1-.4-.1-.6a12.8 12.8 0 0 1 0-1.5v-1.1c0-.1 0-.2.1-.1v.3a5.4 5.4 0 0 1 0 .6 5.5 5.5 0 0 0 .1.9v.8h.1a1.2 1.2 0 0 0 0-.3v-.3a1.4 1.4 0 0 1 0-.7 1.3 1.3 0 0 0 0-.3v-2c0-.4 0-.8.1-1.2s0-1.5 0-2.2v-.8a12.3 12.3 0 0 1 0-1.4 8.7 8.7 0 0 0 0-1.5 3.3 3.3 0 0 1 0-.5V54a1.8 1.8 0 0 0-.1-.6 1.8 1.8 0 0 1 0-.9v-3.2a9.9 9.9 0 0 0 0-1.1 1 1 0 0 0-.1-.4 5.4 5.4 0 0 0 .1-1.1v-1.9a5.6 5.6 0 0 0 0-1.2c0-.5 0-1.2-.1-1.7a9.7 9.7 0 0 0-.1-1.2v-.4a.8.8 0 0 1 0-.4c.1 0 .2 0 .3-.5v-2.8a1.4 1.4 0 0 0 0-.4c-.1-.3-.1-.5-.2-.4H3v-.4a1.1 1.1 0 0 0 .1-.6v-.6a2.2 2.2 0 0 0 0-.7 3.7 3.7 0 0 1-.1-1.4 1.7 1.7 0 0 0-.1-.9v-.4a2.5 2.5 0 0 0 .2-1.1V27h.2c0-.4 0-.8-.2-.9s-.1-.3-.1-.4v-1.9a3.9 3.9 0 0 1 .1-.8h.1v.4a1.5 1.5 0 0 0 .1-.9v-.9c0-.3-.1-.5-.1-.8a2.5 2.5 0 0 1 0-.8c0-.4 0-.9-.1-1.3 0-.5 0-.6.1-.6s.1-.1.1-.3v-1.1c0 .3 0 .7-.1.5a2.4 2.4 0 0 1 0-.6c0-.2 0-.2.1-.1a2.4 2.4 0 0 0 .2-.9v-1.2a5.4 5.4 0 0 1 0-.9 1.2 1.2 0 0 1 0-.7 2.2 2.2 0 0 0 0-.6c0-.6-.1-1.6-.1-2.4V8a2.4 2.4 0 0 0-.1-.7v-.2a1.8 1.8 0 0 1 0-.7v-.2A2.7 2.7 0 0 0 3.4 5a2.9 2.9 0 0 1-.1-.4V2.9H1.6l1.9-1.8a4 4 0 0 1 0 .7A7.8 7.8 0 0 0 3.3 3h11.4a7.4 7.4 0 0 1 1.4-.1h1.8c.3 0 .2.1.2.1h41l2.2-.2h9.9l1 .2h20.1a5.2 5.2 0 0 0 2 .3h1.9V2a8.8 8.8 0 0 0 0-.9l1.5 1.5h-1.6a7.6 7.6 0 0 1 0 1V7a32.4 32.4 0 0 0 0 3.3v7.6a16.6 16.6 0 0 1 .1 2.2v14.1a7.7 7.7 0 0 0 0 .8 11.1 11.1 0 0 1 .1 1.8v.5a6.2 6.2 0 0 1 0 1.2 13.7 13.7 0 0 0-.1 2.2v10.8c0 .3 0 .4.1.5a1.7 1.7 0 0 1 0 .8v.2a2.2 2.2 0 0 0-.1.9v5.2c0 .2 0 1.6.1 2.4v4.6c0 .3.1 2.3 0 3.5s0 .3 0 .5c.1 2.3.1 4.6.1 7v3a9.5 9.5 0 0 0 0 1.5v.4a4 4 0 0 1 0 .9 13.4 13.4 0 0 0-.2 2.2v6.1a7 7 0 0 0 0 .9l.2 2.2a1.7 1.7 0 0 0 .1.4 4.3 4.3 0 0 1 .2 1 4.2 4.2 0 0 0 .3 1.1h.1a.8.8 0 0 0 .1-.3v-1.9c0-.4 0-1.7.1-2.5s0-1.2.1-1.7v-1c0-.7.1-1.3.1-2v-2.5a9.3 9.3 0 0 0 0-1.2 9.5 9.5 0 0 1 0-1.1 3.2 3.2 0 0 1 .1-.7 4 4 0 0 0 .1-1.2c0-.4 0-.8-.1-1.2a6.8 6.8 0 0 1 0-.9V77c0-.4.1-.7.1-1.1V75c0-.3 0-.6-.1-.6v-.2a12.3 12.3 0 0 0-.1-1.9 6.1 6.1 0 0 1 0-1.1c0-.9.1-1.7.2-2.5a4.5 4.5 0 0 0 .1-1c0-.5 0-.9.1-1.4a8.8 8.8 0 0 0 0-2V64a6.9 6.9 0 0 1 0-1.2 9.4 9.4 0 0 0 0-2.1 7 7 0 0 1 .1-1.9c0-.3 0-.7-.1-.6s-.1 0-.1-.2v-.4a6 6 0 0 1 0-1.1 11.3 11.3 0 0 0 .1-1.5c0-.2 0-.4-.1-.3s-.2.3-.3 0-.1-.5-.2-.5a2.4 2.4 0 0 1 .1-1.1h.1c.1.1.1.1.2-.2v-3c0-.6 0-.6.1-.9s0-.4 0-.6a1 1 0 0 0-.1-.3c-.1 0-.2-.4-.2-.7a4.7 4.7 0 0 1-.1-.9v-3a4.9 4.9 0 0 1 .1-1.1 2.9 2.9 0 0 0 0-.7 1.5 1.5 0 0 1 .1-.6 1.7 1.7 0 0 0 .1-.7 13.9 13.9 0 0 1 0-1.4 5.1 5.1 0 0 0 0-1.1 11.3 11.3 0 0 1-.1-2v-1.6a5 5 0 0 0-.1-1 1.8 1.8 0 0 1 0-.9 6.9 6.9 0 0 0 .1-.7v-2.1c0-.2.1-.3.1-.3v-.6a6.6 6.6 0 0 0 0-1.2 3.2 3.2 0 0 0-.1-.7 2 2 0 0 1-.1-.7v-1.3c0-.2-.1-.4-.1-.3h-.1s-.1-.1-.1-.3v-.8c0-.3.1-.2.1-.3s.1-.1.1-.3v-.6a2.2 2.2 0 0 0 0-.9h-.1a1.8 1.8 0 0 1-.1-.6 2 2 0 0 1 .1-.7v-.5a4.4 4.4 0 0 0 0-1.1c-.1-.3-.1-.8-.2-1.1a3 3 0 0 1 0-1.1 1.7 1.7 0 0 0 .1-.5 5.1 5.1 0 0 1 .1-.9 4.2 4.2 0 0 0 0-1 24.1 24.1 0 0 1 0-2.7V9.3s-.1.2-.1.4v-.5a10.5 10.5 0 0 0 .1-1.3c0-.2.1-.3.1-.2a2.1 2.1 0 0 0 .2-1 3.9 3.9 0 0 1 .1-.8 2.4 2.4 0 0 0 .1-.5V2.7c0-.6.4-.4.3-.5zM35.8.4zm-4.5.4zM30 .6zm.1.2zm-29 7.7H1a.4.4 0 0 1 0-.2c0-.2 0-.2.1 0a1.3 1.3 0 0 1 0 .2zM1 39.3c0-.1 0-.1 0 0zm.1 1c-.1-.1-.1-.5-.2-.3s.1-.3.2-.3.1.2.1.4zm-.2 8.5H.8c0 .1 0 .2-.1.1a3.3 3.3 0 0 1 0-.4h.1v.3-.2.2zM.3 68.1zm0-1V67zm0 3.3zM.5 65a.8.8 0 0 1 0-.1c.1.2.1.2 0 .1zM.2 77.7a.6.6 0 0 1 0-.3.6.6 0 0 1 0 .3zM.5 95a1 1 0 0 1-.1-.5 1.2 1.2 0 0 1 0-.4c0-.1.1-.2.1-.1a1.9 1.9 0 0 1 0 .4 3.2 3.2 0 0 1 0 .4zm.1 1.9v-.2a1.7 1.7 0 0 1 0-.3v-.2.4zm88.6 1.5zm0-.8zm-.1.1zm-2 .6zm-.8-.3zm-.1.3zm-.5-.3v.1h-.3c-.1 0-.1-.1.1-.1zm-.4-.2zm-3.9.1zm1.9.2h.1c.1 0 .1 0 0 0h-.1zm-.1-.3h-.3c-.4 0-.6-.1-.5-.2h.8zm-.9-.3zm-.3-.6zm-.5.2zm-1.3.4zm-.1-1.3zm-.6-.3zm-.5.2zm-1.3 1.6zm-1.5-.9zm-2.8.7h.7c.1-.1-.3-.1-.4-.1h2l-.2-.2h1.4l-.6.2H76c.2 0 .1.1 0 .1h-.3c-.5 0-.5.1-.5.2h-1.6zm-.3-.4zm-.7.2h.6c.1 0 .1 0 0 0h-.4c0 .1.1.1-.1.1h.2zM71.3 96zm-.4.6zm1.1.2c.2.1.3.1.1.2h-.5c-.1 0 0 .1-.2.1h-.5c-.8 0-.9 0-1-.2zm-3.4 0zm-1.1.2h2v.1h-.6c-.3 0-.5-.1-.5-.2h-.9zm-3.6.9zm.7-.7h.2V97h1.1l-.2.4h-1.9v-.1h.9zm-1.6-.8zm-2.8 1.8zm2.2-.3zm-.2-.2h-.4c-.3 0-.4.1-.2.2h-.8c-.4 0-.4-.1-.4-.2s-.3-.1-.3-.1.3-.2.8-.2zm-1.1-.8zm-1.9.4zm-2-.8v-.1zm-.4.8zm-.2.5h-.1c-.2-.1-.2-.1.1-.1zm-.5-.1zm-.3-1c-.2-.1-.2-.2-.1-.2zm0 .6zm-.4-.9zm-1.4.2c.4-.1.3-.1.4-.2.4.1.6.2.6.3s.2.2 0 .2l-1-.2c-.2-.2-.2-.3 0-.3zm.1.7h.6c-.1 0-.1-.1.1-.1h-.7zm-2.2.4zm.4-.9zm-.8.7zm-1 .4zm-1.7-1.5h.8l.3.2h-1c-.2 0-.1 0 0 0zm-9.1 1.9h-.1c.1 0 .1.1 0 .1h.1zm2 .2zm.1-.5zm2.1.4zm1.6-.1h-.6l-.3-.2h.9zm2 .4zm-1-1.2zm.5.3h-.5l-.3-.2zm-1.1-.8zm-1.9.2l-.1-.3zm-.4.2l-.1-.2zm-1-.8h-.1c-.2-.2-.1-.3 0-.3zm-.5-.2zm-2 .6zm-.1.4c.2 0 .3-.1.2-.1H40zm-.6-.2zm-1.1.5h5.4a4.1 4.1 0 0 1 1.7.1h-.3c.1.1 0 .1-.4.2h-1.4c-.3 0-.2-.1-.3-.2h1c-.2-.1-.3-.1.1-.2h-6c0-.1 0-.2-.3-.3zm-.7-.3zm-2.9-.8zm-.3-.2c-.1-.2-.1-.2 0-.2zm-.1.3c-.1-.2-.1-.2 0-.2zm-2.9.7h-.3c-.1 0 0-.1.1-.1h.2zm.5.9zm1.1-.7h-.2v-.1h-.4v-.1h.4c.2 0 .1.1 0 .1.1 0 0 .1 0 .1h.2zm-.2-.9zm.2.3zm-2.3-.7h1.6l-.5.2h-1.1l-.3-.2-.5-.2zm-1 .5zm-.3-.7zm-.1 1.2zm-2.5.4h-.1.1zm.8-.5c.1 0 0-.1 0-.1zM26 96.1h.2c.2-.1-.2-.1-.2-.2l-.2-.2zm-.6 1.6zm-3 1.1h-1l.5-.2h.5c.5-.2.5-.2 0-.1zm.6-.2zm.7-1.5zm-.7-.5zm-.4 1.5h.8l-.6-.2v-.1h1l-.3.2c.1 0 .2.1.1.1h-.9zm-1.3-2h.7c.3 0 .4.1.3.2h-.6c-.4-.1-.7-.2-.7-.3zm-.5.9l.4-.2H21c-.1 0-.1-.1.1-.1h.2c.5 0 .5 0 .2-.1h1.1a4.1 4.1 0 0 1-1.3.2c.3.1.2.2.1.3h-.5zm-1.1 1.6h-.5c-.2 0 0-.1 0-.1h.4zm.5.1zm-1-1.6h-.1zm-.4.2zm1.4.4h-.8l-.7-.2a3.3 3.3 0 0 1 1.4.2zm-3.2.4h-.8V98h.4c.3-.1.5-.1.5-.2h.1c.2.1.1.2.3.3s-.2 0-.6 0zm1.1-1h-1.2l.2-.4h1zM16 95.8zm-.2.6h.1c-.4.1-.3 0-.2 0zm.2.2zm-.6.3zm-3.2.8zm1.6-.1zm-1.8-.9zm-.3.3zm-.9.3zm-2.3.1zm-.1-.7h.4l.4.2H8.1v-.2zm-2.3.4h-.2zM4.9 96zm-3.6-4.7c0-.1.1.2.1.4s-.1.5-.1.4-.1-.1-.2-.2a1.2 1.2 0 0 0 .2-.6zm0 5.1h.1a1.1 1.1 0 0 1-.1.5zm-.1-2a1.5 1.5 0 0 1 0-.2V94v.1a.9.9 0 0 1 0 .1c0 .1-.1.2-.1.2zM1 89.8l.2-.2c0-.1.1.4.1.7v.2h-.2c-.1 0-.1-.1-.1-.4a1.4 1.4 0 0 1 0-.3zm-.2 5.1v-.1zm0-3.8zM2.9 97zm-.4-.2zm-.6.7h.4l-.7-.2h-.4l-.5-.2v-.4c0-.1.1 0 .1.1v.5h.6zm-.3-5.9zm1.5-16c-.1.3-.1.8-.1 1.2v-.2a1.7 1.7 0 0 1 0-.5v-.8s.1.2.1.3zM3 71.4zm0 2.8v.5c-.1.1-.1-.1-.1-.4a1.5 1.5 0 0 1 .1-.1zm0-61.3zm0 19.4v.6zm-1.7-16c.1.2.1-.2.2-.4h.1c0 .3.1.3.1.3s.1.2.1.6-.1.4-.1.3V17c-.1-.3-.1-.3-.2.2s-.1.1-.1 0v-.7c-.1-.1-.1-.2-.1-.1zm0 1.3h.1a1.3 1.3 0 0 1 0 .3 1.7 1.7 0 0 1 0-.4zm-.2 2.5c0 .1 0 .1-.1 0s0-.2 0-.3 0-.2.1-.1a1.5 1.5 0 0 1 0 .5zm0-1.5v.1-.2.2zm0-2.8v-.6zm0-3.5v.8a.8.8 0 0 1 0-.1v-.7a.7.7 0 0 1 0-.1v.2zm.2 12.6c0 .2-.1.2-.1.2 0-.2.1-.4.1-.4a.5.5 0 0 1 0 .3zm.1 1.2v-.5.5zm.4 3.2s-.1 0-.1-.2v-.2h.1v.2a.6.6 0 0 1 0 .1zm0-2.4v-.6a1.2 1.2 0 0 1 0-.2v.9zm.1-2.9a.7.7 0 0 1 0-.3h-.2v-.2h.2v.1zm-.1 10.6zm.1 13.1H2a1.9 1.9 0 0 1 0 .3v.1a.5.5 0 0 1 0-.2zm.1 2.9v-.2zm0-5.7h-.1a1.1 1.1 0 0 1 0-.4H2v.3c.1 0 .1.1 0 .1zm-.1 11.4c-.1.4-.1.4-.2.1V55v.6c0 .3 0 .3.1.3s0 .2 0 .3zm0 4.3zm-.1-15.8h-.1a1.7 1.7 0 0 1 0-.7v.5a.7.7 0 0 1 .1.2zm-.1-10c0-.1 0-.1 0 0zM1.4 40zm.1 3.5c0 .1-.1.2-.1.1a2.4 2.4 0 0 1-.1-.7v-1.4h.1a.9.9 0 0 1 .1.5v1.6s.1-.1.1 0zm0 6.2s.1 0 .1.1zm0 1v.4-.4a2.8 2.8 0 0 1 .1-.7c0-.2.1-.1.1 0v1.1a2.2 2.2 0 0 1 0 .2v-.2h-.1v.3h-.1a2 2 0 0 1 0-.6s0-.1.1 0zm0 4.8zm-.1-1a1 1 0 0 1 0-.1s.1.1.1.3v.3h.1zm.2 4.5v.2zm-.2-.1v.2zm0 3.4zm0-12.7zm-.1-1.7a2.5 2.5 0 0 1 .1-.7v.6c0 .2 0 .2-.1.1zm0 25.7h.1c.1 0 .1.2.1.7v.1-.4a3.6 3.6 0 0 1 0-.4.4.4 0 0 1 0-.3v-.2.4zm-.1-8.8a.8.8 0 0 1 0 .4v.2a1.2 1.2 0 0 1 0-.4zM1.1 58zm0 2v-.2s.1 0 .1.2a2.2 2.2 0 0 1 0 .6v.2s-.1-.1-.1-.2a4 4 0 0 1 0-.6zm-.3 1.3v-.7a4.4 4.4 0 0 0 0 1v.7a11.6 11.6 0 0 1-.1-1.5c0-.1 0-.2.1-.2 0 .1 0 .1 0 0a1.8 1.8 0 0 1 .1-.6 4.3 4.3 0 0 1 .1 1c-.1.3-.1.4-.2.3zm.1 5.9V67zm.2-4.5v-.9.4a1.8 1.8 0 0 1 0 .3c.1.1 0 .2 0 .1zm.3 14.2h-.1c-.1 0-.1.1-.1.4v-.4L1 76a3 3 0 0 1-.1-.6c0-.4-.1-.4-.1-.4v-.7H1v.4a1.8 1.8 0 0 1 0 .6v.2a1.7 1.7 0 0 0 0 .8v.2h.2v.2zm0 5.9v-.3a1.5 1.5 0 0 1 .1.2zm0-7.4V75v.1zm-.1-8.8a2.4 2.4 0 0 1 .1-1.2 2.1 2.1 0 0 0 .2-1c0-.5 0-.6.1-.7s.1.2.1.7v2.2c0 .5 0 .6-.1.7h-.2zm.2 17.2v-.1h.1zm0-7.8h.1v-1.1a5.1 5.1 0 0 1 0 1zm0-6.2zm.1 12.1v.5a2 2 0 0 1 0-.4v-.9.8zm.1-3.6v-.8a.5.5 0 0 0 0-.2 1 1 0 0 1 .1-.6v-.5c-.1 0-.1-.1-.1-.3a2.9 2.9 0 0 1 0-.3v-.2a3.7 3.7 0 0 1 .1.7h.1v.4h-.1c0 .6 0 .7-.1.7a3.2 3.2 0 0 1 0 .5v.4zm0-8zm.1-1.3H2s.1.1.1.4H2a1.1 1.1 0 0 1-.1-.5zM2 93.3a1.5 1.5 0 0 1 0-.7 3.6 3.6 0 0 1 0 .4 3.1 3.1 0 0 1 0 .3zm0-1.5v-1.7a12.5 12.5 0 0 1 .1 1.6zM2.1 78a1.9 1.9 0 0 1 0-.3h.1zm.1-5.8h.1zm.2 17.9v-.2a2 2 0 0 1 0-.3h.1v.4zm-.1-4.9v-.6a.5.5 0 0 1 0 .2c.2.3.2.4.1.4zm.4-4.2zm0-3.3c0 .3 0 .3-.1.4h.1zm.1-12.5v.2h-.2v-.8a3 3 0 0 1 0-.6h.2c.1 0 .1 0 .1.4s-.1.5-.1.7zm.2-4.5v-.3.3zm.2-3v-.2.2s-.1.1-.1 0zm-.2-17zm0 17a.7.7 0 0 1 0 .3v.8l.2.3v.5c0 .2-.1.4-.1.1H3V58c-.1-.2 0-.4 0-.4zm0 1.8zm-.1-46v.2-.2zm0 3.6V17zm0 38.1zm0 32zm-.1-84h.1v.3c0-.2-.2-.3-.1-.3zm-.1 23.5h.1c.1 0 .1.1.1.5v-.1a.4.4 0 0 1-.2-.4zm0 24.8v.6h-.2a1.1 1.1 0 0 1 0-.2v-.4zM2.5 9.9zm0 16.8a1.5 1.5 0 0 1 0 .2v.2a.9.9 0 0 1 0-.1v-.3zm-.1-13.1zm0 47.6c0-.1.1 0 .1.2s.1.5.1.9v.6c0 .2 0 .3-.1.4s-.1-.1-.1-.3v-.3a1.7 1.7 0 0 0-.1-.7v-.3a1 1 0 0 1 0-.4zm0-40.1c0 .1 0 .1 0 0zm0 42.4v-.4h-.2c-.1 0-.1 0-.1.3a1.7 1.7 0 0 0 0 .7v.2a3 3 0 0 1 .1.8v.3c0 .4-.1.5-.1.5s-.1.1-.1.3a.7.7 0 0 0 .1.3h.1a.8.8 0 0 1 0 .1c-.1.3-.1.4-.2.4v-1.2a19.6 19.6 0 0 0 0-2.5h-.2a.7.7 0 0 1 0-.3v-1.1a.7.7 0 0 1 0-.1h.1v.7c.1.3.1.2.2 0s.1 0 .1.2a4.6 4.6 0 0 0 0 .7v.2a.4.4 0 0 1 .2-.1zm-.3-15.6zm.2-32.3v.3-.2a1.3 1.3 0 0 1 0-.4v.3zm0-6.2zm0 49.8zm0 2.3zM2.1 7.8c.1-.1.1 0 .2.3v.4c0 .1-.1-.1-.1-.3zm0 3.1zM2 34.7c0 .1 0 .2-.1.1 0-.1.1-.2.1-.1zm0-21v.1zm0 25.1v.6-.4zM2 6.1c0 .2 0 .3-.1.3zm-.1 11.4zm0 24.1a3.1 3.1 0 0 0 .2.7.4.4 0 0 1 0-.2v.1a2 2 0 0 1 0 .3l-.2.2v-.2a1 1 0 0 1 0-.4v-.6zm0-20a4.3 4.3 0 0 1-.1.7c-.1.5-.2.7-.3.6a1.1 1.1 0 0 1 0-.5v-.3c0-.4-.1-.8-.1-1.2l-.2-.9c0-.2.1-.2.2-.1h.1c.1-.1.1 0 .1.4a2.4 2.4 0 0 1 .1.6v.3a.7.7 0 0 1 .2.4zM1.8 15a1.7 1.7 0 0 1 0 .3c-.1.3-.1.3-.2.3a.7.7 0 0 1-.1-.3c0-.4 0-.6.1-.5l.2.2zm-.1-1.6a2.3 2.3 0 0 1 0 .2c0 .2 0 .2-.1.2s0 0 0-.1zm-.1-4.6a1.2 1.2 0 0 1 0 .5c0 .1 0 .1-.1-.1-.1-.4-.1-.9-.1-1.4h.1a1.8 1.8 0 0 1 0 .3V9v-.2zm0-4.3c-.1-.1 0-.1 0 0zm0-3.9zm1.3 1h-.1a.6.6 0 0 1 0-.1h.1v.2zM7.2.8zM5.3 2.3zm1.2-.2H4.1c-.2 0-.2 0-.1-.1h1.8l.7.2zm1.2-.8l-.5.2h-.5l-1.2-.3h2.2c.2-.1.3 0 0 .1zm2.1-.1zm-1.4.1h.5c.1 0 .1 0 0 .1h-.5zm.5 1.1zm1.5-.7H10l.7.2zm1.3 1zm3.6-1.4zm2.6-.3zm1 1.6zM23.8.8h-.6.6zm-.9.7zm.9 1.2h-2.2c-.1-.1 0-.2.1-.3h2c-.1 0-.2.1 0 .1h.3c.6 0 .6 0 .7.2zm3.1-.5h.3c.1-.2-.3-.2-.3-.1zm.1-.6c.1 0 .1 0 0 0 .1 0 .1.1-.1.1h.1zm1-.1h-1.7c-.3 0-.2-.1 0-.1h.8c.1 0 .1.1.1.1h.8zm.5-.4c-.1.1-.2.1.1.2h-.1zm2.2.9zm-1.6-.3zm1.6.5zm3.2 0h-.8c-.1-.1.2-.2.5-.2zM36 1zm.7.4l.2.2zm.8-.5zm.5.7zm1-.2h-.5c-.2 0-.3 0-.1-.1h.3l.3.2s0-.1 0 0zm0-.6h-.5V.7h.5zm2.1.1V.8h.9c.1.2-.1.2-.7.3zm1.5.3zm3 .1zm.9-.1zm2.9 1zm5.1-.5h-1c-.1 0-.1 0 0-.1h1l.2.2zm1.9.3h.6c.1-.1 0 0-.5 0zm1.6-.6zm3.1.3zm2.4-.5zm-.4.5c-.1 0 0-.1.2-.1h-.2zm2.3.2zm1 .3zm1.7-.4c-.1 0-.1 0 0 0zm.1-.2h-1.8c-.5 0-.5-.1-.2-.1s.3-.1.1-.1-.1 0 0-.1h2.1v.2zm1.2 0zm1.4-.1zm.2-.3zm1.2.3zm1.9-.2zm4 .5zm.9.9zm4.7-1h-1c.1 0 .2.1 0 .1h1.2zm2-.9zm7.1.3h-.1c.2-.1.2 0 .1 0zm1.3 0h.2c.2-.1.1 0-.2 0zm3.2 42.2h-.1a1.7 1.7 0 0 1 .1-.8 3.2 3.2 0 0 1 0 .8zm.2-2.3zm-.1-6.6h.1a2.6 2.6 0 0 1 0 .7h-.1v-.4zm0-25.7zm.4-5.2v.3c0-.6 0-.8.1-.9h.1a4 4 0 0 1 0 .4 2.6 2.6 0 0 1-.2.2zM.8 41.4v-.1.1zm0 53.4zm0-86.3zm81.9 89.8zM3.1 31zm23.6 66.3zM5.4 2.3zm4.5-1zM5.4.6zm5.8 97.5zm-8.5-2.3zM.5 12.4zm.2 25.2zm68 60.3h-.1.1zM2 13.6zm59.2 84.8zm22.3-.2zM2 13.6zM9.9 1.3zm-9.4 11zm1.4 65.8zM51.1.3zM1.2 31.6zM53.3 99z" fill-rule="evenodd" fill="#644d52"/><path d="M54 97.9v-.1h-.6l-.9.2h.8c.2.1.1.1-.1.1l-.5.2c-.1.1.3.1.4.2h.7c-.3-.1.1-.1 0-.2s.1-.2.3-.2h.3l-.5-.2c0 .2-.2.1.1 0zm-1.5.2zM.4 84.6c.1.2.1.2.1-.3v-.2 1.5a1.3 1.3 0 0 0 .4-.6c0-.3.1-.2.1-.5v-.2c-.1 0-.2-.1-.2-.7a3 3 0 0 0 0-.4 2.7 2.7 0 0 1 0-.8.5.5 0 0 0 0-.2v.8a1.6 1.6 0 0 1-.2.8v.8zm0-.2zm-.2.7v.3-.2a6.8 6.8 0 0 1 .1-.8 1.5 1.5 0 0 1 0-.6v-.4a2.1 2.1 0 0 0 0-.3 2.6 2.6 0 0 1-.1-.9c0-.1-.1-.2-.1 0v.7A1.9 1.9 0 0 1 0 84v.4a2.1 2.1 0 0 0 0 .6v.6a1 1 0 0 1 0-.4c.2-.4.2-.4.2-.1zm.1-53.3zm.2-2.6a2.5 2.5 0 0 1 0 .4 1.3 1.3 0 0 0 0 .4 3.6 3.6 0 0 1 0 .9c0 .2-.1.3-.1.3H.3a4.6 4.6 0 0 0 0 .6s.1.1.1.2v.2h.2V31c0-.4 0-.8.1-1.2a3.2 3.2 0 0 0 0-.7.6.6 0 0 1 0-.3 1.4 1.4 0 0 0 0-.5v-.5c-.1.5-.2.9-.2 1.4z" fill-rule="evenodd" fill="#644d52"/><path d="M.4 32.2a2.5 2.5 0 0 1 0 .3v.5h.1a1.4 1.4 0 0 0 0-.4V32zm51.2 66.3h-.5c-.7 0-.7.2-.7.3h1.3c-.3-.1-.4-.2-.1-.3zm11.8.2h-1l.4.2h1c-.1 0 0 .1.2.1h1zm3.1-.3c-.3.1-.5.2-.4.3H66c-.1.1 0 .1.5.1h.6c.1-.1.1-.1-.1-.2l-.5-.3zM1.2 31.6zm-.1-1v.3a1.6 1.6 0 0 1-.1.8 1.9 1.9 0 0 0-.1.7 1.6 1.6 0 0 0 0 .3c0 .1.1.1.1 0v-.4c0-.3.1-.4.1-.4v-.2c.1-.8.1-.8 0-1.1zM.7 8.5v.4c0 .2 0 .2-.1-.1s0-.2-.1-.1V9a1.5 1.5 0 0 0 .1.5c.1.2.2.3.2-.1v-.9c-.1-.2-.1-.2-.1 0zm0 .9zm.1-.9zm3.5 90zM18.9.6zm.2-.1zM66.8.4h1.8-1.8zM.3 72.1zm0 .1V72a7.6 7.6 0 0 0 0 1v1.4a8.3 8.3 0 0 1 .1-1z" fill-rule="evenodd" fill="#644d52"/><circle cx=".2" cy="74.5" transform="rotate(-19 .1 74.656)"/><path d="M2.3.3zm52.4.3c.1 0 .2-.1-.1-.1h-1.3c-.1 0-.1.1 0 .1h1.3zM.6 45.3c.1.1.1-.1.1-.4h.1c.1 0 .1-.2.1-.4V44s-.1.1-.1.3a1 1 0 0 1 0 .3v-.3c0-.1-.1 0-.2.3H.4c0 .3 0 .6.1.6zm.1 9.6v-.3c-.1-.2-.2 0-.2.4a1 1 0 0 0 .1.6 6.1 6.1 0 0 0 .1-.7zM1 34.1c0 .1 0 .1.1 0v-.3c.1.2.1.2.1 0v-.6a1.8 1.8 0 0 0 0-.3l-.2.4a1.5 1.5 0 0 1 0 .5 1.7 1.7 0 0 0 0 .3zm-.7 8.3zm0 1.4zm0-.2a1 1 0 0 0 0-.7.9.9 0 0 1 0-.4s-.1 0-.1.2v.6a.8.8 0 0 0 .1.5zm28 54.5l.7.2h.4l-.8-.2zm39.2.3h-1l.9.2h.1zm30.3-72.9c0 .3.1.4.1.3a1.5 1.5 0 0 0 .1-.7c0-.3-.1-.3-.1-.4v.2c-.1.2-.1.4-.1.6zM.5 86.3c0-.1 0-.1-.1 0a3.7 3.7 0 0 0 0 1.1h.1a3.4 3.4 0 0 0 0-1.1zm68.4 12h-.3c-.4 0-.5 0-.4.1h.7zm.6.1zM.2 55.3v-.9s-.1 0-.1.2a2.7 2.7 0 0 0 0 .7zm.2-19.5v-.1c-.1.1-.1.1-.2.4a1.2 1.2 0 0 0 0 .1c.1.1.2 0 .2-.4zm.4 1.9zm0-.5a1.8 1.8 0 0 0 0-.4c0-.2 0-.3-.1-.2s-.1.1-.1-.1a11 11 0 0 0 .1 1.1zM70.7.5zm.1.2h.4c.1 0 .1-.1.1-.1h-.5zM58.1.7c.2 0 .3-.1.1-.1h-.1zM47 .5zm8.5 98.4zM1 85.9a.9.9 0 0 0 0 .4c0 .2.1.4.1.4V86zM70.7.5zm0 0zM.7 5.9v-.3c0-.2 0-.3-.1-.4S.5 5.4.5 5v.4c.1.3.1.5.2.5z" fill-rule="evenodd" fill="#644d52"/><circle cx=".6" cy="5.1" transform="rotate(-8.1 .717 5.248)"/><path d="M90.6.5zM4.7.2h-.3v.2h.3zm-4.5 59h.1V59H.2a1.3 1.3 0 0 0 0 .2zm.3 29.3v.2a2.2 2.2 0 0 0 0 .3h.1a1.9 1.9 0 0 0 0-.3c0-.3-.1-.3-.1-.2zM97.8 16h.1v-.7a4.9 4.9 0 0 0-.1.7zM55 .6zm-.2 0h-.1.1zM82.3.5zM.9 3v-.3.2a1.7 1.7 0 0 0 0 .2V3zM52.2.3zm-1.1 0zm1.4 97.8zm.2-.2h-.4c.1.1.2.1.2.2h.2zM.7 42.5v-.3.3zM36.2 98zM.4 13.9v.1a2 2 0 0 0 0 .5c0-.1 0-.2.1-.3zm0 .6zM.3 43.8zm.1.7a3.3 3.3 0 0 0-.1-.7c0 .4 0 .5.1.7zm0 0zM.3 56.3s.1-.2.1-.3 0-.3-.1-.2v.2c-.1.1-.1.3 0 .3zm74.4 42.1zm.5 0zm-63.4.1zM0 93.8zm40.3 4.8h.3c.1 0 .1 0 0-.1zm8.2.2zm.2.1zM.9 45.9v-.1.1zM41 .3zM7.2.4h.1-.1zM1.1 32.8v-.2.6zM.6 3.1a.8.8 0 0 0 0-.1v-.3.4zm0 68.3a.8.8 0 0 0 0-.1v.2c-.1 0 0 0 0-.1zm33.8 26.8h.1-.1.1-.1zm.4 0zm20.9.1zM.3 80.7v.2zm9.1 17.7c-.1 0-.3 0-.2.1h.2zm23.7.4zm27.8.1zm-8.3 0zm.7.1zm-50-80.8h-.1v.2c.1 0 .1-.1.1-.2zm0 6.1zm-.1.1zm-.1 61c-.1-.3-.1-.3-.1 0v.3-.3zm0 0v.6a1.7 1.7 0 0 0 0-.6zm0 .6zM97.9 9.9zM1.2 84.2a.4.4 0 0 0 0 .3v-.3zM60.7.6zM76.5.5zM48.1.5H48h.1zm.2 0h-.2l.2.1V.5zM.9 30.4v-.1.1zm0-1zM46.1.4zM6.8.2zm-.1 0zm0-.1zM.6 15.6v-.2a1.9 1.9 0 0 0 0 .2zm.1-.3zM4.6.1zM.5 14.2zm0 .3v.1zm.1 2zm8.9 81.6zM21.9 0zm-.1 0zM.5 14.6zm-.1.2h.1v-.2H.4zm.1 75.4v-.8a2.7 2.7 0 0 0 0 .8zm-.1-.8zm25.4 8.8zm51.6 0zM.4 42.1H.3a.8.8 0 0 0 0 .3zm-.1.3zm.1 47a.6.6 0 0 0 0 .1v-.1zm9.7 8.9zM.3 31.9v.2-.2zm38.5 66.5zm.3-.1H39v.1l.1-.1zM.3 72zm-.1-.3v.3c.1-.1.1-.2 0-.3zm0 19.9zm0-34.3v-.1zM0 97zm17.1 1.7zm17.2.1zm26.4 0zm-6.1.2zM3.3 23.2zm0 .2v-.2zM1.2 58l-.1-.3v.3h.1zM5.5.6zm-.2 0h.1-.1zm-.4 0zm56 0zM28.6 97.7h.1-.1zM.9 50.8v-.1.1zM.8 5.7zm0 .1zm0 51.5zm0 0zM.7 9.4zm.1.2v-.1.1zm25.1 88.3h-.1.1zm42.8 0h.3-.3zm.3 0zm-.4 0h.1-.1zM24 .2h-.1.1zM.7 15.1v.1a.7.7 0 0 0 0-.1zm-.1-4.2zm.1 25.6zm0 .1zm0 17.2zm-.1 29h.1l-.1-.1v.1zm10.7 15.3zm-.5-.1zM.6 5.1v.1zm-.1.1zm0 .1zm0 0c0 .1 0 .1 0 0zm0 7zm0 0zm0 0zm0 12.1v-.2.2zm10.1 73.8zm42-.1zM.4 76c0-.1 0-.2 0 0zM.3 30.7v-.1.3a1.2 1.2 0 0 0 0 .3v-.5zM.3 41zm.1.2a.2.2 0 0 0 0-.1zm93.5 57.1zM.3 31.2zm0 23.2zM.2 85.5zm0-.1v-.3a.3.3 0 0 0 0 .3zm0 0zM.1 71.6v-.1.1zm12.6 27zM.1 83.1zm0 .1zm69.1 15.4zm-46.6.2zm.1-.1zm45.1.1h.1-.1zM32.9.8zM1.7 20.9v-.1.1zm-.1-.7v.1-.1zm0 46.3v-.1zM71.2 97zm.5-.1zM1.5 43.1zM3 59.5z" fill-rule="evenodd" fill="#644d52"/></g></svg>