<svg xmlns="http://www.w3.org/2000/svg" version="1.1" xmlns:xlink="http://www.w3.org/1999/xlink" xmlns:svgjs="http://svgjs.com/svgjs" height="140.59717254638673" width="259.30999755859375"><defs id="SvgjsDefs1107"></defs><g id="SvgjsG1108" rel="mainfill" name="main_text" xmlns:name="main_text" transform="translate(0,-100.09282989501952)" fill="#ffffff"><path d="M16.21 232.76L16.21 240L11.21 240L11.21 232.76L0 215.86L5.52 215.86L13.62 228.10L13.79 228.10L21.90 215.86L27.41 215.86L16.21 232.76ZM34.83 240L30.00 240L30.00 222.41L34.83 222.41L34.83 240M35.00 217.76Q35.00 218.79 34.29 219.57Q33.59 220.34 32.41 220.34Q31.24 220.34 30.53 219.57Q29.83 218.79 29.83 217.76Q29.83 216.72 30.53 215.95Q31.24 215.17 32.41 215.17Q33.55 215.17 34.28 215.95Q35.00 216.72 35.00 217.76ZM44.66 240L39.83 240L39.83 215.86L44.66 215.86L44.66 240ZM51.03 224.48L47.76 224.48L47.76 222.07L51.03 222.07L51.03 216.55L55.86 216.55L55.86 222.07L61.21 222.07L61.21 224.48L55.86 224.48L55.86 233.45Q55.86 234.76 56.16 235.67Q56.45 236.59 56.95 237.16Q57.45 237.72 58.10 238Q58.76 238.28 59.48 238.28Q60.52 238.28 61.48 237.95Q62.45 237.62 63.10 237.24L64.14 239.48Q63.10 240 61.78 240.34Q60.45 240.69 59.14 240.69Q55.24 240.69 53.14 238.76Q51.03 236.83 51.03 233.45L51.03 224.48ZM70.86 234.31Q70.86 237.59 74.83 237.59L79.66 237.59L79.66 231.03L74.83 231.03Q70.86 231.03 70.86 234.31M79.66 228.62Q79.66 226.14 78.36 224.97Q77.07 223.79 75.00 223.79Q73.45 223.79 71.97 224.26Q70.48 224.72 69.31 225.52L68.10 223.45Q68.86 222.93 69.78 222.55Q70.69 222.17 71.66 221.91Q72.62 221.66 73.57 221.52Q74.52 221.38 75.34 221.38Q77.55 221.38 79.24 221.90Q80.93 222.41 82.10 223.38Q83.28 224.34 83.88 225.67Q84.48 227.00 84.48 228.62L84.48 240L74.83 240Q70.14 240 67.91 238.59Q65.69 237.17 65.69 234.31Q65.69 231.45 67.91 230.03Q70.14 228.62 74.83 228.62L79.66 228.62ZM103.10 237.59L103.10 224.48L98.79 224.48Q97.62 224.48 96.64 224.84Q95.66 225.21 94.95 226.00Q94.24 226.79 93.84 228.03Q93.45 229.28 93.45 231.03Q93.45 232.79 93.84 234.03Q94.24 235.28 94.95 236.07Q95.66 236.86 96.64 237.22Q97.62 237.59 98.79 237.59L103.10 237.59M98.79 240Q96.41 240 94.47 239.38Q92.52 238.76 91.14 237.59Q89.76 236.41 89.02 234.76Q88.28 233.10 88.28 231.03Q88.28 228.97 89.02 227.31Q89.76 225.66 91.14 224.48Q92.52 223.31 94.47 222.69Q96.41 222.07 98.79 222.07L103.10 222.07L103.10 215.86L107.93 215.86L107.93 240L98.79 240ZM144.66 237.41L144.66 240L124.83 240L124.83 215.86L129.83 215.86L129.83 237.41L144.66 237.41ZM152.76 240L147.93 240L147.93 222.41L152.76 222.41L152.76 240M152.93 217.76Q152.93 218.79 152.22 219.57Q151.52 220.34 150.34 220.34Q149.17 220.34 148.47 219.57Q147.76 218.79 147.76 217.76Q147.76 216.72 148.47 215.95Q149.17 215.17 150.34 215.17Q151.48 215.17 152.21 215.95Q152.93 216.72 152.93 217.76ZM157.76 222.07L175.69 222.07Q180.62 222.07 182.98 223.84Q185.34 225.62 185.34 229.14L185.34 240L180.52 240L180.52 229.14Q180.52 226.66 179.28 225.57Q178.03 224.48 175.69 224.48L173.97 224.48L173.97 240L169.14 240L169.14 224.48L162.59 224.48L162.59 240L157.76 240L157.76 222.07ZM195.00 240L190.17 240L190.17 222.41L195.00 222.41L195.00 240M195.17 217.76Q195.17 218.79 194.47 219.57Q193.76 220.34 192.59 220.34Q191.41 220.34 190.71 219.57Q190.00 218.79 190.00 217.76Q190.00 216.72 190.71 215.95Q191.41 215.17 192.59 215.17Q193.72 215.17 194.45 215.95Q195.17 216.72 195.17 217.76ZM201.55 224.48L198.28 224.48L198.28 222.07L201.55 222.07L201.55 216.55L206.38 216.55L206.38 222.07L211.72 222.07L211.72 224.48L206.38 224.48L206.38 233.45Q206.38 234.76 206.67 235.67Q206.97 236.59 207.47 237.16Q207.97 237.72 208.62 238Q209.28 238.28 210.00 238.28Q211.03 238.28 212.00 237.95Q212.97 237.62 213.62 237.24L214.66 239.48Q213.62 240 212.29 240.34Q210.97 240.69 209.66 240.69Q205.76 240.69 203.66 238.76Q201.55 236.83 201.55 233.45L201.55 224.48ZM227.76 238.28Q229.45 238.28 230.91 237.69Q232.38 237.10 233.79 236.03L235.17 238.10Q234.52 238.69 233.64 239.17Q232.76 239.66 231.74 239.98Q230.72 240.31 229.62 240.50Q228.52 240.69 227.41 240.69Q224.97 240.69 222.95 240.05Q220.93 239.41 219.52 238.19Q218.10 236.97 217.33 235.17Q216.55 233.38 216.55 231.03Q216.55 228.72 217.29 226.91Q218.03 225.10 219.36 223.88Q220.69 222.66 222.52 222.02Q224.34 221.38 226.55 221.38Q228.62 221.38 230.45 222.00Q232.28 222.62 233.62 223.81Q234.97 225.00 235.76 226.69Q236.55 228.38 236.55 230.52L236.55 232.93L221.83 232.93Q222.24 235.79 223.81 237.03Q225.38 238.28 227.76 238.28M226.55 223.62Q225.55 223.62 224.69 224.00Q223.83 224.38 223.19 225.21Q222.55 226.03 222.16 227.34Q221.76 228.66 221.72 230.52L231.38 230.52Q231.38 228.72 230.97 227.41Q230.55 226.10 229.88 225.26Q229.21 224.41 228.33 224.02Q227.45 223.62 226.55 223.62ZM254.48 237.59L254.48 224.48L250.17 224.48Q249.00 224.48 248.02 224.84Q247.03 225.21 246.33 226.00Q245.62 226.79 245.22 228.03Q244.83 229.28 244.83 231.03Q244.83 232.79 245.22 234.03Q245.62 235.28 246.33 236.07Q247.03 236.86 248.02 237.22Q249.00 237.59 250.17 237.59L254.48 237.59M250.17 240Q247.79 240 245.84 239.38Q243.90 238.76 242.52 237.59Q241.14 236.41 240.40 234.76Q239.66 233.10 239.66 231.03Q239.66 228.97 240.40 227.31Q241.14 225.66 242.52 224.48Q243.90 223.31 245.84 222.69Q247.79 222.07 250.17 222.07L254.48 222.07L254.48 215.86L259.31 215.86L259.31 240L250.17 240Z" fill="#ffffff" style="fill: rgb(255, 255, 255);"></path></g><g id="SvgjsG1109" rel="mainfill" name="symbol" xmlns:name="symbol_mainfill" transform="translate(64.65597200393677,-14.961699771881097) scale(1.3)" fill="#ffffff"><g fill="#ffffff"><path d="M93.855,85.696L51.537,12.398c-0.318-0.55-0.906-0.889-1.541-0.889c-0.636,0-1.223,0.339-1.541,0.889L6.063,85.822   c-0.318,0.552-0.318,1.229,0,1.78c0.318,0.55,0.905,0.889,1.54,0.889h84.785c0.003,0.001,0.006,0,0.006,0   c0.983,0,1.78-0.796,1.78-1.778C94.175,86.335,94.057,85.985,93.855,85.696z M10.684,84.935l39.313-68.089l39.312,68.089H10.684z" fill="#ffffff" style="fill: rgb(255, 255, 255);"></path><path d="M48.456,25.205L17.154,79.419c-0.318,0.551-0.318,1.229,0,1.78c0.318,0.55,0.905,0.889,1.541,0.889h62.603   c0.003,0,0.005,0.001,0.007,0c0.982,0,1.778-0.797,1.778-1.779c0-0.377-0.117-0.728-0.317-1.016L51.537,25.205   c-0.318-0.55-0.906-0.889-1.541-0.889C49.361,24.316,48.774,24.655,48.456,25.205z M78.217,78.53H21.776l28.221-48.878   L78.217,78.53z" fill="#ffffff" style="fill: rgb(255, 255, 255);"></path><path d="M48.456,38.012l-20.21,35.003c-0.318,0.551-0.318,1.229,0,1.779c0.318,0.55,0.905,0.89,1.54,0.89h40.42   c0.003,0,0.006,0,0.007,0c0.982,0,1.778-0.797,1.778-1.779c0-0.377-0.116-0.728-0.317-1.016L51.537,38.012   c-0.318-0.55-0.906-0.889-1.541-0.889C49.361,37.123,48.774,37.462,48.456,38.012z M67.125,72.127H32.867l17.129-29.668   L67.125,72.127z" fill="#ffffff" style="fill: rgb(255, 255, 255);"></path><path d="M48.456,50.819l-9.119,15.794c-0.318,0.55-0.318,1.229,0,1.778c0.317,0.549,0.905,0.889,1.54,0.889h18.237   c0.636,0,1.223-0.34,1.542-0.889c0.316-0.55,0.316-1.229,0-1.778l-9.119-15.794c-0.318-0.55-0.906-0.889-1.541-0.889   C49.361,49.93,48.774,50.269,48.456,50.819z" fill="#ffffff" style="fill: rgb(255, 255, 255);"></path></g></g></svg>